<svg width="493" height="120" viewBox="0 0 493 120" fill="none" xmlns="http://www.w3.org/2000/svg">
<rect opacity="0.8" x="124.243" y="38.0459" width="24.86" height="24.86" fill="white"/>
<rect opacity="0.8" x="-1.7124" y="0.755859" width="24.86" height="24.86" fill="white"/>
<rect opacity="0.8" x="196.337" y="85.2793" width="24.86" height="24.86" fill="white"/>
<rect opacity="0.8" x="38.063" y="55.4482" width="14.916" height="14.916" fill="white"/>
<rect opacity="0.2" x="83.6387" y="25.6162" width="24.86" height="24.86" fill="white"/>
<rect opacity="0.2" x="137.502" y="85.2793" width="14.916" height="14.916" fill="white"/>
<rect opacity="0.2" x="319.809" y="85.2793" width="24.86" height="24.86" fill="white"/>
<rect opacity="0.2" x="375.33" y="110.14" width="24.86" height="24.86" fill="white"/>
<rect opacity="0.2" x="443.279" y="80.3076" width="14.916" height="14.916" fill="white"/>
<rect opacity="0.1" x="484.712" y="105.996" width="8.28666" height="8.28666" fill="white"/>
<rect opacity="0.5" x="161.534" y="13.1855" width="24.86" height="24.86" fill="white"/>
<rect opacity="0.5" x="263.46" y="103.511" width="24.86" height="24.86" fill="white"/>
<rect opacity="0.5" x="201.309" y="48.8184" width="14.916" height="14.916" fill="white"/>
<rect opacity="0.5" x="61.2651" y="102.682" width="14.916" height="14.916" fill="white"/>
<rect opacity="0.2" x="-10" y="90.252" width="24.86" height="24.86" fill="white"/>
</svg>
