<svg width="493" height="120" viewBox="0 0 493 120" fill="none" xmlns="http://www.w3.org/2000/svg">
<rect opacity="0.8" width="24.86" height="24.86" transform="matrix(-1 0 0 1 368.757 38.0459)" fill="white"/>
<rect opacity="0.8" width="24.86" height="24.86" transform="matrix(-1 0 0 1 494.712 0.755859)" fill="white"/>
<rect opacity="0.8" width="24.86" height="24.86" transform="matrix(-1 0 0 1 296.663 85.2793)" fill="white"/>
<rect opacity="0.8" width="14.916" height="14.916" transform="matrix(-1 0 0 1 454.937 55.4482)" fill="white"/>
<rect opacity="0.2" width="24.86" height="24.86" transform="matrix(-1 0 0 1 409.361 25.6162)" fill="white"/>
<rect opacity="0.2" width="14.916" height="14.916" transform="matrix(-1 0 0 1 355.498 85.2793)" fill="white"/>
<rect opacity="0.2" width="24.86" height="24.86" transform="matrix(-1 0 0 1 173.191 85.2793)" fill="white"/>
<rect opacity="0.2" width="24.86" height="24.86" transform="matrix(-1 0 0 1 117.67 110.14)" fill="white"/>
<rect opacity="0.2" width="14.916" height="14.916" transform="matrix(-1 0 0 1 49.7207 80.3076)" fill="white"/>
<rect opacity="0.1" width="8.28666" height="8.28666" transform="matrix(-1 0 0 1 8.2876 105.996)" fill="white"/>
<rect opacity="0.5" width="24.86" height="24.86" transform="matrix(-1 0 0 1 331.466 13.1855)" fill="white"/>
<rect opacity="0.5" width="24.86" height="24.86" transform="matrix(-1 0 0 1 229.54 103.511)" fill="white"/>
<rect opacity="0.5" width="14.916" height="14.916" transform="matrix(-1 0 0 1 291.691 48.8184)" fill="white"/>
<rect opacity="0.5" width="14.916" height="14.916" transform="matrix(-1 0 0 1 431.735 102.682)" fill="white"/>
<rect opacity="0.2" width="24.86" height="24.86" transform="matrix(-1 0 0 1 503 90.252)" fill="white"/>
</svg>
