<svg width="224" height="50" viewBox="0 0 224 50" fill="none" xmlns="http://www.w3.org/2000/svg">
<path d="M81.3137 41.2746C79.7358 41.2746 78.2808 40.9865 76.9693 40.4103C75.6578 39.8341 74.5307 39.0316 73.5881 38.0439C72.6454 37.0561 71.9077 35.8832 71.3954 34.5456C70.8626 33.2081 70.6167 31.8088 70.6167 30.3272C70.6167 28.8456 70.8831 27.4463 71.3954 26.1293C71.9282 24.8123 72.6659 23.6394 73.6086 22.6516C74.5717 21.6639 75.6988 20.8613 77.0103 20.2852C78.3218 19.709 79.7767 19.4209 81.3547 19.4209C82.9326 19.4209 84.3875 19.709 85.6785 20.3057C86.99 20.9025 88.0966 21.6845 88.9983 22.6722C89.9204 23.6599 90.6172 24.8123 91.109 26.1087C91.6008 27.4257 91.8467 28.7632 91.8467 30.1831C91.8467 30.4712 91.8467 30.7593 91.8262 30.9857C91.8057 31.2326 91.7852 31.4178 91.7647 31.5618H74.3258C74.4078 32.6113 74.6537 33.5785 75.043 34.4427C75.4529 35.307 75.9652 36.0478 76.6209 36.6651C77.2562 37.2825 77.9939 37.7763 78.8136 38.1262C79.6333 38.476 80.494 38.6612 81.4161 38.6612C82.0514 38.6612 82.6866 38.5789 83.3014 38.3937C83.9162 38.2085 84.49 37.9821 85.0433 37.694C85.5761 37.4059 86.0474 37.0355 86.4777 36.6034C86.8876 36.1713 87.2154 35.6774 87.4204 35.1424L90.4737 35.9861C90.1253 36.768 89.654 37.4883 89.0393 38.1262C88.4245 38.7641 87.7277 39.3403 86.949 39.8135C86.1498 40.2868 85.2687 40.6572 84.3055 40.9248C83.3629 41.1511 82.3588 41.2746 81.3137 41.2746ZM88.5269 28.8867C88.445 27.899 88.1991 26.973 87.7892 26.1087C87.3794 25.265 86.8466 24.5448 86.2113 23.948C85.5761 23.3513 84.8383 22.8986 84.0186 22.5487C83.1785 22.2195 82.2973 22.0343 81.3547 22.0343C80.412 22.0343 79.5308 22.1989 78.6907 22.5487C77.8505 22.878 77.1332 23.3513 76.498 23.9686C75.8627 24.5859 75.3504 25.3062 74.9611 26.1293C74.5717 26.973 74.3463 27.8784 74.2643 28.8867H88.5269Z" fill="#FFB661"/>
<path d="M101.228 41.2749C100.224 41.2749 99.3018 41.1102 98.4411 40.7604C97.5804 40.4312 96.8427 39.9579 96.2074 39.3611C95.5722 38.7644 95.0804 38.0647 94.7115 37.2828C94.3426 36.4802 94.1582 35.6159 94.1582 34.6694C94.1582 33.7022 94.3631 32.8174 94.7935 32.0148C95.2238 31.2123 95.8386 30.5332 96.6173 29.9776C97.4165 29.4014 98.3591 28.9693 99.4452 28.6401C100.531 28.3108 101.72 28.1462 103.011 28.1462C104.035 28.1462 105.06 28.2491 106.105 28.4343C107.15 28.6195 108.072 28.887 108.892 29.1957V27.4877C108.892 25.7592 108.4 24.401 107.437 23.4133C106.474 22.4255 105.101 21.9317 103.318 21.9317C101.187 21.9317 98.9739 22.7548 96.6378 24.401L95.4697 22.0963C98.1747 20.2649 100.9 19.3389 103.646 19.3389C106.413 19.3389 108.564 20.0797 110.122 21.5613C111.659 23.0429 112.437 25.1418 112.437 27.8375V36.4596C112.437 37.3033 112.806 37.7355 113.564 37.756V40.8221C113.196 40.8839 112.888 40.925 112.642 40.9456C112.396 40.9662 112.15 40.9868 111.884 40.9868C111.187 40.9868 110.634 40.781 110.204 40.3694C109.794 39.9579 109.548 39.4434 109.466 38.8467L109.384 37.3445C108.441 38.6203 107.253 39.5669 105.818 40.246C104.384 40.9456 102.847 41.2749 101.228 41.2749ZM102.15 38.5997C103.421 38.5997 104.589 38.3734 105.675 37.9001C106.761 37.4268 107.581 36.8095 108.154 36.0275C108.667 35.5131 108.913 34.9986 108.913 34.443V31.3358C107.191 30.6567 105.408 30.3274 103.544 30.3274C101.761 30.3274 100.326 30.6978 99.2198 31.4592C98.1132 32.2206 97.5394 33.2083 97.5394 34.4224C97.5394 35.0192 97.6624 35.5748 97.8878 36.0892C98.1132 36.6037 98.4411 37.0564 98.8509 37.4268C99.2608 37.7972 99.7526 38.1059 100.326 38.3116C100.9 38.4968 101.494 38.5997 102.15 38.5997Z" fill="white"/>
<path d="M125.513 41.2746C123.812 41.2746 122.152 41.0071 120.512 40.4927C118.873 39.9577 117.459 39.1963 116.291 38.2085L117.828 35.8215C119.057 36.7681 120.307 37.4677 121.537 37.941C122.767 38.4143 124.078 38.6407 125.451 38.6407C126.988 38.6407 128.197 38.332 129.099 37.7353C130 37.1179 130.451 36.2742 130.451 35.163C130.451 34.6486 130.328 34.2164 130.082 33.846C129.836 33.4756 129.488 33.167 128.996 32.8995C128.504 32.6319 127.89 32.385 127.152 32.1792C126.394 31.9735 125.533 31.7265 124.529 31.5002C123.258 31.1709 122.172 30.8623 121.271 30.5742C120.348 30.2861 119.611 29.9362 119.016 29.5247C118.422 29.1131 117.992 28.6398 117.725 28.0637C117.459 27.4875 117.316 26.7878 117.316 25.9647C117.316 24.9153 117.521 23.9687 117.93 23.1456C118.34 22.3224 118.914 21.6434 119.652 21.0878C120.369 20.5322 121.23 20.1206 122.213 19.8325C123.197 19.5444 124.242 19.4004 125.369 19.4004C126.947 19.4004 128.422 19.6473 129.795 20.1618C131.168 20.6762 132.316 21.3553 133.259 22.1784L131.64 24.3185C130.759 23.5365 129.754 22.9398 128.668 22.5488C127.562 22.1578 126.435 21.952 125.287 21.952C123.996 21.952 122.91 22.2196 122.008 22.7752C121.107 23.3308 120.656 24.2156 120.656 25.4297C120.656 25.9236 120.738 26.3145 120.922 26.6438C121.107 26.973 121.394 27.2406 121.783 27.4875C122.193 27.7344 122.705 27.9402 123.34 28.1254C123.976 28.3106 124.734 28.5164 125.615 28.7222C127.008 29.0514 128.218 29.3806 129.263 29.7099C130.287 30.0391 131.148 30.4507 131.845 30.9034C132.521 31.3561 133.033 31.9117 133.382 32.5291C133.709 33.1464 133.894 33.9078 133.894 34.7926C133.894 36.7681 133.136 38.332 131.64 39.4844C130.103 40.6985 128.074 41.2746 125.513 41.2746Z" fill="white"/>
<path d="M139.02 46.6246C139.369 46.6863 139.717 46.7275 140.065 46.7481C140.414 46.7687 140.68 46.7892 140.865 46.7892C141.193 46.7892 141.479 46.7069 141.725 46.5629C141.971 46.4188 142.238 46.1307 142.484 45.6986C142.729 45.2665 143.037 44.6697 143.344 43.8878C143.672 43.1264 144.061 42.1181 144.553 40.8834L135.639 19.7705H139.348L146.521 37.6938L153.058 19.7705H156.439L146.213 46.4394C145.844 47.386 145.209 48.2091 144.348 48.9293C143.467 49.6495 142.279 49.9994 140.742 49.9994C140.496 49.9994 140.25 49.9788 140.004 49.9582C139.758 49.9376 139.43 49.8759 139.061 49.7936V46.6246H139.02Z" fill="white"/>
<path d="M167.384 41.2746C165.683 41.2746 164.023 41.0071 162.384 40.4927C160.744 39.9577 159.33 39.1963 158.162 38.2085L159.699 35.8215C160.929 36.7681 162.179 37.4677 163.408 37.941C164.638 38.4143 165.949 38.6407 167.322 38.6407C168.859 38.6407 170.068 38.332 170.97 37.7353C171.871 37.1179 172.322 36.2742 172.322 35.163C172.322 34.6486 172.199 34.2164 171.953 33.846C171.707 33.4756 171.359 33.167 170.867 32.8995C170.376 32.6319 169.761 32.385 169.023 32.1792C168.265 31.9735 167.404 31.7265 166.4 31.5002C165.129 31.1709 164.043 30.8623 163.142 30.5742C162.22 30.2861 161.482 29.9362 160.888 29.5247C160.293 29.1131 159.863 28.6398 159.597 28.0637C159.33 27.4875 159.187 26.7878 159.187 25.9647C159.187 24.9153 159.392 23.9687 159.801 23.1456C160.211 22.3224 160.785 21.6434 161.523 21.0878C162.24 20.5322 163.101 20.1206 164.084 19.8325C165.068 19.5444 166.113 19.4004 167.24 19.4004C168.818 19.4004 170.294 19.6473 171.667 20.1618C173.04 20.6762 174.187 21.3553 175.13 22.1784L173.511 24.3185C172.63 23.5365 171.626 22.9398 170.539 22.5488C169.433 22.1578 168.306 21.952 167.158 21.952C165.867 21.952 164.781 22.2196 163.879 22.7752C162.978 23.3308 162.527 24.2156 162.527 25.4297C162.527 25.9236 162.609 26.3145 162.793 26.6438C162.978 26.973 163.265 27.2406 163.654 27.4875C164.064 27.7344 164.576 27.9402 165.211 28.1254C165.847 28.3106 166.605 28.5164 167.486 28.7222C168.88 29.0514 170.089 29.3806 171.134 29.7099C172.158 30.0391 173.019 30.4507 173.716 30.9034C174.392 31.3561 174.904 31.9117 175.253 32.5291C175.581 33.1464 175.765 33.9078 175.765 34.7926C175.765 36.7681 175.007 38.332 173.511 39.4844C171.974 40.6985 169.945 41.2746 167.384 41.2746Z" fill="#FFB661"/>
<path d="M189.222 41.2746C187.644 41.2746 186.19 40.9865 184.878 40.4103C183.566 39.8341 182.439 39.0316 181.497 38.0439C180.554 37.0561 179.816 35.8832 179.304 34.5456C178.771 33.2081 178.525 31.8088 178.525 30.3272C178.525 28.8456 178.792 27.4463 179.304 26.1293C179.837 24.8123 180.575 23.6394 181.517 22.6516C182.48 21.6639 183.607 20.8613 184.919 20.2852C186.23 19.709 187.685 19.4209 189.263 19.4209C190.841 19.4209 192.296 19.709 193.587 20.3057C194.899 20.9025 196.005 21.6845 196.907 22.6722C197.829 23.6599 198.526 24.8123 199.018 26.1087C199.509 27.4257 199.755 28.7632 199.755 30.1831C199.755 30.4712 199.755 30.7593 199.735 30.9857C199.714 31.2326 199.694 31.4178 199.673 31.5618H182.234C182.316 32.6113 182.562 33.5785 182.952 34.4427C183.362 35.307 183.874 36.0478 184.53 36.6651C185.165 37.2825 185.903 37.7763 186.722 38.1262C187.542 38.476 188.403 38.6612 189.325 38.6612C189.96 38.6612 190.595 38.5789 191.21 38.3937C191.825 38.2085 192.399 37.9821 192.952 37.694C193.485 37.4059 193.956 37.0355 194.386 36.6034C194.796 36.1713 195.124 35.6774 195.329 35.1424L198.382 35.9861C198.034 36.768 197.563 37.4883 196.948 38.1262C196.333 38.7641 195.636 39.3403 194.858 39.8135C194.059 40.2868 193.177 40.6572 192.214 40.9248C191.272 41.1511 190.267 41.2746 189.222 41.2746ZM196.436 28.8867C196.354 27.899 196.108 26.973 195.698 26.1087C195.288 25.265 194.755 24.5448 194.12 23.948C193.485 23.3513 192.747 22.8986 191.927 22.5487C191.087 22.2195 190.206 22.0343 189.263 22.0343C188.321 22.0343 187.44 22.1989 186.599 22.5487C185.759 22.878 185.042 23.3513 184.407 23.9686C183.771 24.5859 183.259 25.3062 182.87 26.1293C182.48 26.973 182.255 27.8784 182.173 28.8867H196.436Z" fill="white"/>
<path d="M203.796 11.334H207.342V35.4101C207.342 36.192 207.546 36.8094 207.956 37.2415C208.366 37.6942 208.96 37.9 209.719 37.9C210.006 37.9 210.354 37.8588 210.764 37.7559C211.174 37.6531 211.542 37.5502 211.891 37.4061L212.465 40.287C211.87 40.534 211.174 40.7397 210.374 40.8838C209.575 41.0484 208.858 41.1307 208.243 41.1307C206.87 41.1307 205.784 40.7397 205.005 39.9578C204.206 39.1758 203.817 38.0852 203.817 36.6859V11.334H203.796Z" fill="white"/>
<path d="M215.332 11.334H218.877V35.4101C218.877 36.192 219.082 36.8094 219.491 37.2415C219.901 37.6942 220.496 37.9 221.254 37.9C221.541 37.9 221.889 37.8588 222.299 37.7559C222.709 37.6531 223.078 37.5502 223.426 37.4061L224 40.287C223.405 40.534 222.709 40.7397 221.91 40.8838C221.11 41.0484 220.393 41.1307 219.778 41.1307C218.405 41.1307 217.319 40.7397 216.541 39.9578C215.741 39.1758 215.352 38.0852 215.352 36.6859V11.334H215.332Z" fill="white"/>
<path d="M29.9404 32.293H15.5244V46.7691H29.9404V32.293Z" fill="#61A6F2"/>
<mask id="mask0" mask-type="alpha" maskUnits="userSpaceOnUse" x="0" y="16" width="30" height="31">
<ellipse cx="14.9704" cy="31.7361" rx="14.9704" ry="15.033" fill="#C4C4C4"/>
</mask>
<g mask="url(#mask0)">
<path d="M15.5249 16.7031H0V32.2929H15.5249V16.7031Z" fill="#CCE4FF"/>
<path d="M29.9404 16.7031H15.5244V32.2929H29.9404V16.7031Z" fill="#80BCFF"/>
<path d="M15.5249 32.293H0V46.7691H15.5249V32.293Z" fill="#99C9FF"/>
</g>
<mask id="mask1" mask-type="alpha" maskUnits="userSpaceOnUse" x="13" y="0" width="33" height="33">
<ellipse cx="29.386" cy="16.1465" rx="16.0794" ry="16.1465" fill="#C4C4C4"/>
</mask>
<g mask="url(#mask1)">
<path d="M29.981 0H13.3062V16.7445H29.981V0Z" fill="#CCEEFF"/>
<path d="M45.4643 0H29.9805V16.7445H45.4643V0Z" fill="#80D4FF"/>
<path d="M29.981 16.7441H13.3062V32.2926H29.981V16.7441Z" fill="#99DDFF"/>
<path d="M45.4643 16.7441H29.9805V32.2926H45.4643V16.7441Z" fill="#61C2F2"/>
</g>
<path d="M45.4668 32.293H29.9419V46.7691H45.4668V32.293Z" fill="#99C9FF"/>
<mask id="mask2" mask-type="alpha" maskUnits="userSpaceOnUse" x="29" y="16" width="31" height="31">
<ellipse cx="44.9104" cy="31.7361" rx="14.9704" ry="15.033" fill="#C4C4C4"/>
</mask>
<g mask="url(#mask2)">
<path d="M45.4648 16.7031H29.9399V32.2929H45.4648V16.7031Z" fill="#CCE4FF"/>
<path d="M59.8833 16.7031H45.4673V32.2929H59.8833V16.7031Z" fill="#80BCFF"/>
<path d="M59.8813 32.293H45.4653V46.7691H59.8813V32.293Z" fill="#61A6F2"/>
</g>
<path fill-rule="evenodd" clip-rule="evenodd" d="M21.0689 8.9082C21.0689 13.8855 24.8547 17.8166 29.3858 17.8166C33.917 17.8166 37.7027 13.8855 37.7027 8.9082H39.9206C39.9206 14.9939 35.2596 20.0437 29.3858 20.0437C23.512 20.0437 18.8511 14.9939 18.8511 8.9082H21.0689Z" fill="white"/>
</svg>
