<svg width="54" height="58" viewBox="0 0 54 58" fill="none" xmlns="http://www.w3.org/2000/svg">
<path d="M52.765 11.0506C52.289 10.1568 51.3644 9.60156 50.3517 9.60156H42.5847C41.9362 5.95459 38.7447 3.17578 34.9142 3.17578C31.0838 3.17578 27.8922 5.95459 27.2438 9.60156H19.3749C19.9921 8.65711 20.3524 7.53027 20.3524 6.32031C20.3524 3.00324 17.6539 0.304688 14.3368 0.304688C11.0198 0.304688 8.3212 3.00324 8.3212 6.32031C8.3212 7.53027 8.68159 8.65711 9.29874 9.60156H2.88307C1.8704 9.60156 0.945769 10.1568 0.469714 11.0506C-0.00620405 11.9444 0.0490303 13.0216 0.614089 13.8619L18.9612 41.1449V56.6328C18.9612 57.0938 19.1935 57.5238 19.5792 57.7763C19.8052 57.9244 20.0662 58 20.3285 58C20.5136 58 20.6994 57.9624 20.8743 57.8862L33.4524 52.4089C33.9512 52.1916 34.2737 51.6995 34.2737 51.1554V41.1448L52.6207 13.8617C53.1857 13.0216 53.2411 11.9444 52.765 11.0506ZM34.9142 5.91016C37.2298 5.91016 39.1855 7.47463 39.7836 9.60156H30.045C30.643 7.47463 32.5988 5.91016 34.9142 5.91016ZM14.337 3.03906C16.1462 3.03906 17.6182 4.51111 17.6182 6.32031C17.6182 8.12951 16.1462 9.60156 14.337 9.60156C12.5278 9.60156 11.0557 8.12951 11.0557 6.32031C11.0557 4.51111 12.5278 3.03906 14.337 3.03906ZM31.7719 39.9649C31.6203 40.1903 31.5392 40.456 31.5392 40.7278V50.2597L21.6954 54.5462V42.095H26.6347C27.3898 42.095 28.0019 41.4829 28.0019 40.7278C28.0019 39.9727 27.3898 39.3606 26.6347 39.3606H21.0564L7.29663 18.8984H34.9142C35.6693 18.8984 36.2814 18.2863 36.2814 17.5312C36.2814 16.7762 35.6693 16.1641 34.9142 16.1641H5.4579L2.88362 12.3359H50.3515L31.7719 39.9649Z" fill="#FFA14A"/>
</svg>
