<svg width="57" height="57" viewBox="0 0 57 57" fill="none" xmlns="http://www.w3.org/2000/svg">
<path d="M56.0032 31.6688L48.059 23.7751C47.4026 23.1187 46.3422 23.1187 45.6858 23.7751L38.0277 31.4332L29.5112 39.9328C26.0777 43.3664 20.4898 43.3664 17.0563 39.9328C13.6228 36.4993 13.6228 30.9114 17.0563 27.4779L26.0609 18.4734L33.2309 11.3034C33.8873 10.647 33.8873 9.58661 33.2309 8.9302L25.3203 1.01965C24.6639 0.363242 23.6036 0.363242 22.9472 1.01965L15.7772 8.18964L6.77261 17.1942C-2.31612 26.3503 -2.24879 41.1447 6.92409 50.2334C16.0296 59.2548 30.7231 59.2548 39.8286 50.2334L48.3451 41.7169L56.0032 34.042C56.6598 33.3856 56.6598 32.3253 56.0032 31.6688ZM24.1253 4.58781L29.6627 10.1252L24.8659 14.9052L19.3285 9.36781L24.1253 4.58781ZM37.4218 47.8602C29.6122 55.6698 16.9553 55.6698 9.14577 47.8602C1.3362 40.0507 1.3362 27.3938 9.14577 19.5842L16.9553 11.7746L22.4759 17.2952L14.6663 25.1048C9.92 29.8511 9.92 37.5597 14.6663 42.3228C19.4127 47.086 27.1212 47.0692 31.8844 42.3228L39.2059 35.0014L44.7433 40.5388L37.4218 47.8602ZM47.1166 38.1656L41.5792 32.6282L46.8641 27.3433L52.4015 32.8807L47.1166 38.1656Z" fill="#FFA14A"/>
</svg>
