<svg width="70" height="70" viewBox="0 0 70 70" fill="none" xmlns="http://www.w3.org/2000/svg">
<path d="M24.6094 15.0391C24.6094 11.2697 21.5428 8.20312 17.7734 8.20312C14.0041 8.20312 10.9375 11.2697 10.9375 15.0391C10.9375 18.8084 14.0041 21.875 17.7734 21.875C21.5428 21.875 24.6094 18.8084 24.6094 15.0391ZM17.7734 19.1406C15.5118 19.1406 13.6719 17.3007 13.6719 15.0391C13.6719 12.7775 15.5118 10.9375 17.7734 10.9375C20.035 10.9375 21.875 12.7775 21.875 15.0391C21.875 17.3007 20.035 19.1406 17.7734 19.1406Z" fill="#FFA14A"/>
<path d="M17.7734 35.5469C27.6933 35.5469 35.5469 27.4598 35.5469 17.7734C35.5469 7.97316 27.5738 0 17.7734 0C7.97303 0 0 7.97316 0 17.7734C0 27.4591 7.85217 35.5469 17.7734 35.5469ZM10.9443 31.1735C11.0878 27.5298 14.0952 24.6094 17.7734 24.6094C21.4517 24.6094 24.4591 27.5298 24.6025 31.1735C22.4998 32.2468 20.1555 32.8125 17.7734 32.8125C15.3914 32.8125 13.0471 32.2468 10.9443 31.1735ZM17.7734 2.73438C26.066 2.73438 32.8125 9.4809 32.8125 17.7734C32.8125 22.3681 30.6872 26.696 27.1504 29.5271C26.2597 25.1662 22.3937 21.875 17.7734 21.875C13.1532 21.875 9.28717 25.1662 8.39645 29.5271C4.85981 26.6961 2.73438 22.3683 2.73438 17.7734C2.73438 9.4809 9.4809 2.73438 17.7734 2.73438Z" fill="#FFA14A"/>
<path d="M59.0625 49.4922C59.0625 45.7229 55.9959 42.6562 52.2266 42.6562C48.4572 42.6562 45.3906 45.7229 45.3906 49.4922C45.3906 53.2615 48.4572 56.3281 52.2266 56.3281C55.9959 56.3281 59.0625 53.2615 59.0625 49.4922ZM52.2266 53.5938C49.965 53.5938 48.125 51.7538 48.125 49.4922C48.125 47.2306 49.965 45.3906 52.2266 45.3906C54.4882 45.3906 56.3281 47.2306 56.3281 49.4922C56.3281 51.7538 54.4882 53.5938 52.2266 53.5938Z" fill="#FFA14A"/>
<path d="M52.2266 34.4531C42.4262 34.4531 34.4531 42.4263 34.4531 52.2266C34.4531 61.9131 42.3052 70 52.2266 70C62.1463 70 70 61.9129 70 52.2266C70 42.4263 62.027 34.4531 52.2266 34.4531ZM45.3975 65.6266C45.5409 61.9829 48.5483 59.0625 52.2266 59.0625C55.9048 59.0625 58.9122 61.9829 59.0557 65.6266C56.9529 66.6999 54.6086 67.2656 52.2266 67.2656C49.8445 67.2656 47.5002 66.6999 45.3975 65.6266ZM61.6036 63.9803C60.7128 59.6194 56.8468 56.3281 52.2266 56.3281C47.6063 56.3281 43.7403 59.6194 42.8496 63.9803C39.3129 61.1492 37.1875 56.8214 37.1875 52.2266C37.1875 43.934 43.934 37.1875 52.2266 37.1875C60.5191 37.1875 67.2656 43.934 67.2656 52.2266C67.2656 56.8213 65.1403 61.1491 61.6036 63.9803Z" fill="#FFA14A"/>
<path d="M32.2656 63.7109C26.9884 63.7109 22.6953 59.4177 22.6953 54.1406V52.7734H24.0625C24.5804 52.7734 25.0537 52.4809 25.2853 52.0177C25.5169 51.5545 25.4669 51.0002 25.1563 50.5859L16.9531 39.6484C16.6949 39.3042 16.2896 39.1016 15.8594 39.1016C15.4291 39.1016 15.0239 39.3042 14.7656 39.6484L6.56252 50.5859C6.2519 51.0002 6.20172 51.5545 6.43346 52.0177C6.6652 52.4809 7.13838 52.7734 7.65627 52.7734H9.02346V54.1406C9.02346 60.9254 14.5433 66.4453 21.3281 66.4453H32.2656C33.0206 66.4453 33.6328 65.8332 33.6328 65.0781C33.6328 64.323 33.0206 63.7109 32.2656 63.7109ZM21.3281 63.7109C16.0509 63.7109 11.7578 59.4177 11.7578 54.1406V51.4062C11.7578 50.6512 11.1456 50.0391 10.3906 50.0391L15.8594 42.7474L21.3281 50.0391C20.5732 50.0391 19.961 50.6512 19.961 51.4062V54.1406C19.961 58.0018 21.7486 61.4533 24.5398 63.7109H21.3281Z" fill="#FFA14A"/>
<path d="M37.7344 6.28906C43.0116 6.28906 47.3047 10.5823 47.3047 15.8594V17.2266H45.9375C45.4196 17.2266 44.9463 17.5191 44.7147 17.9823C44.4831 18.4455 44.5331 18.9998 44.8438 19.4141L53.0469 30.3516C53.3051 30.6958 53.7104 30.8984 54.1406 30.8984C54.5709 30.8984 54.9761 30.6958 55.2344 30.3516L63.4375 19.4141C63.7481 18.9998 63.7983 18.4455 63.5666 17.9823C63.3348 17.5191 62.8616 17.2266 62.3438 17.2266H60.9766V15.8594C60.9766 15.4908 60.96 15.1185 60.9273 14.7528C60.8602 14.0007 60.1962 13.4456 59.4439 13.5126C58.6919 13.5797 58.1366 14.2439 58.2039 14.996C58.2293 15.2811 58.2422 15.5716 58.2422 15.8592V18.5936C58.2422 19.3487 58.8544 19.9608 59.6094 19.9608L54.1406 27.2524L48.6719 19.9609C49.4268 19.9609 50.0391 19.3488 50.0391 18.5938V15.8594C50.0391 11.9982 48.2515 8.5467 45.4602 6.28906H48.6719C49.7652 6.28906 50.8368 6.47158 51.8567 6.83156C52.5693 7.08244 53.3497 6.7092 53.601 5.99717C53.8523 5.28514 53.4788 4.5042 52.7667 4.25291C51.4537 3.78957 50.0761 3.55469 48.6719 3.55469H37.7344C36.9794 3.55469 36.3672 4.16678 36.3672 4.92188C36.3672 5.67697 36.9794 6.28906 37.7344 6.28906Z" fill="#FFA14A"/>
<path d="M57.2852 10.5273C58.0402 10.5273 58.6523 9.91523 58.6523 9.16016C58.6523 8.40508 58.0402 7.79297 57.2852 7.79297C56.5301 7.79297 55.918 8.40508 55.918 9.16016C55.918 9.91523 56.5301 10.5273 57.2852 10.5273Z" fill="#FFA14A"/>
</svg>
