<svg width="70" height="70" viewBox="0 0 70 70" fill="none" xmlns="http://www.w3.org/2000/svg">
<path d="M0.093334 48.5423C0.134168 49.0557 0.506337 49.4815 1.01034 49.59L5.07621 50.4673C5.21971 51.1604 5.40171 51.844 5.62221 52.5114L2.54452 55.2997C2.16302 55.6451 2.05335 56.2004 2.27502 56.6659C2.83736 57.8489 3.46386 58.9421 4.13703 59.9151C4.4287 60.3374 4.96304 60.5194 5.45421 60.3619L9.40574 59.0891C9.87825 59.6188 10.3811 60.1216 10.9108 60.5941L9.63791 64.5456C9.48041 65.0345 9.66124 65.57 10.0847 65.8628C11.0578 66.536 12.1509 67.1625 13.3339 67.7248C13.8006 67.9465 14.3548 67.8357 14.7001 67.4553L17.4885 64.3776C18.157 64.597 18.8406 64.7801 19.5337 64.9236L20.411 68.9895C20.5195 69.4923 20.9453 69.8645 21.4575 69.9065C22.0782 69.9555 22.7 69.9998 23.3335 69.9998C23.967 69.9998 24.5889 69.9555 25.2095 69.9065C25.7229 69.8657 26.1487 69.4935 26.2572 68.9895L27.1345 64.9236C27.8276 64.7801 28.5124 64.5981 29.1797 64.3776L31.9681 67.4553C32.3146 67.8368 32.8699 67.9477 33.3343 67.7248C34.5173 67.1625 35.6104 66.5348 36.5835 65.8628C37.007 65.57 37.1878 65.0345 37.0303 64.5456L35.7575 60.5941C36.2871 60.1216 36.79 59.6188 37.2625 59.0902L41.214 60.3631C41.7028 60.5218 42.2383 60.3398 42.5312 59.9163C43.2043 58.9432 43.8308 57.8501 44.3932 56.6671C44.6149 56.2016 44.5052 55.6462 44.1237 55.3009L41.046 52.5125C41.2653 51.844 41.4485 51.1604 41.592 50.4673L45.6579 49.59C46.1607 49.4815 46.5329 49.0557 46.5749 48.5435C46.6227 47.9217 46.667 47.2998 46.667 46.6663C46.667 46.0328 46.6227 45.411 46.5737 44.7903C46.5329 44.277 46.1607 43.8511 45.6567 43.7426L41.5908 42.8653C41.4473 42.1723 41.2653 41.4874 41.0448 40.8201L44.1225 38.0317C44.504 37.6864 44.6137 37.1311 44.392 36.6656C43.8297 35.4826 43.202 34.3894 42.53 33.4164C42.2372 32.9929 41.7017 32.8109 41.2128 32.9695L37.2613 34.2424C36.7888 33.7127 36.286 33.2099 35.7563 32.7374L37.0291 28.7858C37.1866 28.297 37.0058 27.7615 36.5823 27.4687C35.6093 26.7955 34.5161 26.169 33.3331 25.6066C32.8664 25.3838 32.3123 25.4946 31.9669 25.8761L29.1786 28.9538C28.5101 28.7345 27.8264 28.5513 27.1334 28.4078L26.256 24.342C26.1475 23.8391 25.7217 23.467 25.2095 23.425C23.967 23.3246 22.6988 23.327 21.4563 23.425C20.943 23.4658 20.5172 23.838 20.4087 24.342L19.5313 28.4078C18.8383 28.5513 18.1546 28.7333 17.4873 28.9538L14.6989 25.8761C14.3536 25.4946 13.7994 25.385 13.3328 25.6066C12.1498 26.169 11.0566 26.7955 10.0836 27.4687C9.66008 27.7615 9.47924 28.297 9.63674 28.7858L10.9096 32.7374C10.3799 33.2099 9.87708 33.7127 9.40457 34.2424L5.45421 32.9695C4.96421 32.8109 4.4287 32.9929 4.13703 33.4164C3.46386 34.3894 2.83736 35.4826 2.27502 36.6656C2.05335 37.1311 2.16302 37.6864 2.54452 38.0317L5.62221 40.8201C5.40288 41.4886 5.21971 42.1723 5.07621 42.8653L1.01034 43.7426C0.507504 43.8511 0.135334 44.277 0.093334 44.7891C0.0443336 45.411 0 46.0328 0 46.6663C0 47.2998 0.0443336 47.9217 0.093334 48.5423ZM2.35785 45.8391L6.32688 44.9816C6.79589 44.8801 7.15522 44.5021 7.23222 44.0285C7.40723 42.9528 7.68956 41.8969 8.07106 40.8889C8.2414 40.4409 8.1189 39.9334 7.76306 39.6114L4.76587 36.8954C5.02721 36.3949 5.30021 35.9154 5.58254 35.4616L9.42791 36.7006C9.88291 36.8464 10.3846 36.7006 10.6891 36.3296C11.3774 35.4872 12.1544 34.7114 12.9968 34.0219C13.3678 33.7185 13.5159 33.218 13.3678 32.7607L12.1288 28.9153C12.5826 28.6318 13.0609 28.3588 13.5626 28.0987L16.2786 31.097C16.6018 31.4529 17.1105 31.5754 17.5573 31.405C18.563 31.0235 19.6188 30.7412 20.6957 30.5662C21.1693 30.4892 21.5473 30.1298 21.6488 29.6608L22.5052 25.6918C23.0547 25.6626 23.6135 25.6615 24.1607 25.6918L25.0182 29.6608C25.1197 30.1298 25.4977 30.4892 25.9714 30.5662C27.047 30.7412 28.1029 31.0235 29.1109 31.405C29.5566 31.5754 30.0652 31.454 30.3884 31.097L33.1044 28.0998C33.6049 28.3612 34.0844 28.6342 34.5383 28.9165L33.2993 32.7619C33.1523 33.2192 33.2993 33.7185 33.6703 34.023C34.5126 34.7114 35.2884 35.4884 35.978 36.3307C36.2825 36.7029 36.783 36.8511 37.2391 36.7017L41.0845 35.4627C41.368 35.9166 41.641 36.3949 41.9012 36.8954L38.9028 39.6114C38.547 39.9334 38.4245 40.4409 38.5948 40.8901C38.9763 41.8958 39.2586 42.9516 39.4336 44.0285C39.5106 44.5021 39.87 44.8801 40.339 44.9816L44.308 45.838C44.3232 46.1121 44.3337 46.3886 44.3337 46.6663C44.3337 46.944 44.3244 47.2205 44.3092 47.4935L40.3402 48.351C39.8712 48.4525 39.5118 48.8305 39.4348 49.3042C39.2598 50.3798 38.9775 51.4357 38.596 52.4437C38.4256 52.8917 38.5481 53.3992 38.904 53.7212L41.9012 56.4372C41.6398 56.9377 41.3668 57.4172 41.0845 57.8711L37.2391 56.6321C36.7806 56.4827 36.2825 56.6309 35.978 57.0031C35.2908 57.8431 34.5138 58.6201 33.6703 59.3107C33.2993 59.6141 33.1523 60.1146 33.2993 60.5708L34.5383 64.4161C34.0844 64.6996 33.6061 64.9726 33.1056 65.2328L30.3896 62.2344C30.0676 61.8786 29.5601 61.7584 29.1109 61.9264C28.1052 62.3079 27.0494 62.5903 25.9725 62.7653C25.4989 62.8423 25.1209 63.2016 25.0194 63.6706L24.163 67.6396C23.6135 67.6688 23.0547 67.67 22.5075 67.6396L21.65 63.6706C21.5485 63.2016 21.1705 62.8423 20.6968 62.7653C19.6212 62.5903 18.5653 62.3079 17.5573 61.9264C17.1105 61.7561 16.6018 61.8774 16.2798 62.2344L13.5638 65.2316C13.0633 64.9703 12.5838 64.6973 12.1299 64.415L13.3689 60.5696C13.5159 60.1123 13.3689 59.6129 12.9979 59.3084C12.1556 58.6201 11.3798 57.8431 10.6903 57.0007C10.3857 56.6286 9.88408 56.4816 9.42907 56.6297L5.58371 57.8687C5.30021 57.4149 5.02721 56.9366 4.76704 56.4349L7.7654 53.7189C8.12123 53.3969 8.24373 52.8894 8.0734 52.4402C7.69189 51.4345 7.40956 50.3787 7.23456 49.3018C7.15756 48.8282 6.79822 48.4502 6.32922 48.3487L2.35785 47.4947C2.34385 47.2205 2.33335 46.944 2.33335 46.6663C2.33335 46.3886 2.34269 46.1121 2.35785 45.8391Z" fill="#FFA14A"/>
<path d="M60.9225 16.607C61.3612 16.4694 61.6785 16.0855 61.731 15.6282C61.8011 15.039 61.8337 14.5059 61.8337 13.9995C61.8337 13.4932 61.8011 12.96 61.7322 12.3708C61.6797 11.9135 61.3624 11.5297 60.9237 11.392L57.6885 10.3758C57.5917 10.111 57.4844 9.85083 57.3665 9.59649L58.9345 6.5923C59.1469 6.18513 59.1002 5.69046 58.8155 5.32879C58.14 4.47479 57.363 3.69778 56.5067 3.01994C56.145 2.73411 55.6503 2.6886 55.2432 2.89977L52.2366 4.46779C51.9823 4.35112 51.7221 4.24378 51.4573 4.14695L50.4411 0.911757C50.3035 0.473087 49.9196 0.155751 49.4623 0.103251C48.2816 -0.0344169 47.3844 -0.0344169 46.2038 0.103251C45.7464 0.155751 45.3626 0.473087 45.2249 0.911757L44.2087 4.14695C43.9439 4.24378 43.6837 4.35112 43.4294 4.46895L40.4252 2.90094C40.018 2.68977 39.5245 2.73527 39.1617 3.01994C38.3077 3.69545 37.5307 4.47245 36.8529 5.32879C36.567 5.69046 36.5204 6.18397 36.7327 6.5923L38.2995 9.59649C38.1829 9.85083 38.0755 10.111 37.9787 10.3758L34.7435 11.392C34.3048 11.5297 33.9875 11.9135 33.935 12.3708C33.8662 12.96 33.8335 13.4932 33.8335 13.9995C33.8335 14.5059 33.8662 15.039 33.935 15.6282C33.9875 16.0855 34.3048 16.4694 34.7435 16.607L37.9787 17.6232C38.0755 17.8881 38.1829 18.1482 38.3007 18.4026L36.7327 21.4068C36.5204 21.8139 36.567 22.3086 36.8517 22.6703C37.5272 23.5243 38.3042 24.3013 39.1605 24.9791C39.521 25.2649 40.0169 25.3105 40.424 25.0993L43.4282 23.5324C43.6826 23.6491 43.9427 23.7564 44.2076 23.8533L45.2238 27.0885C45.3614 27.5271 45.7453 27.8445 46.2026 27.897C46.7941 27.967 47.3273 27.9996 47.8336 27.9996C48.3399 27.9996 48.8731 27.967 49.4623 27.8981C49.9196 27.8456 50.3035 27.5283 50.4411 27.0896L51.4573 23.8544C51.7221 23.7576 51.9823 23.6503 52.2366 23.5324L55.2408 25.1004C55.648 25.3128 56.1427 25.2673 56.5043 24.9814C57.3583 24.3059 58.1354 23.5289 58.8132 22.6726C59.099 22.3109 59.1457 21.8174 58.9334 21.4091L57.3653 18.4049C57.4832 18.1506 57.5905 17.8904 57.6874 17.6256L60.9225 16.607ZM56.4192 15.5757C56.0505 15.6924 55.7635 15.9829 55.6515 16.3539C55.4928 16.8812 55.2828 17.3887 55.0285 17.8636C54.8453 18.2042 54.8418 18.6137 55.0215 18.9556L56.502 21.7929C56.2255 22.0998 55.9327 22.3926 55.627 22.6679L52.7896 21.1874C52.4466 21.0077 52.0371 21.0124 51.6976 21.1944C51.2228 21.4488 50.7153 21.6588 50.188 21.8174C49.8181 21.9283 49.5265 22.2164 49.4098 22.5851L48.4484 25.6465C48.0226 25.6721 47.6458 25.6721 47.2188 25.6465L46.2574 22.5851C46.1408 22.2164 45.8503 21.9294 45.4793 21.8174C44.9507 21.6588 44.4432 21.4488 43.9707 21.1944C43.6301 21.0112 43.2206 21.0077 42.8776 21.1874L40.0402 22.6679C39.7334 22.3914 39.4405 22.0986 39.1652 21.7929L40.6457 18.9556C40.8242 18.6137 40.8219 18.2031 40.6387 17.8636C40.3844 17.3887 40.1744 16.8812 40.0157 16.3539C39.9049 15.984 39.6167 15.6924 39.248 15.5757L36.1867 14.6144C36.1727 14.4009 36.1668 14.1967 36.1668 13.9995C36.1668 13.8024 36.1727 13.5982 36.1867 13.3847L39.248 12.4233C39.6167 12.3067 39.9037 12.0162 40.0157 11.6452C40.1744 11.1167 40.3844 10.6092 40.6387 10.1367C40.8219 9.79599 40.8254 9.38649 40.6457 9.04349L39.1652 6.20613C39.4417 5.8993 39.7345 5.60646 40.0402 5.33113L42.8776 6.81164C43.2194 6.99014 43.6301 6.98664 43.9696 6.80464C44.4444 6.5503 44.9519 6.3403 45.4793 6.18163C45.8491 6.0708 46.1408 5.78263 46.2574 5.41396L47.2188 2.3526C47.6446 2.32694 48.0214 2.32694 48.4484 2.3526L49.4098 5.41396C49.5265 5.78263 49.817 6.06963 50.188 6.18163C50.7165 6.3403 51.224 6.5503 51.6965 6.80464C52.0371 6.98781 52.4466 6.99131 52.7896 6.81164L55.627 5.33113C55.9338 5.60763 56.2267 5.90046 56.502 6.20613L55.0215 9.04349C54.843 9.38532 54.8453 9.79599 55.0285 10.1355C55.2828 10.6103 55.4928 11.1178 55.6515 11.6452C55.7623 12.015 56.0505 12.3067 56.4192 12.4233L59.4805 13.3847C59.4945 13.5982 59.5004 13.8024 59.5004 13.9995C59.5004 14.1967 59.4945 14.4009 59.4805 14.6144L56.4192 15.5757Z" fill="#FFA14A"/>
<path d="M69.1395 38.4575L67.1352 37.7459C67.0208 37.4204 66.8902 37.1018 66.742 36.7927L67.6532 34.8735C67.8433 34.4745 67.7908 34.0032 67.5178 33.6555C66.9345 32.91 66.2601 32.2345 65.5123 31.6488C65.1635 31.3758 64.6898 31.3245 64.2931 31.5135L62.3728 32.4246C62.0648 32.2776 61.7463 32.1458 61.4208 32.0326L60.7079 30.0283C60.5598 29.6118 60.1876 29.3143 59.7489 29.2606C58.7094 29.1358 57.9569 29.1358 56.9174 29.2606C56.4787 29.3131 56.1066 29.6106 55.9584 30.0283L55.2467 32.0326C54.9212 32.147 54.6027 32.2776 54.2936 32.4258L52.3744 31.5146C51.9777 31.3256 51.5052 31.3781 51.1564 31.65C50.4109 32.2333 49.7353 32.9076 49.1497 33.6555C48.8778 34.0032 48.8253 34.4757 49.0143 34.8747L49.9255 36.795C49.7785 37.103 49.6467 37.4215 49.5335 37.747L47.5292 38.4599C47.1127 38.608 46.8152 38.9802 46.7615 39.4189C46.6973 39.9357 46.667 40.3989 46.667 40.8329C46.667 41.2669 46.6973 41.7289 46.7603 42.2481C46.8128 42.6867 47.1103 43.0589 47.528 43.2071L49.5323 43.9187C49.6467 44.2442 49.7773 44.5627 49.9255 44.8719L49.0143 46.7911C48.8242 47.1901 48.8767 47.6614 49.1497 48.0091C49.733 48.7546 50.4074 49.4301 51.1552 50.0158C51.5029 50.2876 51.9765 50.3401 52.3744 50.1511L54.2947 49.2399C54.6027 49.3869 54.9212 49.5188 55.2467 49.6319L55.9596 51.6363C56.1077 52.0528 56.4799 52.3503 56.9186 52.404C57.4377 52.4693 57.8997 52.4996 58.3338 52.4996C58.7678 52.4996 59.2298 52.4693 59.7489 52.4063C60.1876 52.3538 60.5598 52.0563 60.7079 51.6386L61.4196 49.6343C61.7451 49.5199 62.0636 49.3893 62.3728 49.2411L64.292 50.1523C64.6898 50.3425 65.1635 50.2911 65.51 50.017C66.2555 49.4336 66.931 48.7593 67.5167 48.0114C67.7885 47.6638 67.841 47.1913 67.652 46.7923L66.7408 44.8719C66.8878 44.5639 67.0197 44.2454 67.1328 43.9199L69.1372 43.2071C69.5537 43.0589 69.8512 42.6867 69.9048 42.2481C69.9702 41.7289 70.0005 41.2669 70.0005 40.8329C70.0005 40.3989 69.9702 39.9369 69.9072 39.4177C69.8547 38.9779 69.5572 38.6069 69.1395 38.4575ZM67.6555 41.2587L65.8063 41.9156C65.4481 42.0427 65.174 42.3367 65.0725 42.7031C64.9196 43.2572 64.7015 43.7857 64.425 44.2746C64.2383 44.6047 64.2243 45.0061 64.3865 45.3491L65.2241 47.1143C65.0305 47.3266 64.8275 47.5296 64.6163 47.7221L62.8511 46.8844C62.5105 46.7223 62.1079 46.7363 61.7766 46.9229C61.2866 47.2006 60.7581 47.4176 60.2063 47.5704C59.8399 47.6719 59.5459 47.9461 59.4176 48.3043L58.7608 50.1534C58.4784 50.1686 58.1914 50.1686 57.9091 50.1534L57.2522 48.3043C57.1251 47.9461 56.8311 47.6719 56.4647 47.5704C55.9106 47.4176 55.3821 47.1994 54.8932 46.9229C54.5631 46.7374 54.1629 46.7234 53.8187 46.8844L52.0535 47.7221C51.8412 47.5284 51.6382 47.3254 51.4457 47.1143L52.2834 45.3491C52.4467 45.0061 52.4315 44.6047 52.2449 44.2746C51.9672 43.7846 51.7502 43.2561 51.5974 42.7042C51.4959 42.3379 51.2217 42.0439 50.8635 41.9156L49.0143 41.2587C49.005 41.1175 49.0003 40.9764 49.0003 40.8329C49.0003 40.6894 49.005 40.547 49.012 40.407L50.8612 39.749C51.2194 39.6219 51.4935 39.3279 51.5939 38.9615C51.7479 38.4062 51.966 37.8789 52.2425 37.39C52.4292 37.0598 52.4432 36.6585 52.281 36.3155L51.4434 34.5503C51.637 34.338 51.84 34.135 52.0512 33.9425L53.8164 34.7802C54.1594 34.9435 54.5607 34.9295 54.8909 34.7417C55.3809 34.464 55.9094 34.247 56.4612 34.0942C56.8276 33.9927 57.1216 33.7185 57.2499 33.3603L57.9067 31.5111C58.1891 31.496 58.4761 31.496 58.7584 31.5111L59.4153 33.3603C59.5424 33.7185 59.8364 33.9927 60.2028 34.0942C60.7569 34.247 61.2854 34.4652 61.7743 34.7417C62.1056 34.9295 62.5058 34.9435 62.8488 34.7802L64.614 33.9425C64.8263 34.1362 65.0293 34.3392 65.2218 34.5503L64.3841 36.3155C64.2208 36.6585 64.236 37.0598 64.4226 37.39C64.7003 37.88 64.9173 38.4085 65.0701 38.9604C65.1716 39.3267 65.4458 39.6207 65.804 39.749L67.6532 40.4059C67.6625 40.5482 67.6672 40.6894 67.6672 40.8329C67.6672 40.9764 67.6625 41.1175 67.6555 41.2587Z" fill="#FFA14A"/>
<path d="M23.3334 59.4999C30.4093 59.4999 36.1669 53.7423 36.1669 46.6664C36.1669 39.5906 30.4093 33.833 23.3334 33.833C16.2575 33.833 10.5 39.5906 10.5 46.6664C10.5 53.7423 16.2575 59.4999 23.3334 59.4999ZM23.3334 36.1664C29.1225 36.1664 33.8335 40.8774 33.8335 46.6664C33.8335 52.4555 29.1225 57.1665 23.3334 57.1665C17.5444 57.1665 12.8334 52.4555 12.8334 46.6664C12.8334 40.8774 17.5444 36.1664 23.3334 36.1664Z" fill="#FFA14A"/>
<path d="M0.0258789 27.2519L1.81789 28.7464C7.1601 22.3402 15.0013 18.6663 23.3337 18.6663C23.9276 18.6663 24.5202 18.7002 25.1129 18.7375L23.6756 20.1749L25.3252 21.8245L28.8253 18.3245C29.2814 17.8683 29.2814 17.131 28.8253 16.6748L25.3252 13.1748L23.6756 14.8245L25.2611 16.41C24.6194 16.3692 23.9766 16.333 23.3337 16.333C14.3083 16.333 5.81259 20.3125 0.0258789 27.2519Z" fill="#FFA14A"/>
<path d="M47.8339 8.16602C44.6173 8.16602 42.0005 10.7829 42.0005 13.9994C42.0005 17.2159 44.6173 19.8328 47.8339 19.8328C51.0504 19.8328 53.6672 17.2159 53.6672 13.9994C53.6672 10.7829 51.0504 8.16602 47.8339 8.16602ZM47.8339 17.4994C45.9042 17.4994 44.3338 15.9291 44.3338 13.9994C44.3338 12.0697 45.9042 10.4994 47.8339 10.4994C49.7635 10.4994 51.3339 12.0697 51.3339 13.9994C51.3339 15.9291 49.7635 17.4994 47.8339 17.4994Z" fill="#FFA14A"/>
<path d="M58.3337 36.166C55.76 36.166 53.667 38.259 53.667 40.8327C53.667 43.4064 55.76 45.4994 58.3337 45.4994C60.9074 45.4994 63.0004 43.4064 63.0004 40.8327C63.0004 38.259 60.9074 36.166 58.3337 36.166ZM58.3337 43.1661C57.0469 43.1661 56.0003 42.1196 56.0003 40.8327C56.0003 39.5459 57.0469 38.4994 58.3337 38.4994C59.6205 38.4994 60.667 39.5459 60.667 40.8327C60.667 42.1196 59.6205 43.1661 58.3337 43.1661Z" fill="#FFA14A"/>
<path d="M69.0627 3.52312L63.2293 2.35644C62.5946 2.22811 61.9821 2.63995 61.8561 3.27112L60.6895 9.1045L62.9773 9.563L63.6061 6.42231C64.7367 8.77433 65.334 11.3667 65.334 13.9999C65.334 18.0226 64.0063 21.8049 61.4956 24.9375L63.3168 26.397C66.1227 22.8958 67.6673 18.4939 67.6673 13.9999C67.6673 10.9443 66.9615 7.93199 65.6187 5.21363L68.6053 5.81097L69.0627 3.52312Z" fill="#FFA14A"/>
</svg>
