<svg width="586" height="162" viewBox="0 0 586 162" fill="none" xmlns="http://www.w3.org/2000/svg">
<rect opacity="0.8" width="30" height="30" transform="matrix(-1 0 0 1 445 45)" fill="white"/>
<rect opacity="0.8" width="30" height="30" transform="matrix(-1 0 0 1 597 0)" fill="white"/>
<rect opacity="0.8" width="30" height="30" transform="matrix(-1 0 0 1 358 102)" fill="white"/>
<rect opacity="0.8" width="18" height="18" transform="matrix(-1 0 0 1 549 66)" fill="white"/>
<rect opacity="0.2" width="30" height="30" transform="matrix(-1 0 0 1 494 30)" fill="white"/>
<rect opacity="0.2" width="18" height="18" transform="matrix(-1 0 0 1 429 102)" fill="white"/>
<rect opacity="0.2" width="30" height="30" transform="matrix(-1 0 0 1 209 102)" fill="white"/>
<rect opacity="0.2" width="30" height="30" transform="matrix(-1 0 0 1 142 132)" fill="white"/>
<rect opacity="0.2" width="18" height="18" transform="matrix(-1 0 0 1 60 96)" fill="white"/>
<rect opacity="0.1" width="10" height="10" transform="matrix(-1 0 0 1 10 127)" fill="white"/>
<rect opacity="0.5" width="30" height="30" transform="matrix(-1 0 0 1 400 15)" fill="white"/>
<rect opacity="0.5" width="30" height="30" transform="matrix(-1 0 0 1 277 124)" fill="white"/>
<rect opacity="0.5" width="18" height="18" transform="matrix(-1 0 0 1 352 58)" fill="white"/>
<rect opacity="0.5" width="18" height="18" transform="matrix(-1 0 0 1 521 123)" fill="white"/>
<rect opacity="0.2" width="30" height="30" transform="matrix(-1 0 0 1 607 108)" fill="white"/>
</svg>
