<svg width="220" height="63" viewBox="0 0 220 63" fill="none" xmlns="http://www.w3.org/2000/svg">
<rect opacity="0.8" width="11.5242" height="11.5341" transform="matrix(-1 0 0 1 171.77 17.8334)" fill="white"/>
<rect opacity="0.8" width="11.5242" height="11.5341" transform="matrix(-1 0 0 1 230.158 0.532227)" fill="white"/>
<rect opacity="0.8" width="11.5242" height="11.5341" transform="matrix(-1 0 0 1 138.349 39.7481)" fill="white"/>
<rect opacity="0.8" width="6.91452" height="6.92045" transform="matrix(-1 0 0 1 211.72 25.9073)" fill="white"/>
<rect opacity="0.2" width="11.5242" height="11.5341" transform="matrix(-1 0 0 1 190.592 12.0663)" fill="white"/>
<rect opacity="0.2" width="6.91452" height="6.92045" transform="matrix(-1 0 0 1 165.623 39.7481)" fill="white"/>
<rect opacity="0.2" width="11.5242" height="11.5341" transform="matrix(-1 0 0 1 81.1123 39.7481)" fill="white"/>
<rect opacity="0.2" width="11.5242" height="11.5341" transform="matrix(-1 0 0 1 55.3748 51.2822)" fill="white"/>
<rect opacity="0.2" width="6.91452" height="6.92045" transform="matrix(-1 0 0 1 23.8752 37.4413)" fill="white"/>
<rect opacity="0.1" width="3.8414" height="3.8447" transform="matrix(-1 0 0 1 4.6687 49.3598)" fill="white"/>
<rect opacity="0.5" width="11.5242" height="11.5341" transform="matrix(-1 0 0 1 154.483 6.29926)" fill="white"/>
<rect opacity="0.5" width="11.5242" height="11.5341" transform="matrix(-1 0 0 1 107.234 48.2065)" fill="white"/>
<rect opacity="0.5" width="6.91452" height="6.92045" transform="matrix(-1 0 0 1 136.044 22.8315)" fill="white"/>
<rect opacity="0.5" width="6.91452" height="6.92045" transform="matrix(-1 0 0 1 200.964 47.822)" fill="white"/>
</svg>
