<svg width="15" height="16" viewBox="0 0 15 16" fill="none" xmlns="http://www.w3.org/2000/svg">
<path d="M13.4955 2.23438H10.5433V1.10938C10.5433 1.03203 10.4801 0.96875 10.4028 0.96875H9.41871C9.34139 0.96875 9.27813 1.03203 9.27813 1.10938V2.23438H4.77964V1.10938C4.77964 1.03203 4.71638 0.96875 4.63907 0.96875H3.65502C3.5777 0.96875 3.51444 1.03203 3.51444 1.10938V2.23438H0.562311C0.251283 2.23438 0 2.48574 0 2.79688V14.4688C0 14.7799 0.251283 15.0312 0.562311 15.0312H13.4955C13.8065 15.0312 14.0578 14.7799 14.0578 14.4688V2.79688C14.0578 2.48574 13.8065 2.23438 13.4955 2.23438ZM12.7926 13.7656H1.2652V7.08594H12.7926V13.7656ZM1.2652 5.89062V3.5H3.51444V4.34375C3.51444 4.42109 3.5777 4.48438 3.65502 4.48438H4.63907C4.71638 4.48438 4.77964 4.42109 4.77964 4.34375V3.5H9.27813V4.34375C9.27813 4.42109 9.34139 4.48438 9.41871 4.48438H10.4028C10.4801 4.48438 10.5433 4.42109 10.5433 4.34375V3.5H12.7926V5.89062H1.2652Z" fill="#9DCCFF"/>
</svg>
