<svg width="30" height="30" viewBox="0 0 30 30" fill="none" xmlns="http://www.w3.org/2000/svg">
<path d="M15 3C8.384 3 3 8.384 3 15C3 21.616 8.384 27 15 27C21.616 27 27 21.616 27 15C27 8.384 21.616 3 15 3ZM15 5C20.535 5 25 9.465 25 15C25.0024 17.394 24.144 19.709 22.5813 21.5226C21.0187 23.3362 18.856 24.5275 16.488 24.879V17.916H19.336L19.783 15.023H16.488V13.443C16.488 12.243 16.883 11.176 18.006 11.176H19.811V8.652C19.494 8.609 18.823 8.516 17.555 8.516C14.907 8.516 13.355 9.914 13.355 13.1V15.023H10.633V17.916H13.355V24.854C11.0198 24.4696 8.89724 23.2675 7.36669 21.4623C5.83615 19.6572 4.99729 17.3667 5 15C5 9.465 9.465 5 15 5Z"/>
</svg>
