<svg width="37" height="36" viewBox="0 0 37 36" fill="none" xmlns="http://www.w3.org/2000/svg">
<path d="M17.25 0H3C2.5875 0 2.25 0.3375 2.25 0.75V15C2.25 15.4125 2.5875 15.75 3 15.75H17.25C17.6625 15.75 18 15.4125 18 15V0.75C18 0.3375 17.6625 0 17.25 0ZM14.8125 12.5625H5.4375V3.1875H14.8125V12.5625ZM36 0H21.75C21.3375 0 21 0.3375 21 0.75V15C21 15.4125 21.3375 15.75 21.75 15.75H36C36.4125 15.75 36.75 15.4125 36.75 15V0.75C36.75 0.3375 36.4125 0 36 0ZM33.5625 12.5625H24.1875V3.1875H33.5625V12.5625ZM36 18.75H21.75C21.3375 18.75 21 19.0875 21 19.5V33.75C21 34.1625 21.3375 34.5 21.75 34.5H36C36.4125 34.5 36.75 34.1625 36.75 33.75V19.5C36.75 19.0875 36.4125 18.75 36 18.75ZM33.5625 31.3125H24.1875V21.9375H33.5625V31.3125ZM15.375 26.625H9.375V20.625C9.375 20.4188 9.20625 20.25 9 20.25H6.75C6.54375 20.25 6.375 20.4188 6.375 20.625V26.625H0.375C0.16875 26.625 0 26.7938 0 27V29.25C0 29.4562 0.16875 29.625 0.375 29.625H6.375V35.625C6.375 35.8312 6.54375 36 6.75 36H9C9.20625 36 9.375 35.8312 9.375 35.625V29.625H15.375C15.5813 29.625 15.75 29.4562 15.75 29.25V27C15.75 26.7938 15.5813 26.625 15.375 26.625Z"/>
</svg>
