<svg width="17" height="14" viewBox="0 0 17 14" fill="none" xmlns="http://www.w3.org/2000/svg">
<path d="M8.02331 5.45286C9.52907 5.45286 10.7497 4.2322 10.7497 2.72643C10.7497 1.22066 9.52907 0 8.02331 0C6.51754 0 5.29688 1.22066 5.29688 2.72643C5.29688 4.2322 6.51754 5.45286 8.02331 5.45286Z"/>
<path d="M13.5361 5.45234C14.488 5.45234 15.2597 4.68065 15.2597 3.72873C15.2597 2.77681 14.488 2.00513 13.5361 2.00513C12.5842 2.00513 11.8125 2.77681 11.8125 3.72873C11.8125 4.68065 12.5842 5.45234 13.5361 5.45234Z"/>
<path d="M2.50876 5.45234C3.46068 5.45234 4.23237 4.68065 4.23237 3.72873C4.23237 2.77681 3.46068 2.00513 2.50876 2.00513C1.55684 2.00513 0.785156 2.77681 0.785156 3.72873C0.785156 4.68065 1.55684 5.45234 2.50876 5.45234Z"/>
<path d="M4.20528 7.00066C3.52681 6.44478 2.91236 6.51836 2.12787 6.51836C0.954564 6.51836 0 7.46728 0 8.63338V12.0558C0 12.5623 0.413352 12.974 0.921659 12.974C3.11615 12.974 2.85178 13.0138 2.85178 12.8794C2.85178 10.4543 2.56454 8.67578 4.20528 7.00066Z"/>
<path d="M8.76801 6.53014C7.39778 6.41585 6.20677 6.53146 5.17947 7.37941C3.46034 8.75641 3.79118 10.6105 3.79118 12.8787C3.79118 13.4787 4.27943 13.9761 4.88865 13.9761C11.5036 13.9761 11.7669 14.1895 12.1591 13.3208C12.2878 13.0271 12.2525 13.1204 12.2525 10.3102C12.2525 8.07807 10.3198 6.53014 8.76801 6.53014Z"/>
<path d="M13.9173 6.51828C13.1285 6.51828 12.5174 6.44545 11.8398 7.00058C13.4683 8.66326 13.1933 10.3204 13.1933 12.8793C13.1933 13.0145 12.9739 12.974 15.0906 12.974C15.617 12.974 16.0451 12.5475 16.0451 12.0232V8.6333C16.0451 7.46721 15.0906 6.51828 13.9173 6.51828Z"/>
</svg>
