<svg width="15" height="16" viewBox="0 0 15 16" fill="none" xmlns="http://www.w3.org/2000/svg">
<path d="M9.41399 7.86722C9.41399 8.9265 8.55705 9.78521 7.49996 9.78521C6.44287 9.78521 5.58594 8.9265 5.58594 7.86722C5.58594 6.80793 6.44287 5.94922 7.49996 5.94922C8.55705 5.94922 9.41399 6.80793 9.41399 7.86722Z"/>
<path d="M14.4577 1.36647C14.1078 1.01613 13.6428 0.823242 13.1485 0.823242H1.85154C1.35715 0.823242 0.892181 1.01613 0.542107 1.3667C0.19249 1.71739 0 2.18321 0 2.67863V4.56543C0 5.06084 0.19249 5.52667 0.542336 5.87758C0.892296 6.22793 1.35715 6.4207 1.85154 6.4207H1.94538V3.18161C1.94538 2.93849 2.14211 2.74124 2.38483 2.74124H12.6153C12.8579 2.74124 13.0547 2.93849 13.0547 3.18161V6.4207H13.1485C13.6428 6.4207 14.1077 6.22781 14.4579 5.87724C14.8075 5.52667 15 5.06073 15 4.56543V2.67863C15 2.18321 14.8075 1.71739 14.4577 1.36647Z"/>
<path d="M2.82422 14.4708C2.82422 14.8406 2.96796 15.1881 3.22854 15.4489C3.48923 15.7104 3.83599 15.8545 4.20506 15.8545H10.795C11.1641 15.8545 11.5109 15.7104 11.7711 15.4493C12.032 15.1881 12.1758 14.8406 12.1758 14.4708V3.62207H2.82422V14.4708ZM7.50005 5.06851C9.04008 5.06851 10.293 6.32401 10.293 7.86724C10.293 9.41047 9.04008 10.666 7.50005 10.666C5.96001 10.666 4.70712 9.41047 4.70712 7.86724C4.70712 6.32401 5.96001 5.06851 7.50005 5.06851ZM5.14657 12.6154H9.85352C10.0963 12.6154 10.293 12.8125 10.293 13.0558C10.293 13.2989 10.0963 13.4961 9.85352 13.4961H5.14657C4.90384 13.4961 4.70712 13.2989 4.70712 13.0558C4.70712 12.8125 4.90384 12.6154 5.14657 12.6154Z"/>
</svg>
