<svg width="25" height="25" fill="none" xmlns="http://www.w3.org/2000/svg"><path d="M3.906 11.35l6.535 4.956 1.825-1.384a.39.39 0 01.472 0l1.822 1.383 6.534-4.956V3.906H3.906v7.443zM12.5 5.86a3.52 3.52 0 013.516 3.515v.781a1.17 1.17 0 01-2.162.621 1.95 1.95 0 11.6-1.402v.781a.391.391 0 00.78 0v-.781a2.734 2.734 0 10-2.734 2.734h1.172a.39.39 0 110 .782H12.5a3.516 3.516 0 010-7.032z"/><path d="M12.5 10.547a1.172 1.172 0 100-2.344 1.172 1.172 0 000 2.344zM1.818 9.766l1.307.99V8.776l-1.307.99zM1.563 23.041l8.232-6.244-8.232-6.245v12.49zM21.875 10.757l1.307-.991-1.307-.991v1.982zM23.438 10.552l-8.232 6.245 8.232 6.244V10.552zM12.5 15.725L2.333 23.438h20.334L12.5 15.724zM10.572 3.125h3.857L12.5 1.662l-1.928 1.463z"/></svg>