<svg width="38" height="38" viewBox="0 0 38 38" fill="none" xmlns="http://www.w3.org/2000/svg">
<g clip-path="url(#clip0)">
<path d="M25.3087 27.3282C25.9225 27.3282 26.4219 26.8288 26.4219 26.2149V22.8594H24.1953V26.2149C24.1953 26.8288 24.6948 27.3282 25.3087 27.3282Z"/>
<path d="M19.7422 7.79297V0H1.11328C0.498453 0 0 0.498453 0 1.11328V36.8867C0 37.5015 0.498453 38 1.11328 38H27.5352C28.15 38 28.6484 37.5015 28.6484 36.8867V26.2149C28.4644 30.6469 22.151 30.6434 21.9687 26.2149V22.5954C17.5217 20.8903 18.6316 14.3379 23.4531 14.25H28.6484V8.90625H20.8555C20.2406 8.90625 19.7422 8.4078 19.7422 7.79297ZM16.402 33.3984H5.56641C4.0893 33.3396 4.09042 31.2301 5.56641 31.1719H16.402C17.8791 31.2307 17.878 33.3402 16.402 33.3984ZM4.45312 27.832C4.45312 27.2172 4.95158 26.7188 5.56641 26.7188H12.3945C13.8716 26.7776 13.8705 28.8871 12.3945 28.9453H5.56641C4.95158 28.9453 4.45312 28.4469 4.45312 27.832ZM16.402 24.4922H5.56641C4.0893 24.4333 4.09042 22.3239 5.56641 22.2656H16.402C17.8791 22.3245 17.878 24.4339 16.402 24.4922ZM4.45312 18.9258C4.45312 18.311 4.95158 17.8125 5.56641 17.8125H12.3945C13.8716 17.8714 13.8705 19.9808 12.3945 20.0391H5.56641C4.95158 20.0391 4.45312 19.5407 4.45312 18.9258ZM16.402 15.586H5.56641C4.0893 15.5272 4.09042 13.4177 5.56641 13.3594H16.402C17.8791 13.4183 17.878 15.5278 16.402 15.586ZM4.45312 10.0195C4.45312 9.4047 4.95158 8.90625 5.56641 8.90625H12.3945C13.8716 8.96511 13.8705 11.0746 12.3945 11.1328H5.56641C4.95158 11.1328 4.45312 10.6344 4.45312 10.0195ZM16.402 6.67969H5.56641C4.0893 6.62083 4.09042 4.51139 5.56641 4.45312H16.402C17.8791 4.51198 17.878 6.62143 16.402 6.67969Z"/>
<path d="M28.1409 7.13999C26.0207 5.02231 23.0637 2.0612 21 0V7.14103L28.1409 7.13999Z"/>
<path d="M28.5538 16.4766H23.4532C20.6956 16.591 20.6976 20.5194 23.4532 20.6328H28.5538V16.4766Z"/>
<path d="M36.8863 9.54346C36.2714 9.54346 35.773 10.0419 35.773 10.6567V10.7002L30.8809 12.7839V24.3277L35.773 26.4108V26.4541C35.8318 27.9312 37.9413 27.9301 37.9995 26.4541V10.6567C37.9995 10.0419 37.5011 9.54346 36.8863 9.54346Z"/>
</g>
<defs>
<clipPath id="clip0">
<rect width="38" height="38" fill="none"/>
</clipPath>
</defs>
</svg>
