<svg width="15" height="15" viewBox="0 0 15 15" fill="none" xmlns="http://www.w3.org/2000/svg">
<path d="M13.1566 4.15343C13.1558 4.14972 13.1548 4.14609 13.1539 4.14246C12.9889 3.50532 12.4149 3.06044 11.7581 3.06044H10.3534V2.25265H12.3829C12.6102 2.25265 12.7944 2.06807 12.7944 1.84027V0.545201C12.7944 0.317397 12.6102 0.132812 12.3829 0.132812H7.5007C7.27337 0.132812 7.08917 0.317397 7.08917 0.545201V1.84027C7.08917 2.06807 7.27337 2.25265 7.5007 2.25265H9.53022V3.06044H3.24198C2.58526 3.06044 2.01117 3.50541 1.84606 4.14238C1.84515 4.14609 1.84425 4.14972 1.84343 4.15343L0.439683 10.256C0.478614 10.2527 0.51771 10.2499 0.557464 10.2499H14.4426C14.4824 10.2499 14.5215 10.2526 14.5605 10.256L13.1566 4.15343ZM11.8834 6.06032C11.8834 6.28812 11.6992 6.47271 11.4718 6.47271H3.52816C3.30083 6.47271 3.11663 6.28812 3.11663 6.06032V5.09904C3.11663 4.87124 3.30083 4.68665 3.52816 4.68665H11.4718C11.6992 4.68665 11.8834 4.87124 11.8834 5.09904V6.06032ZM14.4426 11.0747H0.557382C0.250048 11.0747 0 11.3253 0 11.6333V13.8526C0 14.1606 0.250048 14.4112 0.557382 14.4112H14.4425C14.7499 14.4112 14.9999 14.1606 14.9999 13.8526V11.6333C15 11.3253 14.75 11.0747 14.4426 11.0747ZM8.75588 12.8103C8.75588 13.23 8.41505 13.5715 7.99619 13.5715H7.06365C6.64479 13.5715 6.30404 13.2299 6.30404 12.8103V12.6757C6.30404 12.256 6.64487 11.9145 7.06365 11.9145H7.9961C8.41505 11.9145 8.7558 12.256 8.7558 12.6757V12.8103H8.75588Z"/>
</svg>
