<svg width="24" height="20" viewBox="0 0 24 20" fill="none" xmlns="http://www.w3.org/2000/svg">
<path d="M4.73629 20C3.91533 20 3.19963 19.5264 2.8523 18.8422L0.105251 8.88551L0 8.42241C0 8.14327 0.110889 7.87556 0.308272 7.67817C0.505656 7.48079 0.773366 7.3699 1.05251 7.3699H5.873L10.7145 0.454921C10.8116 0.313753 10.9417 0.198488 11.0935 0.119192C11.2454 0.0398964 11.4143 -0.00101891 11.5856 1.92752e-05C11.7569 0.00105746 11.9254 0.0440175 12.0763 0.125148C12.2271 0.206278 12.3559 0.323112 12.4512 0.465446L17.2822 7.3699H22.1027C22.3818 7.3699 22.6495 7.48079 22.8469 7.67817C23.0443 7.87556 23.1552 8.14327 23.1552 8.42241L23.1131 8.72764L20.3029 18.8422C19.9556 19.5264 19.2399 20 18.4189 20H4.73629ZM11.5776 2.88621L8.42007 7.3699H14.7351L11.5776 2.88621ZM11.5776 11.5799C11.0193 11.5799 10.4839 11.8017 10.0891 12.1965C9.69435 12.5912 9.47257 13.1267 9.47257 13.6849C9.47257 14.2432 9.69435 14.7787 10.0891 15.1734C10.4839 15.5682 11.0193 15.79 11.5776 15.79C12.1359 15.79 12.6713 15.5682 13.0661 15.1734C13.4608 14.7787 13.6826 14.2432 13.6826 13.6849C13.6826 13.1267 13.4608 12.5912 13.0661 12.1965C12.6713 11.8017 12.1359 11.5799 11.5776 11.5799Z"/>
</svg>
