<svg width="38" height="38" viewBox="0 0 38 38" fill="none" xmlns="http://www.w3.org/2000/svg">
<path d="M3.33984 11.1328C2.72551 11.1328 2.22656 10.6339 2.22656 10.0195H0C0 11.4691 0.933533 12.6931 2.22656 13.1544V15.5859H4.45312V13.1544C5.74615 12.6931 6.67969 11.4691 6.67969 10.0195C6.67969 8.17798 5.1814 6.67969 3.33984 6.67969C2.72551 6.67969 2.22656 6.18074 2.22656 5.56641C2.22656 4.95207 2.72551 4.45312 3.33984 4.45312C3.95418 4.45312 4.45312 4.95207 4.45312 5.56641H6.67969C6.67969 4.11682 5.74615 2.89279 4.45312 2.43153V0H2.22656V2.43153C0.933533 2.89279 0 4.11682 0 5.56641C0 7.40796 1.49829 8.90625 3.33984 8.90625C3.95418 8.90625 4.45312 9.4052 4.45312 10.0195C4.45312 10.6339 3.95418 11.1328 3.33984 11.1328Z"/>
<path d="M29.0941 2.22656H34.3033L19.06 15.1847L14.6156 10.7403L0.400391 22.5234L1.82678 24.2345L14.4788 13.7519L18.9406 18.2137L35.7737 3.89938V8.90625H38.0003V0H29.0941V2.22656Z"/>
<path d="M0 28.9453H11.207V32.2852H0V28.9453Z"/>
<path d="M0 34.5117H11.207V38H0V34.5117Z"/>
<path d="M13.4336 23.3789H24.6406V26.7188H13.4336V23.3789Z"/>
<path d="M13.4336 34.5117H24.6406V38H13.4336V34.5117Z"/>
<path d="M13.4336 28.9453H24.6406V32.2852H13.4336V28.9453Z"/>
<path d="M26.8672 23.3789H38V26.7188H26.8672V23.3789Z"/>
<path d="M26.8672 12.2461H38V15.5859H26.8672V12.2461Z"/>
<path d="M26.8672 17.8125H38V21.1523H26.8672V17.8125Z"/>
<path d="M26.8672 28.9453H38V32.2852H26.8672V28.9453Z"/>
<path d="M26.8672 34.5117H38V38H26.8672V34.5117Z"/>
</svg>
