<svg width="15" height="16" viewBox="0 0 15 16" fill="none" xmlns="http://www.w3.org/2000/svg">
<path d="M11.8652 9.75586C10.1692 9.75586 8.78906 11.1389 8.78906 12.8384C8.78906 14.538 10.1692 15.921 11.8652 15.921C13.5613 15.921 15 14.538 15 12.8384C15 11.1389 13.5613 9.75586 11.8652 9.75586ZM12.7441 13.2788H11.8652C11.6223 13.2788 11.4258 13.0818 11.4258 12.8384V11.9577C11.4258 11.7143 11.6223 11.5173 11.8652 11.5173C12.1081 11.5173 12.3047 11.7143 12.3047 11.9577V12.3981H12.7441C12.987 12.3981 13.1836 12.595 13.1836 12.8384C13.1836 13.0818 12.987 13.2788 12.7441 13.2788Z"/>
<path d="M1.75781 11.958H0.878906C0.393486 11.958 0 12.3523 0 12.8387C0 13.3251 0.393486 13.7195 0.878906 13.7195H1.75781C2.24323 13.7195 2.63672 13.3251 2.63672 12.8387C2.63672 12.3523 2.24323 11.958 1.75781 11.958Z"/>
<path d="M1.75781 7.55371H0.878906C0.393486 7.55371 0 7.94801 0 8.43444C0 8.92081 0.393486 9.31517 0.878906 9.31517H1.75781C2.24323 9.31517 2.63672 8.92081 2.63672 8.43444C2.63672 7.94801 2.24323 7.55371 1.75781 7.55371Z"/>
<path d="M1.75781 3.0918H0.878906C0.393486 3.0918 0 3.4861 0 3.97253C0 4.4589 0.393486 4.85326 0.878906 4.85326H1.75781C2.24323 4.85326 2.63672 4.4589 2.63672 3.97253C2.63672 3.4861 2.24323 3.0918 1.75781 3.0918Z"/>
<path d="M12.7441 0.889648H3.07617C2.3492 0.889648 1.75781 1.48226 1.75781 2.21074C2.72728 2.21074 3.51562 3.00073 3.51562 3.97221C3.51562 4.94368 2.72728 5.73367 1.75781 5.73367V6.67312C2.72728 6.67312 3.51562 7.4631 3.51562 8.43458C3.51562 9.40605 2.72728 10.196 1.75781 10.196V11.0768C2.72728 11.0768 3.51562 11.8668 3.51562 12.8382C3.51562 13.8097 2.72728 14.5997 1.75781 14.5997C1.75781 15.3282 2.3492 15.9208 3.07617 15.9208H9.40998C8.5033 15.1939 7.91016 14.0897 7.91016 12.8382C7.91016 10.6528 9.68429 8.87494 11.8652 8.87494C12.678 8.87494 13.4921 9.12296 14.1211 9.54585V2.21074C14.1211 1.48226 13.4711 0.889648 12.7441 0.889648ZM7.78143 10.5074L6.02358 12.2688C5.93774 12.3549 5.8253 12.3979 5.71289 12.3979C5.60048 12.3979 5.48801 12.3549 5.4022 12.2688L4.39969 11.2642C4.22804 11.0922 4.22804 10.8135 4.39969 10.6415C4.57134 10.4695 4.84945 10.4695 5.0211 10.6415L5.71289 11.3348L7.16001 9.88467C7.33166 9.71266 7.60978 9.71266 7.78143 9.88467C7.95308 10.0567 7.95308 10.3354 7.78143 10.5074ZM7.78143 6.98445L6.02361 8.74592C5.93777 8.83193 5.82533 8.87494 5.71292 8.87494C5.60051 8.87494 5.48804 8.83193 5.40223 8.74592L4.39972 7.74132C4.22801 7.56932 4.22801 7.29065 4.39969 7.11865C4.57134 6.94664 4.84945 6.94664 5.0211 7.11865L5.71289 7.81187L7.16001 6.36175C7.33166 6.18974 7.60978 6.18974 7.78143 6.36175C7.95308 6.53375 7.95308 6.81245 7.78143 6.98445ZM7.78143 3.40281L6.02361 5.16428C5.93777 5.25029 5.82533 5.2933 5.71292 5.2933C5.60051 5.2933 5.48804 5.25029 5.40223 5.16428L4.39972 4.15969C4.22801 3.98768 4.22801 3.70902 4.39969 3.53701C4.57134 3.365 4.84945 3.365 5.0211 3.53701L5.71289 4.23023L7.16001 2.78011C7.33166 2.6081 7.60978 2.6081 7.78143 2.78011C7.95308 2.95211 7.95308 3.23081 7.78143 3.40281ZM11.8652 7.99421H9.22852C8.98562 7.99421 8.78906 7.79725 8.78906 7.55385C8.78906 7.31044 8.98562 7.11348 9.22852 7.11348H11.8652C12.1081 7.11348 12.3047 7.31044 12.3047 7.55385C12.3047 7.79725 12.1081 7.99421 11.8652 7.99421ZM11.8652 4.41257H9.22852C8.98562 4.41257 8.78906 4.21561 8.78906 3.97221C8.78906 3.7288 8.98562 3.53184 9.22852 3.53184H11.8652C12.1081 3.53184 12.3047 3.7288 12.3047 3.97221C12.3047 4.21561 12.1081 4.41257 11.8652 4.41257Z"/>
</svg>
