<svg width="25" height="32" fill="none" xmlns="http://www.w3.org/2000/svg"><g clip-path="url(#clip0)"><path d="M21.473 18.763a3.508 3.508 0 013.508 3.508v1.412a5.848 5.848 0 01-2.038 4.438c-2.442 2.095-5.935 3.117-10.442 3.117-4.506 0-7.996-1.023-10.433-3.12A5.848 5.848 0 01.03 23.687V22.27a3.509 3.509 0 013.509-3.507h17.933zm-9.13-18.7L12.5.05a1.17 1.17 0 011.159 1.01l.01.16v1.17h5.459a3.509 3.509 0 013.508 3.508v7.025a3.509 3.509 0 01-3.508 3.508H5.874a3.509 3.509 0 01-3.509-3.508V5.898a3.509 3.509 0 013.509-3.509h5.458V1.221a1.17 1.17 0 011.01-1.158l.16-.013-.16.011v.002zm-3.35 7.004a1.95 1.95 0 100 3.9 1.95 1.95 0 000-3.9zm7.006 0a1.949 1.949 0 10-.11 3.896 1.949 1.949 0 00.11-3.896z"/></g><defs><clipPath id="clip0"><path d="M0 0h25v31.287H0z"/></clipPath></defs></svg>