<svg width="30" height="22" viewBox="0 0 30 22" fill="none" xmlns="http://www.w3.org/2000/svg">
<path d="M0 18.1172H29.7648V18.4113C29.7648 18.9636 29.3171 19.4113 28.7648 19.4113H1C0.447715 19.4113 0 18.9636 0 18.4113V18.1172Z"/>
<path d="M1.29492 20.7051H28.4715V20.9992C28.4715 21.5515 28.0238 21.9992 27.4715 21.9992H2.29492C1.74264 21.9992 1.29492 21.5515 1.29492 20.9992V20.7051Z"/>
<path fill-rule="evenodd" clip-rule="evenodd" d="M1.29412 0C0.579399 0 0 0.579399 0 1.29412V15.5295C0 16.2442 0.579399 16.8236 1.29412 16.8236H28.4707C29.1854 16.8236 29.7648 16.2442 29.7648 15.5295V1.29412C29.7648 0.579399 29.1854 0 28.4707 0H1.29412ZM14.8824 12.9412C17.384 12.9412 19.4119 10.9133 19.4119 8.4118C19.4119 5.91027 17.384 3.88237 14.8824 3.88237C12.3809 3.88237 10.353 5.91027 10.353 8.4118C10.353 10.9133 12.3809 12.9412 14.8824 12.9412ZM2.58825 1.29412H5.17649V3.88237H2.58825V1.29412ZM5.17649 12.9412H2.58825V15.5295H5.17649V12.9412ZM24.5883 1.29412H27.1766V3.88237H24.5883V1.29412ZM27.1766 12.9412H24.5883V15.5295H27.1766V12.9412Z"/>
</svg>
