<svg width="15" height="14" viewBox="0 0 15 14" fill="none" xmlns="http://www.w3.org/2000/svg">
<path d="M14.4853 2.9326L10.9241 0.115555C10.7685 -0.007651 10.5564 -0.0308681 10.3779 0.0557872C10.1994 0.142443 10.0861 0.323713 10.0862 0.522432V1.52537H0.517241C0.231931 1.52623 0.000852103 1.75778 0 2.04369V4.63526C0.000852103 4.92117 0.231931 5.15273 0.517241 5.15358H10.0862V6.15652C10.0861 6.35524 10.1994 6.53651 10.3779 6.62316C10.5564 6.70982 10.7685 6.6866 10.9241 6.5634L14.4853 3.74635C14.6102 3.6484 14.6831 3.49836 14.6831 3.33948C14.6831 3.1806 14.6102 3.03055 14.4853 2.9326ZM1.81034 4.37611H1.03448C0.89165 4.37611 0.775862 4.26008 0.775862 4.11695V3.33948C0.775862 3.19635 0.89165 3.08032 1.03448 3.08032C1.17731 3.08032 1.2931 3.19635 1.2931 3.33948V3.85779H1.81034C1.95318 3.85779 2.06897 3.97382 2.06897 4.11695C2.06897 4.26008 1.95318 4.37611 1.81034 4.37611Z"/>
<path d="M14.4823 8.78221H4.91332V7.77927C4.91339 7.58055 4.80009 7.39928 4.62163 7.31262C4.44317 7.22597 4.23098 7.24918 4.07538 7.37239L0.514178 10.1894C0.389341 10.2874 0.316406 10.4374 0.316406 10.5963C0.316406 10.7552 0.389341 10.9052 0.514178 11.0032L4.07538 13.8202C4.23098 13.9434 4.44317 13.9667 4.62163 13.88C4.80009 13.7933 4.91339 13.6121 4.91332 13.4134V12.4104H14.4823C14.7676 12.4096 14.9987 12.178 14.9995 11.8921V9.30052C14.9987 9.01462 14.7676 8.78306 14.4823 8.78221ZM14.2237 11.3738C14.2237 11.5169 14.1079 11.6329 13.965 11.6329H13.1892C13.0463 11.6329 12.9306 11.5169 12.9306 11.3738C12.9306 11.2307 13.0463 11.1146 13.1892 11.1146H13.7064V10.5963C13.7064 10.4532 13.8222 10.3372 13.965 10.3372C14.1079 10.3372 14.2237 10.4532 14.2237 10.5963V11.3738Z"/>
</svg>
