<svg width="25" height="25" fill="none" xmlns="http://www.w3.org/2000/svg"><g clip-path="url(#clip0)"><path d="M20.259 8.405V7.32a.216.216 0 01.342-.173l4.16 3.025a.215.215 0 010 .349l-4.16 3.025a.215.215 0 01-.342-.173v-1.089a.215.215 0 00-.213-.215c-1.833-.007-6.602-.193-7.076-4.828a.216.216 0 01.371-.165c.565.636 1.812 1.545 4.332 1.545h2.37a.216.216 0 00.216-.216zM17.672 5.388v1.085a.215.215 0 01-.342.173L13.17 3.62a.216.216 0 010-.349L17.33.247a.216.216 0 01.343.173v1.089c0 .118.095.214.213.215 1.832.007 6.601.193 7.076 4.828a.216.216 0 01-.372.165c-.565-.636-1.811-1.545-4.331-1.545h-2.37a.216.216 0 00-.216.216z"/><path d="M10.352 14.648c-2.386-2.386-2.925-4.773-3.046-5.729a.857.857 0 01.246-.717l1.93-1.93a.862.862 0 00.122-1.067L6.53.431A.862.862 0 005.413.117L.477 2.44a.857.857 0 00-.474.857c.259 2.457 1.33 8.496 7.265 14.432s11.974 7.006 14.432 7.265a.857.857 0 00.857-.474l2.325-4.936a.862.862 0 00-.313-1.115l-4.774-3.073a.862.862 0 00-1.067.12l-1.93 1.931a.857.857 0 01-.717.246c-.956-.121-3.343-.66-5.729-3.046z"/></g><defs><clipPath id="clip0"><path d="M0 0h25v25H0z"/></clipPath></defs></svg>