<svg width="27" height="27" viewBox="0 0 27 27" fill="none" xmlns="http://www.w3.org/2000/svg">
<path d="M21.9372 10.1811C22.9652 10.1811 23.9688 9.87077 24.8146 9.29126C25.6604 8.71176 26.3084 7.89058 26.6722 6.93693C27.0361 5.98328 27.0987 4.94236 26.8516 3.95258C26.6046 2.9628 26.0596 2.07107 25.2892 1.39597C24.5188 0.720872 23.5595 0.294399 22.5388 0.173263C21.5181 0.0521264 20.4844 0.242068 19.5752 0.717829C18.666 1.19359 17.9243 1.93262 17.4488 2.83665C16.9733 3.74068 16.7866 4.76687 16.9134 5.77875L8.57687 9.91329C7.86174 9.22925 6.95951 8.76904 5.98259 8.58997C5.00566 8.41091 3.99721 8.52091 3.08286 8.90627C2.1685 9.29163 1.38866 9.93532 0.840481 10.7572C0.292298 11.579 0 12.5426 0 13.5281C0 14.5135 0.292298 15.4772 0.840481 16.299C1.38866 17.1208 2.1685 17.7645 3.08286 18.1499C3.99721 18.5352 5.00566 18.6452 5.98259 18.4662C6.95951 18.2871 7.86174 17.8269 8.57687 17.1429L16.9134 21.2774C16.7657 22.4529 17.0417 23.6423 17.6926 24.6354C18.3436 25.6286 19.3275 26.3615 20.4705 26.7047C21.6135 27.0479 22.842 26.9792 23.9389 26.5108C25.0358 26.0424 25.9305 25.2045 26.4648 24.1451C26.9991 23.0857 27.1387 21.8731 26.8588 20.7215C26.5789 19.5699 25.8977 18.5535 24.9354 17.852C23.9731 17.1505 22.7918 16.8089 21.6002 16.8878C20.4087 16.9666 19.2835 17.4607 18.4237 18.2828L10.0872 14.1483C10.1383 13.7369 10.1383 13.3209 10.0872 12.9096L18.4237 8.77503C19.3316 9.64546 20.5703 10.1811 21.9372 10.1811Z" fill="#2564D3"/>
</svg>
