<svg width="30" height="25" viewBox="0 0 30 25" fill="none" xmlns="http://www.w3.org/2000/svg">
<path d="M25.5 19.6149H13.5V18.127C13.5 16.1481 17.505 15.1512 19.5 15.1512C21.495 15.1512 25.5 16.1481 25.5 18.127V19.6149ZM19.5 7.71185C20.2956 7.71185 21.0587 8.02536 21.6213 8.58342C22.1839 9.14149 22.5 9.89838 22.5 10.6876C22.5 11.4768 22.1839 12.2337 21.6213 12.7918C21.0587 13.3498 20.2956 13.6634 19.5 13.6634C18.7044 13.6634 17.9413 13.3498 17.3787 12.7918C16.8161 12.2337 16.5 11.4768 16.5 10.6876C16.5 9.89838 16.8161 9.14149 17.3787 8.58342C17.9413 8.02536 18.7044 7.71185 19.5 7.71185ZM27 3.24821H15L12 0.272461H3C1.335 0.272461 0 1.59667 0 3.24821V21.1027C0 21.892 0.31607 22.6489 0.87868 23.2069C1.44129 23.765 2.20435 24.0785 3 24.0785H27C27.7956 24.0785 28.5587 23.765 29.1213 23.2069C29.6839 22.6489 30 21.892 30 21.1027V6.22397C30 5.43475 29.6839 4.67785 29.1213 4.11979C28.5587 3.56173 27.7956 3.24821 27 3.24821Z" fill="#2564D3"/>
</svg>
