<svg width="28" height="22" viewBox="0 0 28 22" fill="none" xmlns="http://www.w3.org/2000/svg">
<path d="M0.000166214 9.18788C-0.0119092 10.2373 0.634962 11.1817 1.61778 11.5496V7.05263C1.61778 6.98792 1.6501 6.89088 1.6501 6.82617C0.660661 7.19116 0.0025813 8.13317 0.000166214 9.18788Z"/>
<path d="M8.83295 14.7529H4.59473L6.18001 20.5117C6.41477 21.3906 7.2115 22.0014 8.12118 22C8.76843 22.0077 9.38081 21.7074 9.77118 21.1912C10.1653 20.7 10.2869 20.0439 10.0947 19.4441L8.83295 14.7529Z"/>
<path d="M1.65137 6.79404H1.68369V6.76172C1.68369 6.79404 1.68369 6.79404 1.65137 6.79404Z"/>
<path d="M24.8477 6.34082H24.5889V12.1643H24.8477C26.4559 12.1643 27.7594 10.8607 27.7594 9.25261C27.7594 7.64447 26.4558 6.34082 24.8477 6.34082Z"/>
<path d="M2.58789 7.05276V11.6469C2.62288 12.8366 3.59771 13.7827 4.78785 13.7822H10.6761V5.04688H4.78785C3.62316 5.04688 2.58789 5.88807 2.58789 7.05276Z"/>
<path d="M11.6465 13.9117L23.617 18.6999V0L11.6465 4.78825V13.9117Z"/>
</svg>
