<svg width="28" height="38" viewBox="0 0 28 38" fill="none" xmlns="http://www.w3.org/2000/svg">
<path d="M17.4854 5.85938H20.7158V8.01148H17.4854V5.85938Z"/>
<path fill-rule="evenodd" clip-rule="evenodd" d="M0 2C0 0.895431 0.895432 0 2 0H25.8214C26.926 0 27.8214 0.89543 27.8214 2V36C27.8214 37.1046 26.926 38 25.8214 38H2C0.895431 38 0 37.1046 0 36V2ZM12.1769 7.05623V4.83306H4.88208V7.05623H12.1769ZM4.88216 12.5275H22.9393V10.3044H4.88216V12.5275ZM11.4982 33.953H10.2489C9.90771 33.953 9.61424 34.2094 9.59836 34.5426C9.58142 34.8982 9.87109 35.1914 10.2312 35.1914H14.7449C14.9198 35.1914 15.0617 35.0528 15.0617 34.8818V31.3214H14.7845C14.4244 31.3214 14.1346 31.0278 14.1517 30.6722C14.1678 30.3392 14.4613 30.083 14.8024 30.083H20.4069C20.7669 30.083 21.0568 30.3766 21.0397 30.7321C21.0236 31.0651 20.7301 31.3214 20.389 31.3214H20.1297V34.8818C20.1297 35.0528 20.2716 35.1914 20.4465 35.1914H24.9602C25.3203 35.1914 25.61 34.8982 25.593 34.5426C25.5772 34.2094 25.2837 33.953 24.9425 33.953H23.6932V18.7825C23.6932 18.4405 23.4096 18.1633 23.0597 18.1633H22.545V16.6153C22.545 16.2733 22.2614 15.9961 21.9115 15.9961H17.5165C17.1666 15.9961 16.883 16.2733 16.883 16.6153V18.1633H12.1317C11.7818 18.1633 11.4982 18.4405 11.4982 18.7825V33.953ZM19.8526 28.8059H19.1399C18.79 28.8059 18.5064 28.5286 18.5064 28.1867C18.5064 27.8447 18.79 27.5675 19.1399 27.5675H19.8526C20.2024 27.5675 20.4861 27.8447 20.4861 28.1867C20.4861 28.5286 20.2024 28.8059 19.8526 28.8059ZM19.8526 26.4839H19.1399C18.79 26.4839 18.5064 26.2066 18.5064 25.8647C18.5064 25.5227 18.79 25.2454 19.1399 25.2454H19.8526C20.2024 25.2454 20.4861 25.5227 20.4861 25.8647C20.4861 26.2066 20.2024 26.4839 19.8526 26.4839ZM19.8526 24.1618H19.1399C18.79 24.1618 18.5064 23.8846 18.5064 23.5426C18.5064 23.2007 18.79 22.9234 19.1399 22.9234H19.8526C20.2024 22.9234 20.4861 23.2007 20.4861 23.5426C20.4861 23.8846 20.2024 24.1618 19.8526 24.1618ZM19.8526 21.8398H19.1399C18.79 21.8398 18.5064 21.5626 18.5064 21.2206C18.5064 20.8787 18.79 20.6014 19.1399 20.6014H19.8526C20.2024 20.6014 20.4861 20.8787 20.4861 21.2206C20.4861 21.5626 20.2024 21.8398 19.8526 21.8398ZM16.0911 28.8059H15.3784C15.0285 28.8059 14.7449 28.5286 14.7449 28.1867C14.7449 27.8447 15.0285 27.5675 15.3784 27.5675H16.0911C16.441 27.5675 16.7246 27.8447 16.7246 28.1867C16.7246 28.5286 16.441 28.8059 16.0911 28.8059ZM16.0911 26.4839H15.3784C15.0285 26.4839 14.7449 26.2066 14.7449 25.8647C14.7449 25.5227 15.0285 25.2454 15.3784 25.2454H16.0911C16.441 25.2454 16.7246 25.5227 16.7246 25.8647C16.7246 26.2066 16.441 26.4839 16.0911 26.4839ZM16.0911 24.1618H15.3784C15.0285 24.1618 14.7449 23.8846 14.7449 23.5426C14.7449 23.2007 15.0285 22.9234 15.3784 22.9234H16.0911C16.441 22.9234 16.7246 23.2007 16.7246 23.5426C16.7246 23.8846 16.441 24.1618 16.0911 24.1618ZM16.0911 21.8398H15.3784C15.0285 21.8398 14.7449 21.5626 14.7449 21.2206C14.7449 20.8787 15.0285 20.6014 15.3784 20.6014H16.0911C16.441 20.6014 16.7246 20.8787 16.7246 21.2206C16.7246 21.5626 16.441 21.8398 16.0911 21.8398ZM18.8627 31.631V34.8818C18.8627 35.0528 18.7209 35.1914 18.546 35.1914H16.6454C16.4705 35.1914 16.3287 35.0528 16.3287 34.8818V31.631C16.3287 31.46 16.4705 31.3214 16.6454 31.3214H18.546C18.7209 31.3214 18.8627 31.46 18.8627 31.631Z"/>
</svg>
