<svg width="25" height="25" fill="none" xmlns="http://www.w3.org/2000/svg"><path fill-rule="evenodd" clip-rule="evenodd" d="M24.09 4.015a.97.97 0 01.348.07c.363.158.544.432.544.822v15.168c0 .39-.181.664-.544.822a.972.972 0 01-.348.07.829.829 0 01-.628-.265l-5.618-5.618v2.314c0 1.106-.393 2.052-1.178 2.837-.785.785-1.73 1.178-2.837 1.178H4.015c-1.106 0-2.052-.393-2.837-1.178C.393 19.45 0 18.505 0 17.398V7.584c0-1.106.393-2.052 1.178-2.837.785-.785 1.731-1.178 2.837-1.178h9.814c1.106 0 2.052.393 2.837 1.178.785.785 1.178 1.73 1.178 2.837v2.3l5.618-5.604a.829.829 0 01.628-.265zM10 14.213a4.698 4.698 0 01-1.706-1.104 4.555 4.555 0 01-1.12-1.66l.708-.851a.145.145 0 000-.173L6.807 8.83a.461.461 0 00-.72-.073l-.783.756a.871.871 0 00-.254.819 7.791 7.791 0 002.138 3.88 8.092 8.092 0 003.954 2.075.924.924 0 00.837-.246l.756-.748a.462.462 0 00-.076-.733l-1.614-1.04a.155.155 0 00-.175 0l-.87.692z"/></svg>