<svg width="28" height="28" viewBox="0 0 28 28" fill="none" xmlns="http://www.w3.org/2000/svg">
<path fill-rule="evenodd" clip-rule="evenodd" d="M14 28C21.732 28 28 21.732 28 14C28 6.26801 21.732 0 14 0C6.26801 0 0 6.26801 0 14C0 21.732 6.26801 28 14 28ZM6.32593 10.6715C5.60348 10.6715 5.03535 10.9275 4.62152 11.4395C4.20769 11.9516 4.00078 12.6582 4.00078 13.5595C4.00078 14.5029 4.19893 15.2166 4.59522 15.7006C4.99502 16.1845 5.57192 16.4265 6.32593 16.4265C6.65208 16.4265 6.96771 16.3949 7.27282 16.3318C7.57793 16.2652 7.89531 16.181 8.22497 16.0793V17.1577C7.62177 17.3857 6.9379 17.4996 6.17337 17.4996C5.04762 17.4996 4.18314 17.1595 3.57994 16.4791C2.97673 15.7952 2.67513 14.8185 2.67513 13.549C2.67513 12.7494 2.82067 12.0498 3.11175 11.4501C3.40634 10.8504 3.83069 10.3909 4.3848 10.0718C4.9389 9.75267 5.58945 9.5931 6.33645 9.5931C7.12202 9.5931 7.84797 9.75793 8.5143 10.0876L8.06189 11.1344C7.80238 11.0117 7.52708 10.9047 7.23599 10.8135C6.94842 10.7188 6.64506 10.6715 6.32593 10.6715ZM11.1393 13.2807H12.0125C12.5982 13.2807 13.0226 13.172 13.2856 12.9546C13.5486 12.7371 13.6801 12.4145 13.6801 11.9866C13.6801 11.5518 13.5381 11.2396 13.254 11.0503C12.97 10.8609 12.5421 10.7662 11.9705 10.7662H11.1393V13.2807ZM11.1393 14.3223V17.3944H9.88203V9.70357H12.0546C13.0471 9.70357 13.7818 9.88944 14.2588 10.2612C14.7357 10.6329 14.9742 11.194 14.9742 11.9445C14.9742 12.902 14.4762 13.5841 13.4802 13.9909L15.6528 17.3944H14.222L12.3808 14.3223H11.1393ZM17.8675 10.9714L20.0979 17.3944H21.2079L23.5173 10.9819H23.5594C23.5453 11.1116 23.5278 11.4834 23.5068 12.0971C23.4892 12.7108 23.4805 13.2088 23.4805 13.5911V17.3944H24.6904V9.70357H22.9123L20.7134 15.8215H20.6819L18.5461 9.70357H16.7733V17.3944H17.9148V13.6542C17.9148 12.8195 17.885 11.9253 17.8254 10.9714H17.8675Z"/>
</svg>
