<svg width="25" height="25" fill="none" xmlns="http://www.w3.org/2000/svg"><path d="M18.701 23.535h-1.806v-.928h-8.79v.928H6.3a.732.732 0 100 1.465H18.7a.732.732 0 100-1.465zM6.616 5.127a.733.733 0 10-1.466.002.733.733 0 001.466-.002zM3.475 9.863h4.817c-.146-1.154-1.17-2.05-2.408-2.05s-2.263.896-2.409 2.05z"/><path d="M4.32 6.669a2.19 2.19 0 01-.633-1.542A2.2 2.2 0 015.884 2.93 2.2 2.2 0 018.08 5.127c0 .6-.242 1.145-.634 1.542 1.285.553 2.208 1.764 2.317 3.194h2.004V0H.732A.732.732 0 000 .732v9.131h2.003c.11-1.43 1.032-2.641 2.317-3.194zM5.884 19.385c-1.131 0-2.084.748-2.351 1.758h4.702c-.268-1.01-1.22-1.758-2.351-1.758z"/><path d="M3.687 16.7a2.2 2.2 0 012.197-2.198 2.2 2.2 0 012.197 2.197c0 .6-.242 1.145-.634 1.542 1.196.515 2.08 1.6 2.283 2.902h2.038v-9.815H0v9.082c0 .405.328.733.732.733h1.305c.204-1.302 1.087-2.387 2.283-2.902a2.19 2.19 0 01-.633-1.542z"/><path d="M5.151 16.7a.733.733 0 101.467-.002.733.733 0 00-1.467.001zM19.849 5.127a.733.733 0 10-1.467.002.733.733 0 001.467-.002zM16.707 9.863h4.818c-.146-1.154-1.17-2.05-2.409-2.05-1.238 0-2.262.896-2.409 2.05z"/><path d="M24.268 0H13.232v9.863h2.004c.108-1.43 1.032-2.641 2.317-3.194a2.19 2.19 0 01-.634-1.542 2.2 2.2 0 012.197-2.197 2.2 2.2 0 012.198 2.197c0 .6-.243 1.145-.634 1.542 1.285.553 2.208 1.764 2.317 3.194H25V.733A.732.732 0 0024.268 0zM19.116 19.336c-1.15 0-2.114.773-2.364 1.807h4.728c-.25-1.034-1.214-1.807-2.364-1.807zM19.849 16.65a.733.733 0 10-1.467.002.733.733 0 001.467-.002z"/><path d="M13.232 21.143h2.031c.19-1.323 1.079-2.43 2.29-2.95a2.19 2.19 0 01-.634-1.543 2.2 2.2 0 012.197-2.197 2.2 2.2 0 012.198 2.197c0 .6-.243 1.145-.634 1.542 1.21.521 2.1 1.628 2.29 2.95h1.298A.732.732 0 0025 20.41v-9.082H13.232v9.815z"/></svg>