<svg width="28" height="38" viewBox="0 0 28 38" fill="none" xmlns="http://www.w3.org/2000/svg">
<path d="M17.4854 5.85938H20.7158V8.01148H17.4854V5.85938Z"/>
<path fill-rule="evenodd" clip-rule="evenodd" d="M2 0C0.895432 0 0 0.895431 0 2V36C0 37.1046 0.895431 38 2 38H25.8214C26.926 38 27.8214 37.1046 27.8214 36V2C27.8214 0.89543 26.926 0 25.8214 0H2ZM12.1769 4.83306V7.05623H4.88208V4.83306H12.1769ZM22.9393 12.5275H4.88216V10.3044H22.9393V12.5275ZM24.5 34.9989H21.8333C21.5573 34.9989 21.3333 34.7749 21.3333 34.4989V33.6656H19.3333V34.4989C19.3333 34.7749 19.1093 34.9989 18.8333 34.9989H15.1667C14.8907 34.9989 14.6667 34.7749 14.6667 34.4989V33.6656H12.6667V34.4989C12.6667 34.7749 12.4427 34.9989 12.1667 34.9989H9.5C9.224 34.9989 9 34.7749 9 34.4989V32.3322H25V34.4989C25 34.7749 24.776 34.9989 24.5 34.9989ZM17.6661 19H19.6661C20.0341 19 20.3328 19.2987 20.3328 19.6667V23.6667C20.3328 24.0347 20.0341 24.3333 19.6661 24.3333H14.3328C13.9648 24.3333 13.6661 24.0347 13.6661 23.6667V19.6667C13.6661 19.2987 13.9648 19 14.3328 19H16.3328V20.3333C16.3328 20.7013 16.6315 21 16.9995 21C17.3675 21 17.6661 20.7013 17.6661 20.3333V19ZM15.6661 25.6678H13.6661V27.0011C13.6661 27.3691 13.3675 27.6678 12.9995 27.6678C12.6315 27.6678 12.3328 27.3691 12.3328 27.0011V25.6678H10.3328C9.96479 25.6678 9.66612 25.9664 9.66612 26.3344V30.3344C9.66612 30.7024 9.96479 31.0011 10.3328 31.0011H15.6661C16.0341 31.0011 16.3328 30.7024 16.3328 30.3344V26.3344C16.3328 25.9664 16.0341 25.6678 15.6661 25.6678ZM21.6661 25.6678H23.6661C24.0341 25.6678 24.3328 25.9664 24.3328 26.3344V30.3344C24.3328 30.7024 24.0341 31.0011 23.6661 31.0011H18.3328C17.9648 31.0011 17.6661 30.7024 17.6661 30.3344V26.3344C17.6661 25.9664 17.9648 25.6678 18.3328 25.6678H20.3328V27.0011C20.3328 27.3691 20.6315 27.6678 20.9995 27.6678C21.3675 27.6678 21.6661 27.3691 21.6661 27.0011V25.6678Z"/>
</svg>
