<svg width="15" height="14" viewBox="0 0 15 14" fill="none" xmlns="http://www.w3.org/2000/svg">
<path d="M7.23102 5.79688C6.93294 5.86464 6.71492 6.12091 6.69531 6.42657C6.71492 6.73223 6.93294 6.98851 7.23102 7.05627V5.79688Z"/>
<path d="M4.28516 7.36535C4.28516 9.28933 5.72703 10.8547 7.49944 10.8547C9.27185 10.8547 10.7137 9.28933 10.7137 7.36535C10.7137 5.44136 9.27185 3.87598 7.49944 3.87598C5.72703 3.87598 4.28516 5.44136 4.28516 7.36535ZM6.16016 6.4259C6.18602 5.82423 6.6365 5.32665 7.23159 5.24247V5.21804C7.23159 5.0698 7.35151 4.94963 7.49944 4.94963C7.64738 4.94963 7.7673 5.0698 7.7673 5.21804V5.24247C8.36238 5.32665 8.81287 5.82423 8.83873 6.4259C8.83873 6.57414 8.7188 6.69432 8.57087 6.69432C8.42294 6.69432 8.30301 6.57414 8.30301 6.4259C8.28341 6.12024 8.06538 5.86397 7.7673 5.7962V7.12136C8.36238 7.20554 8.81287 7.70312 8.83873 8.3048C8.81287 8.90647 8.36238 9.40405 7.7673 9.48823V9.51265C7.7673 9.6609 7.64738 9.78107 7.49944 9.78107C7.35151 9.78107 7.23159 9.6609 7.23159 9.51265V9.48823C6.6365 9.40405 6.18602 8.90647 6.16016 8.3048C6.16016 8.15655 6.28008 8.03638 6.42801 8.03638C6.57595 8.03638 6.69587 8.15655 6.69587 8.3048C6.71548 8.61046 6.9335 8.86673 7.23159 8.93449V7.60934C6.6365 7.52515 6.18602 7.02758 6.16016 6.4259Z"/>
<path d="M14.5329 3.87598H9.36328C10.5522 4.63383 11.266 5.95342 11.2509 7.36535C11.2662 8.77717 10.5525 10.0967 9.36382 10.8547H14.8669C14.9409 10.8547 15.0009 10.7946 15.0009 10.7205V4.01018C15.0009 3.93606 14.9409 3.87598 14.8669 3.87598H14.5329ZM14.4651 10.0495C14.4651 10.1977 14.3452 10.3179 14.1973 10.3179H13.1259C12.9779 10.3179 12.858 10.1977 12.858 10.0495C12.858 9.90124 12.9779 9.78107 13.1259 9.78107H13.9294V8.97583C13.9294 8.82759 14.0494 8.70742 14.1973 8.70742C14.3452 8.70742 14.4651 8.82759 14.4651 8.97583V10.0495ZM14.4651 5.75487C14.4651 5.90311 14.3452 6.02328 14.1973 6.02328C14.0494 6.02328 13.9294 5.90311 13.9294 5.75487V4.94963H13.1259C12.9779 4.94963 12.858 4.82946 12.858 4.68122C12.858 4.53298 12.9779 4.4128 13.1259 4.4128H14.1973C14.3452 4.4128 14.4651 4.53298 14.4651 4.68122V5.75487Z"/>
<path d="M13.2253 0.964927L6.16406 3.33851H14.1607L13.3946 1.04948C13.3711 0.979357 13.2954 0.941539 13.2253 0.964927Z"/>
<path d="M8.30525 8.30547C8.28565 7.99981 8.06762 7.74354 7.76953 7.67578V8.93516C8.06762 8.8674 8.28565 8.61113 8.30525 8.30547Z"/>
<path d="M3.75 7.36535C3.73471 5.95353 4.44833 4.63396 5.63705 3.87598H0.133929C0.0599619 3.87598 0 3.93606 0 4.01018V10.7205C0 10.7946 0.0599619 10.8547 0.133929 10.8547H5.63705C4.44833 10.0967 3.73471 8.77717 3.75 7.36535ZM1.875 10.3179H0.803571C0.655638 10.3179 0.535714 10.1977 0.535714 10.0495V8.97583C0.535714 8.82759 0.655638 8.70742 0.803571 8.70742C0.951505 8.70742 1.07143 8.82759 1.07143 8.97583V9.78107H1.875C2.02293 9.78107 2.14286 9.90124 2.14286 10.0495C2.14286 10.1977 2.02293 10.3179 1.875 10.3179ZM1.875 4.94963H1.07143V5.75487C1.07143 5.90311 0.951505 6.02328 0.803571 6.02328C0.655638 6.02328 0.535714 5.90311 0.535714 5.75487V4.68122C0.535714 4.53298 0.655638 4.4128 0.803571 4.4128H1.875C2.02293 4.4128 2.14286 4.53298 2.14286 4.68122C2.14286 4.82946 2.02293 4.94963 1.875 4.94963Z"/>
<path d="M1.7752 13.7652L8.83806 11.3916H0.839844L1.60592 13.6806C1.62944 13.7508 1.70516 13.7886 1.7752 13.7652Z"/>
</svg>
