<svg width="29" height="38" viewBox="0 0 29 38" fill="none" xmlns="http://www.w3.org/2000/svg">
<path d="M23.4284 33.25C23.9807 33.25 24.4284 32.8023 24.4284 32.25V5.75C24.4284 5.19771 23.9807 4.75 23.4284 4.75H5.07129C4.51901 4.75 4.07129 5.19772 4.07129 5.75V8.14286H15.607C15.6206 8.14286 15.6328 8.14948 15.6464 8.15114C15.7077 8.15412 15.7684 8.16605 15.8263 8.18626C15.8396 8.1909 15.8548 8.19024 15.8681 8.19587C15.8817 8.20117 15.8823 8.20581 15.8913 8.20946C15.9632 8.24193 16.0291 8.28632 16.0861 8.34099L21.5147 13.7696C21.5694 13.8259 21.6134 13.8915 21.6456 13.9631C21.6495 13.9717 21.6565 13.978 21.6598 13.9866C21.6631 13.9955 21.6644 14.0164 21.6694 14.0307C21.689 14.087 21.7006 14.1456 21.7039 14.2053C21.7039 14.2202 21.7128 14.2331 21.7128 14.248V32.25C21.7128 32.8023 22.1605 33.25 22.7128 33.25H23.4284Z"/>
<path d="M27.4997 28.5C28.052 28.5 28.4997 28.0523 28.4997 27.5V1C28.4997 0.447715 28.052 0 27.4997 0H9.14258C8.59029 0 8.14258 0.447715 8.14258 1V3.39286H25.1069C25.4816 3.39286 25.7854 3.69669 25.7854 4.07143V27.5C25.7854 28.0523 26.2332 28.5 26.7854 28.5H27.4997Z"/>
<path d="M16.2852 13.5728H19.397L16.2852 10.4609V13.5728Z"/>
<path fill-rule="evenodd" clip-rule="evenodd" d="M0 10.5C0 9.94772 0.447717 9.5 1 9.5H13.9286C14.4809 9.5 14.9286 9.94772 14.9286 10.5V14.25C14.9286 14.6247 15.2324 14.9286 15.6071 14.9286H19.3571C19.9094 14.9286 20.3571 15.3763 20.3571 15.9286V37C20.3571 37.5523 19.9094 38 19.3571 38H1C0.447715 38 0 37.5523 0 37V10.5ZM12.7398 28.6025C12.8112 28.6393 12.8902 28.6583 12.9703 28.6579C13.081 28.6631 13.1903 28.6312 13.281 28.5673C13.3587 28.5113 13.4189 28.4341 13.4544 28.3449C13.4899 28.2556 13.4993 28.158 13.4814 28.0636L12.9804 25.2279L15.0448 23.2132C15.1092 23.1485 15.1549 23.0675 15.1769 22.9788C15.199 22.89 15.1966 22.7969 15.17 22.7095C15.141 22.62 15.0876 22.5404 15.0158 22.4799C14.9441 22.4193 14.8569 22.3802 14.7642 22.367L11.9081 21.9489L10.6353 19.3701C10.5943 19.2849 10.5302 19.2131 10.4505 19.1628C10.3707 19.1126 10.2785 19.0859 10.1844 19.0859C10.0902 19.0859 9.99802 19.1126 9.91827 19.1628C9.83851 19.2131 9.77444 19.2849 9.73341 19.3701L8.47573 21.9539L5.61962 22.372C5.52689 22.3853 5.4397 22.4244 5.36796 22.4849C5.29622 22.5454 5.2428 22.625 5.21376 22.7145C5.18717 22.802 5.18479 22.8951 5.20686 22.9838C5.22892 23.0726 5.27461 23.1536 5.33902 23.2182L7.40344 25.2329L6.90236 28.0686C6.88597 28.1614 6.89579 28.257 6.93073 28.3444C6.96567 28.4319 7.02432 28.5077 7.1 28.5633C7.17569 28.619 7.26538 28.6521 7.35888 28.659C7.45238 28.666 7.54594 28.6464 7.62892 28.6025L10.1844 27.2577L12.7398 28.6025Z"/>
</svg>
