<svg width="27" height="23" viewBox="0 0 27 23" fill="none" xmlns="http://www.w3.org/2000/svg">
<path d="M5.44673 23C4.50263 23 3.67957 22.4553 3.28014 21.6686L0.121038 10.2183L0 9.68577C0 9.36476 0.127522 9.05689 0.354513 8.8299C0.581504 8.60291 0.889371 8.47538 1.21038 8.47538H6.75394L12.3217 0.523159C12.4333 0.360815 12.583 0.228261 12.7576 0.137071C12.9322 0.0458809 13.1265 -0.00117175 13.3235 2.21664e-05C13.5205 0.00121608 13.7142 0.0506201 13.8877 0.14392C14.0612 0.23722 14.2092 0.371579 14.3188 0.535263L19.8745 8.47538H25.4181C25.7391 8.47538 26.047 8.60291 26.2739 8.8299C26.5009 9.05689 26.6285 9.36476 26.6285 9.68577L26.58 10.0368L23.3483 21.6686C22.9489 22.4553 22.1258 23 21.1817 23H5.44673ZM13.3142 3.31915L9.68308 8.47538H16.9454L13.3142 3.31915ZM13.3142 13.3169C12.6722 13.3169 12.0565 13.572 11.6025 14.026C11.1485 14.4799 10.8935 15.0957 10.8935 15.7377C10.8935 16.3797 11.1485 16.9955 11.6025 17.4494C12.0565 17.9034 12.6722 18.1585 13.3142 18.1585C13.9563 18.1585 14.572 17.9034 15.026 17.4494C15.48 16.9955 15.735 16.3797 15.735 15.7377C15.735 15.0957 15.48 14.4799 15.026 14.026C14.572 13.572 13.9563 13.3169 13.3142 13.3169Z"/>
</svg>
