<svg width="38" height="38" viewBox="0 0 38 38" fill="none" xmlns="http://www.w3.org/2000/svg">
<path d="M10.0566 17.4414C4.51141 17.4414 0 21.9504 0 27.4926C0 30.7434 1.55252 33.6382 3.95494 35.4766V35.2358C3.95494 33.0115 5.1531 31.0623 6.93774 29.997C6.24666 29.2438 5.82406 28.2407 5.82406 27.1407C5.82406 24.8081 7.72275 22.9105 10.0566 22.9105C12.3905 22.9105 14.2892 24.8081 14.2892 27.1407C14.2892 28.2407 13.8666 29.2438 13.1755 29.997C14.9602 31.0624 16.1583 33.0115 16.1583 35.2358V35.4766C18.5608 33.6382 20.1133 30.7434 20.1133 27.4926C20.1133 21.9504 15.6019 17.4414 10.0566 17.4414Z"/>
<path d="M10.0195 31.3945C7.89144 31.3945 6.16016 33.1246 6.16016 35.2512V36.7828C8.62185 37.8114 11.414 37.8126 13.8789 36.7828V35.2512C13.8789 33.1246 12.1476 31.3945 10.0195 31.3945Z"/>
<path d="M12.0977 27.164C12.0977 26.0591 11.1987 25.1602 10.0938 25.1602C8.98883 25.1602 8.08984 26.0591 8.08984 27.164C8.08984 28.269 8.98875 29.168 10.0938 29.168C11.1987 29.168 12.0977 28.2691 12.0977 27.164Z"/>
<path d="M20.1133 20.4095C21.3107 22.1158 22.0905 24.1512 22.2887 26.3477H24.5664C24.5664 25.6526 24.5664 9.18007 24.5664 8.47925V8.46094H20.1133V20.4095Z"/>
<path d="M17.8867 18.0352V11.875H13.4336V15.6864C15.0859 16.1564 16.5969 16.9661 17.8867 18.0352Z"/>
<path d="M26.793 26.3472C27.1255 26.3458 30.9134 26.3487 31.2461 26.3472V5.12109H26.793V26.3472Z"/>
<path d="M33.4727 1.78125V26.3477H38V1.78125H33.4727Z"/>
<path d="M6.90511 7.08938L10.071 10.2402L18.7773 1.57539L17.1944 0L10.071 7.08931L6.90511 3.9386L1.78125 9.03789L3.36421 10.6133L6.90511 7.08938Z"/>
</svg>
