<svg width="15" height="15" viewBox="0 0 15 15" fill="none" xmlns="http://www.w3.org/2000/svg">
<path d="M1.6875 0C0.757125 0 0 0.757125 0 1.6875V11.4375C0 12.3679 0.757125 13.125 1.6875 13.125H11.4375C12.3679 13.125 13.125 12.3679 13.125 11.4375V1.6875C13.125 0.757125 12.3679 0 11.4375 0H1.6875ZM13.875 1.97827V11.8125C13.875 12.9495 12.9499 13.875 11.8125 13.875H1.97827C2.21115 14.5282 2.83013 15 3.5625 15H11.8125C13.5701 15 15 13.5701 15 11.8125V3.5625C15 2.83013 14.5282 2.21152 13.875 1.97827ZM9.18677 4.125C9.33067 4.125 9.4746 4.17992 9.58447 4.28979C9.80422 4.50954 9.80458 4.86546 9.58521 5.08521L6.21021 8.46021C6.10033 8.57008 5.9565 8.625 5.8125 8.625C5.6685 8.625 5.52467 8.57008 5.41479 8.46021L3.91479 6.96021C3.69504 6.74046 3.69504 6.38454 3.91479 6.16479C4.13454 5.94504 4.49046 5.94504 4.71021 6.16479L5.81177 7.26709L8.78906 4.28979C8.89894 4.17992 9.04286 4.125 9.18677 4.125Z"/>
</svg>
