<svg width="25" height="22" fill="none" xmlns="http://www.w3.org/2000/svg"><g clip-path="url(#clip0)"><mask id="a" maskUnits="userSpaceOnUse" x="0" y="0" width="20" height="20"><path fill-rule="evenodd" clip-rule="evenodd" d="M10.004 0h.032c5.401.005 9.775 4.395 9.764 9.797 0 5.417-4.406 9.823-9.823 9.823a9.446 9.446 0 01-3.266-.568l-5.24.921a.533.533 0 01-.584-.739l1.43-3.324A9.757 9.757 0 01.18 9.823C.18 4.406 4.586 0 10.004 0zM8.758 12.262l3.156-5.999h-.707l-3.164 5.999h.715zm.209-5.493c-.23-.262-.562-.393-.996-.393-.428 0-.76.136-.996.41-.235.267-.353.65-.353 1.148 0 .503.115.89.345 1.164.236.268.573.401 1.012.401.428 0 .758-.136.988-.41.23-.277.345-.676.345-1.196 0-.492-.115-.867-.345-1.124zM7.44 7.974c0-.675.174-1.012.522-1.012.118 0 .214.03.29.088.08.054.133.137.16.25.032.106.05.203.056.288.01.08.016.182.016.305 0 .364-.043.627-.129.787a.415.415 0 01-.401.241c-.182 0-.313-.072-.394-.216-.08-.15-.12-.394-.12-.731zm5.653 1.453c-.23-.262-.562-.393-.996-.393-.428 0-.76.136-.995.41-.236.267-.354.65-.354 1.147 0 .504.115.892.346 1.165.235.268.572.401 1.011.401.429 0 .758-.136.988-.41.23-.277.345-.676.345-1.196 0-.492-.115-.867-.345-1.124zm-1.526 1.205c0-.675.174-1.012.522-1.012.118 0 .215.03.29.088.08.054.133.137.16.25.032.106.05.203.056.288.011.08.016.182.016.305 0 .364-.043.627-.128.787a.415.415 0 01-.402.241c-.182 0-.313-.072-.393-.217-.08-.15-.12-.393-.12-.73z" fill="#fff"/></mask><g mask="url(#a)" fill="#fff"><path fill-rule="evenodd" clip-rule="evenodd" d="M10.004 0h.032c5.401.005 9.775 4.395 9.764 9.797 0 5.417-4.406 9.823-9.823 9.823a9.446 9.446 0 01-3.266-.568l-5.24.921a.533.533 0 01-.584-.739l1.43-3.324A9.757 9.757 0 01.18 9.823C.18 4.406 4.586 0 10.004 0zM8.758 12.262l3.156-5.999h-.707l-3.164 5.999h.715zm.209-5.493c-.23-.262-.562-.393-.996-.393-.428 0-.76.136-.996.41-.235.267-.353.65-.353 1.148 0 .503.115.89.345 1.164.236.268.573.401 1.012.401.428 0 .758-.136.988-.41.23-.277.345-.676.345-1.196 0-.492-.115-.867-.345-1.124zM7.44 7.974c0-.675.174-1.012.522-1.012.118 0 .214.03.29.088.08.054.133.137.16.25.032.106.05.203.056.288.01.08.016.182.016.305 0 .364-.043.627-.129.787a.415.415 0 01-.401.241c-.182 0-.313-.072-.394-.216-.08-.15-.12-.394-.12-.731zm5.653 1.453c-.23-.262-.562-.393-.996-.393-.428 0-.76.136-.995.41-.236.267-.354.65-.354 1.147 0 .504.115.892.346 1.165.235.268.572.401 1.011.401.429 0 .758-.136.988-.41.23-.277.345-.676.345-1.196 0-.492-.115-.867-.345-1.124zm-1.526 1.205c0-.675.174-1.012.522-1.012.118 0 .215.03.29.088.08.054.133.137.16.25.032.106.05.203.056.288.011.08.016.182.016.305 0 .364-.043.627-.128.787a.415.415 0 01-.402.241c-.182 0-.313-.072-.393-.217-.08-.15-.12-.393-.12-.73z"/><path d="M10.036 0v-.054V0zM19.8 9.797h-.053.053zM9.977 19.62v-.054.054zm-3.266-.568l.019-.05-.014-.005-.014.003.01.052zm-5.24.921l.008.053-.009-.053zm-.306-.037l.022-.05h-.001l-.02.05zm-.278-.702l.049.022-.05-.022zm1.43-3.324l.048.021.013-.03-.02-.024-.042.033zm9.597-9.647l.047.025.041-.078h-.088v.053zm-3.156 5.999v.053h.032l.015-.028-.047-.025zm2.45-5.999V6.21h-.033l-.015.028.047.025zm-3.165 5.999l-.047-.025-.041.078h.088v-.053zm.924-5.493l-.04.036.04-.036zm-1.992.016l.04.036-.04-.036zm-.008 2.313l-.04.034v.001l.04-.035zm2-.008l.04.034h.001l-.041-.034zm-.715-2.04l-.033.042.002.002h.001l.03-.044zm.16.25l-.051.012v.003l.052-.016zm.057.288l-.053.004v.003l.053-.007zM8.357 8.68l-.048-.025v.001l.048.024zm-.795.024l-.048.026.048-.026zm5.532.723l-.04.035.04-.035zm-1.991.016l.04.036-.04-.036zm-.008 2.313l-.041.034v.001l.04-.035zm2-.008l.04.034-.04-.034zm-.716-2.04l-.032.042.001.002h.002l.03-.044zm.161.25l-.052.012v.002l.052-.015zm.056.288l-.053.003v.004l.053-.007zm-.112 1.092l-.047-.025v.001l.047.024zm-.795.024l-.047.026.047-.026zM10.036-.054h-.032v.107h.032v-.107zm9.818 9.85c.01-5.43-4.387-9.844-9.818-9.85v.107c5.372.006 9.721 4.371 9.71 9.743h.108zm-9.877 9.877c5.447 0 9.877-4.43 9.877-9.876h-.107c0 5.387-4.382 9.77-9.77 9.77v.106zm-3.284-.57a9.496 9.496 0 003.284.57v-.107a9.393 9.393 0 01-3.247-.564l-.037.1zm-5.213.923l5.24-.92L6.703 19l-5.24.92.018.106zm-.336-.041a.597.597 0 00.335.041l-.017-.106a.49.49 0 01-.275-.033l-.043.098zm-.306-.772c-.13.3.011.648.307.772l.041-.099a.48.48 0 01-.25-.63l-.098-.043zm1.429-3.324l-1.43 3.324.1.043 1.428-3.325-.098-.042zM.127 9.823a9.81 9.81 0 002.147 6.12l.084-.066A9.703 9.703 0 01.234 9.823H.127zm9.877-9.877C4.556-.054.127 4.376.127 9.823h.107c0-5.388 4.382-9.77 9.77-9.77v-.107zm1.862 6.292l-3.155 5.999.094.05 3.156-5.999-.095-.05zm-.659.079h.707V6.21h-.707v.107zm-3.116 5.97l3.164-5.999-.095-.05-3.164 5.999.095.05zm.667-.079h-.715v.107h.715v-.107zM7.971 6.43c.422 0 .738.128.956.376l.08-.071c-.243-.277-.59-.412-1.036-.412v.107zm-.955.391c.223-.259.54-.39.955-.39v-.108c-.44 0-.789.141-1.036.428l.08.07zm-.34 1.114c0-.49.115-.859.34-1.113l-.08-.071c-.248.28-.367.678-.367 1.184h.107zm.332 1.13c-.219-.26-.332-.635-.332-1.13h-.107c0 .51.116.912.357 1.198l.082-.069zm.971.382c-.427 0-.748-.13-.971-.383l-.08.07c.247.282.6.42 1.051.42v-.107zm.947-.39c-.218.258-.53.39-.947.39v.107c.44 0 .786-.141 1.029-.429l-.082-.069zm.333-1.163c0 .513-.114.897-.333 1.163l.082.068c.241-.291.358-.704.358-1.23h-.107zm-.332-1.088c.218.244.332.604.332 1.088h.107c0-.5-.117-.89-.36-1.16l-.08.072zm-.964.103a.465.465 0 00-.257.072.535.535 0 00-.182.21c-.093.18-.136.444-.136.784h.107c0-.335.043-.577.124-.735a.428.428 0 01.145-.169.358.358 0 01.199-.055v-.107zm.322.1a.507.507 0 00-.322-.1v.107c.109 0 .193.028.256.077l.066-.084zm.18.279a.447.447 0 00-.183-.281l-.06.089a.34.34 0 01.139.217l.104-.025zm.057.298a1.352 1.352 0 00-.058-.301l-.103.03c.032.105.05.197.055.278l.106-.007zm.017.308c0-.124-.006-.228-.017-.312l-.106.014c.01.077.015.177.015.298h.108zm-.135.813c.092-.173.135-.447.135-.813H8.43c0 .363-.043.614-.122.762l.095.05zm-.449.269a.513.513 0 00.268-.068.479.479 0 00.181-.203l-.095-.048a.373.373 0 01-.14.16.407.407 0 01-.214.052v.107zm-.44-.245c.09.164.241.245.44.245v-.107c-.165 0-.277-.064-.347-.19l-.093.052zm-.127-.756c0 .339.04.594.126.756l.095-.05c-.074-.139-.114-.37-.114-.706h-.107zm4.71 1.113c.423 0 .738.127.956.375l.08-.07c-.242-.277-.59-.412-1.036-.412v.107zm-.955.391c.224-.259.54-.39.955-.39V8.98c-.44 0-.788.141-1.036.428l.081.07zm-.34 1.114c0-.49.116-.859.34-1.113l-.08-.071c-.247.28-.367.678-.367 1.184h.107zm.333 1.13c-.22-.26-.333-.635-.333-1.13h-.107c0 .51.117.912.358 1.198l.082-.069zm.97.382c-.427 0-.748-.13-.971-.384l-.08.071c.248.282.601.42 1.052.42v-.107zm.947-.39c-.218.258-.53.39-.947.39v.107c.441 0 .787-.141 1.03-.429l-.083-.069zm.333-1.163c0 .512-.114.897-.333 1.163l.082.068c.241-.291.358-.704.358-1.23h-.107zm-.332-1.088c.219.244.332.603.332 1.088h.107c0-.5-.117-.89-.359-1.16l-.08.072zm-.963.103a.465.465 0 00-.258.072.535.535 0 00-.182.21c-.092.18-.136.443-.136.784h.107c0-.335.043-.577.125-.735a.427.427 0 01.144-.169.358.358 0 01.2-.055v-.107zm.322.1a.507.507 0 00-.322-.1v.107c.108 0 .192.027.256.077l.066-.084zm.18.279a.447.447 0 00-.184-.281l-.06.089a.34.34 0 01.139.217l.104-.025zm.057.298a1.353 1.353 0 00-.059-.301l-.102.03c.031.105.049.197.054.277l.107-.006zm.016.308a2.44 2.44 0 00-.017-.312l-.106.014c.01.077.016.177.016.298h.107zm-.135.813c.092-.173.135-.447.135-.813h-.107c0 .363-.043.614-.122.762l.094.05zm-.449.269a.513.513 0 00.269-.068.478.478 0 00.18-.203l-.095-.048a.373.373 0 01-.14.16.407.407 0 01-.214.052v.107zm-.44-.245c.091.164.241.245.44.245v-.107c-.165 0-.277-.064-.346-.19l-.094.052zm-.127-.756c0 .339.04.594.127.756l.094-.05c-.074-.139-.114-.37-.114-.706h-.107z"/></g><path d="M24.272 17.444c1.744-3.678-.02-8.114-3.847-9.568a.093.093 0 00-.124.105c1.081 5.197-2.107 10.18-6.96 11.603a.093.093 0 00-.033.159 7.03 7.03 0 007.394 1.15l3.57.574c.747.14.815-.16.646-.884l-.646-3.14z"/></g><defs><clipPath id="clip0"><path d="M0 0h25v21.52H0z"/></clipPath></defs></svg>