<svg width="25" height="25" viewBox="0 0 25 25" fill="none" xmlns="http://www.w3.org/2000/svg">
<g clip-path="url(#clip0)">
<path d="M22.4974 21.4436C26.1833 17.1921 25.731 10.7807 21.5724 7.05963C23.7084 14.5447 18.0602 22.0215 10.2783 22.0215C10.1285 22.0215 11.0326 22.0268 7.47144 22.0048C9.41914 23.9435 12.0133 25.0001 14.7214 25.0001C14.7285 25.0001 24.2647 24.9513 24.2703 24.9512C24.9213 24.9481 25.2457 24.1558 24.7812 23.6975L22.4974 21.4436Z"/>
<path d="M10.2781 20.5566C15.9453 20.5566 20.5559 15.9458 20.5559 10.2783C20.5559 4.61084 15.9453 0 10.2781 0C4.61085 0 0.000351436 4.61084 0.000351436 10.2783C0.000351436 12.7734 0.883555 15.1332 2.50216 17.0001L0.218271 19.2541C-0.244619 19.7109 0.076035 20.5046 0.729258 20.5078C0.734287 20.5079 10.2731 20.5566 10.2781 20.5566V20.5566ZM5.90821 6.64062H14.6968C15.1013 6.64062 15.4292 6.96855 15.4292 7.37305C15.4292 7.77754 15.1013 8.10547 14.6968 8.10547H5.90821C5.50372 8.10547 5.17584 7.77754 5.17584 7.37305C5.17584 6.96855 5.50377 6.64062 5.90821 6.64062ZM5.90821 9.57031H14.6968C15.1013 9.57031 15.4292 9.89824 15.4292 10.3027C15.4292 10.7072 15.1013 11.0352 14.6968 11.0352H5.90821C5.50372 11.0352 5.17584 10.7072 5.17584 10.3027C5.17584 9.89824 5.50377 9.57031 5.90821 9.57031ZM5.17584 13.2324C5.17584 12.8279 5.50372 12.5 5.90821 12.5H14.6968C15.1013 12.5 15.4292 12.8279 15.4292 13.2324C15.4292 13.6369 15.1013 13.9648 14.6968 13.9648H5.90821C5.50377 13.9648 5.17584 13.6369 5.17584 13.2324Z"/>
</g>
<defs>
<clipPath id="clip0">
<rect width="25" height="25" fill="white"/>
</clipPath>
</defs>
</svg>
