<svg width="15" height="15" viewBox="0 0 15 15" fill="none" xmlns="http://www.w3.org/2000/svg">
<path d="M11.0156 3.51562C10.5302 3.51562 10.1367 3.12214 10.1367 2.63672V0.878906C10.1367 0.393486 10.5302 0 11.0156 0C11.501 0 11.8945 0.393486 11.8945 0.878906V2.63672C11.8945 3.12214 11.501 3.51562 11.0156 3.51562Z"/>
<path d="M13.3887 1.75781H12.7734V2.63672C12.7734 3.60598 11.9849 4.39453 11.0156 4.39453C10.0464 4.39453 9.25781 3.60598 9.25781 2.63672V1.75781H5.74219V2.63672C5.74219 3.60598 4.95363 4.39453 3.98438 4.39453C3.01512 4.39453 2.22656 3.60598 2.22656 2.63672V1.75781H1.61133C0.722842 1.75781 0 2.48065 0 3.36914V5.33203H15V3.36914C15 2.48065 14.2772 1.75781 13.3887 1.75781Z"/>
<path d="M3.98438 3.51562C3.49896 3.51562 3.10547 3.12214 3.10547 2.63672V0.878906C3.10547 0.393486 3.49896 0 3.98438 0C4.46979 0 4.86328 0.393486 4.86328 0.878906V2.63672C4.86328 3.12214 4.46979 3.51562 3.98438 3.51562Z"/>
<path d="M0 6.21094V13.3887C0 14.2772 0.722842 15 1.61133 15H13.3887C14.2772 15 15 14.2772 15 13.3887V6.21094H0ZM7.96184 11.9238C7.96184 12.8931 7.17328 13.6816 6.20402 13.6816C5.33191 13.6816 4.58353 13.0311 4.46312 12.1685C4.45189 12.088 4.44621 12.0057 4.44621 11.9238C4.44621 11.6811 4.64297 11.4844 4.88566 11.4844C5.12836 11.4844 5.32512 11.6811 5.32512 11.9238C5.32512 11.9652 5.32799 12.0066 5.33361 12.047C5.3937 12.4778 5.76791 12.8027 6.20402 12.8027C6.68865 12.8027 7.08293 12.4085 7.08293 11.9238C7.08293 11.4392 6.68865 11.0449 6.20402 11.0449C5.96133 11.0449 5.76457 10.8482 5.76457 10.6055C5.76457 10.3628 5.96133 10.166 6.20402 10.166C6.68865 10.166 7.08293 9.77174 7.08293 9.28711C7.08293 8.80248 6.68865 8.4082 6.20402 8.4082C5.7849 8.4082 5.42221 8.70601 5.34161 9.11628C5.2948 9.35443 5.06361 9.50953 4.82572 9.4628C4.58757 9.41602 4.43241 9.18504 4.4792 8.94688C4.64051 8.12549 5.3659 7.5293 6.20402 7.5293C7.17328 7.5293 7.96184 8.31785 7.96184 9.28711C7.96184 9.81176 7.73051 10.2831 7.36485 10.6055C7.73051 10.9278 7.96184 11.3992 7.96184 11.9238ZM10.5538 13.2422C10.5538 13.4849 10.357 13.6816 10.1143 13.6816C9.87164 13.6816 9.67488 13.4849 9.67488 13.2422V8.4082H8.9872C8.7445 8.4082 8.54774 8.21145 8.54774 7.96875C8.54774 7.72605 8.7445 7.5293 8.9872 7.5293H10.1143C10.357 7.5293 10.5538 7.72605 10.5538 7.96875V13.2422Z"/>
</svg>
