<svg width="25" height="25" fill="none" xmlns="http://www.w3.org/2000/svg"><path d="M6.64 19.14a2.197 2.197 0 100-4.394 2.197 2.197 0 000 4.395zM12.5 20.605a2.197 2.197 0 100-4.394 2.197 2.197 0 000 4.395zM18.36 19.14a2.197 2.197 0 100-4.394 2.197 2.197 0 000 4.395z"/><path d="M12.5 20.605a3.666 3.666 0 00-3.662 3.663c0 .404.327.732.732.732h5.86a.732.732 0 00.732-.732 3.666 3.666 0 00-3.662-3.663zM21.29 0H3.71a.732.732 0 00-.731.732V9.62c0 .405.327.733.732.733h2.197v2.197a.731.731 0 001.25.518l2.716-2.715h5.252l2.716 2.715a.732.732 0 001.25-.518v-2.197h2.197a.732.732 0 00.732-.733V.732A.732.732 0 0021.29 0zM8.104 5.908a.732.732 0 110-1.465.732.732 0 010 1.465zm4.395 0a.732.732 0 110-1.465.732.732 0 010 1.465zm4.395 0a.732.732 0 110-1.465.732.732 0 010 1.465zM18.36 19.14a3.643 3.643 0 00-2.657 1.157 5.094 5.094 0 011.85 3.238h3.736a.732.732 0 00.733-.732 3.666 3.666 0 00-3.662-3.662zM6.64 19.14a3.666 3.666 0 00-3.661 3.663c0 .405.327.732.732.732h3.736a5.094 5.094 0 011.85-3.238 3.643 3.643 0 00-2.656-1.156z"/></svg>