<svg width="33" height="35" viewBox="0 0 33 35" fill="none" xmlns="http://www.w3.org/2000/svg">
<path d="M31.8929 13.9595L30.8967 12.2601C30.6379 11.7858 30.0203 11.6277 29.5421 11.8846L27.8487 12.8727C27.2909 12.3984 26.6733 12.0428 25.9761 11.7858V10.4421C25.9761 9.88878 25.5378 9.4541 24.98 9.4541H22.9878C22.4299 9.4541 21.9917 9.88878 21.9917 10.4421V11.7859C21.2945 12.0428 20.6769 12.3985 20.119 12.8727L17.8877 11.608L15.8955 15.0464L18.1268 16.2717C18.0472 16.6274 18.0072 16.9831 18.0072 17.3586C18.0072 17.734 18.0472 18.0897 18.1069 18.4454L15.8955 19.6706L17.8877 23.109L20.119 21.8443C20.6769 22.3187 21.2945 22.6743 21.9917 22.9312V24.2748C21.9917 24.828 22.4299 25.2628 22.9878 25.2628H24.98C25.5378 25.2628 25.9761 24.828 25.9761 24.2748V22.931C26.6733 22.6741 27.2909 22.3184 27.8487 21.8441L29.5421 22.8322C30.0203 23.0891 30.6378 22.931 30.8967 22.4567L31.8929 20.7573C32.1718 20.283 32.0125 19.6704 31.5343 19.3938L29.8609 18.4453C29.9206 18.0896 29.9605 17.7339 29.9605 17.3585C29.9605 16.983 29.9206 16.6273 29.8409 16.2716L31.5343 15.323C32.0125 15.0464 32.1718 14.4338 31.8929 13.9595ZM27.6694 16.0739L23.685 20.0261C23.5057 20.2238 23.2467 20.3226 22.9878 20.3226C22.7288 20.3226 22.4698 20.2238 22.2906 20.0261L20.2983 18.05C19.8999 17.6746 19.8999 17.0422 20.2983 16.6668C20.6769 16.2716 21.3142 16.2716 21.6928 16.6668L22.9878 17.9315L26.275 14.6907C26.6536 14.2955 27.2909 14.2955 27.6695 14.6907C28.0679 15.0661 28.0679 15.6985 27.6694 16.0739Z" fill="#2564D3"/>
<path d="M14.0946 20.5277L11.9111 21.7653C11.3532 21.291 10.7356 20.9354 10.0384 20.6784V18.3467H6.05404V20.6785C5.35683 20.9354 4.73925 21.2911 4.18137 21.7653L2.48806 20.7773C2.0098 20.5204 1.39229 20.6785 1.13337 21.1527L0.13727 22.8522C-0.141638 23.3264 0.0176052 23.939 0.495866 24.2157L2.18917 25.1642C2.10955 25.5199 2.06964 25.8756 2.06964 26.2511C2.06964 26.6265 2.10955 26.9822 2.16925 27.3379L0.495866 28.2864C0.0176052 28.563 -0.141638 29.1756 0.13727 29.6499L1.13337 31.3493C1.39222 31.8237 2.0098 31.9817 2.48806 31.7248L4.18137 30.7367C4.73925 31.2111 5.35683 31.5668 6.05404 31.8237V33.1674C6.05404 33.7206 6.49225 34.2213 7.05013 34.2213H9.04233C9.60022 34.2213 10.0384 33.7206 10.0384 33.1674V31.8237C10.7356 31.5668 11.3532 31.2111 11.9111 30.7367L13.6044 31.7248C14.0827 31.9817 14.7002 31.8237 14.9591 31.3493L15.9552 29.6499C16.2341 29.1756 16.0749 28.563 15.5966 28.2864L13.9232 27.3379C13.9829 26.9822 14.0228 26.6265 14.0228 26.2511C14.0228 25.8756 13.9829 25.5199 13.9033 25.1642L16.0859 23.9657L14.0946 20.5277ZM11.7388 24.9735L7.75438 28.9257C7.55981 29.1187 7.30494 29.2152 7.05013 29.2152C6.79533 29.2152 6.5404 29.1187 6.34589 28.9257L4.35369 26.9496C3.96462 26.5637 3.96462 25.9384 4.35369 25.5524C4.74277 25.1665 5.37317 25.1665 5.76224 25.5524L7.05013 26.83L10.3303 23.5764C10.7194 23.1904 11.3498 23.1904 11.7388 23.5764C12.1279 23.9623 12.1279 24.5876 11.7388 24.9735Z" fill="#2564D3"/>
<path d="M10.0384 16.3706V14.0388C10.7356 13.7819 11.3532 13.4262 11.9111 12.9519L14.0947 14.1896L16.086 10.7514L13.9232 9.55313C13.9829 9.19743 14.0228 8.84174 14.0228 8.46628C14.0228 8.09083 13.9829 7.73514 13.9033 7.37944L15.5966 6.43086C16.0749 6.1542 16.2341 5.54162 15.9552 5.06736L14.9591 3.36793C14.7002 2.89367 14.0827 2.73559 13.6044 2.99248L11.9111 3.98052C11.3532 3.50626 10.7356 3.15063 10.0384 2.89367V1.48413C10.0384 0.930766 9.60022 0.496094 9.04233 0.496094H7.05013C6.49225 0.496094 6.05404 0.930766 6.05404 1.48413V2.89374C5.35683 3.15063 4.73925 3.50632 4.18137 3.98058L2.48806 2.99254C2.0098 2.73565 1.39229 2.89374 1.13337 3.368L0.13727 5.06743C-0.141638 5.54169 0.0176052 6.15427 0.495866 6.43092L2.18917 7.37944C2.10955 7.73514 2.06964 8.09083 2.06964 8.46628C2.06964 8.84174 2.10955 9.19743 2.16925 9.55313L0.495866 10.5016C0.0176052 10.7782 -0.141638 11.3908 0.13727 11.8651L1.13337 13.5645C1.39222 14.0389 2.0098 14.1969 2.48806 13.94L4.18137 12.9519C4.73925 13.4262 5.35683 13.7819 6.05404 14.0388V16.3706H10.0384ZM4.36073 9.15785C3.96229 8.78239 3.96229 8.15005 4.36073 7.77459C4.73925 7.37944 5.37662 7.37944 5.75521 7.77459L7.0502 9.03928L10.3374 5.79851C10.7159 5.40336 11.3533 5.40336 11.7319 5.79851C12.1303 6.17397 12.1303 6.80631 11.7319 7.18177L7.74747 11.1339C7.56811 11.3316 7.30912 11.4304 7.05013 11.4304C6.79115 11.4304 6.53216 11.3316 6.35293 11.1339L4.36073 9.15785Z" fill="#2564D3"/>
</svg>
