<svg width="22" height="27" viewBox="0 0 22 27" fill="none" xmlns="http://www.w3.org/2000/svg">
<path d="M20.9732 11.5714H12.5357C11.7685 11.5714 11.0327 11.2666 10.4902 10.7241C9.94764 10.1816 9.64286 9.4458 9.64286 8.67857V0.241071C9.64286 0.177135 9.61746 0.115818 9.57225 0.0706082C9.52704 0.0253986 9.46572 0 9.40179 0H3.85714C2.83417 0 1.85309 0.406376 1.12973 1.12973C0.406376 1.85309 0 2.83417 0 3.85714V23.1429C0 24.1658 0.406376 25.1469 1.12973 25.8703C1.85309 26.5936 2.83417 27 3.85714 27H17.3571C18.3801 27 19.3612 26.5936 20.0846 25.8703C20.8079 25.1469 21.2143 24.1658 21.2143 23.1429V11.8125C21.2143 11.7486 21.1889 11.6872 21.1437 11.642C21.0985 11.5968 21.0372 11.5714 20.9732 11.5714ZM15.4286 21.2143H5.78571C5.52997 21.2143 5.2847 21.1127 5.10386 20.9319C4.92302 20.751 4.82143 20.5057 4.82143 20.25C4.82143 19.9943 4.92302 19.749 5.10386 19.5681C5.2847 19.3873 5.52997 19.2857 5.78571 19.2857H15.4286C15.6843 19.2857 15.9296 19.3873 16.1104 19.5681C16.2913 19.749 16.3929 19.9943 16.3929 20.25C16.3929 20.5057 16.2913 20.751 16.1104 20.9319C15.9296 21.1127 15.6843 21.2143 15.4286 21.2143ZM15.4286 16.3929H5.78571C5.52997 16.3929 5.2847 16.2913 5.10386 16.1104C4.92302 15.9296 4.82143 15.6843 4.82143 15.4286C4.82143 15.1728 4.92302 14.9276 5.10386 14.7467C5.2847 14.5659 5.52997 14.4643 5.78571 14.4643H15.4286C15.6843 14.4643 15.9296 14.5659 16.1104 14.7467C16.2913 14.9276 16.3929 15.1728 16.3929 15.4286C16.3929 15.6843 16.2913 15.9296 16.1104 16.1104C15.9296 16.2913 15.6843 16.3929 15.4286 16.3929Z"/>
<path d="M20.4429 9.43655L11.7758 0.769427C11.759 0.752672 11.7375 0.741273 11.7142 0.736664C11.6909 0.732054 11.6668 0.734441 11.6448 0.743522C11.6228 0.752603 11.604 0.767975 11.5908 0.787704C11.5775 0.807433 11.5704 0.830639 11.5703 0.854405V8.67778C11.5703 8.93352 11.6719 9.17879 11.8527 9.35963C12.0336 9.54047 12.2789 9.64206 12.5346 9.64206H20.358C20.3817 9.64196 20.4049 9.63484 20.4247 9.62159C20.4444 9.60834 20.4598 9.58955 20.4689 9.56758C20.4779 9.54562 20.4803 9.52146 20.4757 9.49815C20.4711 9.47483 20.4597 9.4534 20.4429 9.43655Z"/>
</svg>
