<svg width="13" height="17" viewBox="0 0 13 17" fill="none" xmlns="http://www.w3.org/2000/svg">
<path d="M6.11087 11.7089C5.90575 11.914 5.90575 12.2513 6.11087 12.4564C6.31598 12.6615 6.6532 12.6615 6.85831 12.4564C7.06342 12.2513 7.06342 11.914 6.85831 11.7089C6.6532 11.5003 6.31598 11.5003 6.11087 11.7089Z"/>
<path d="M3.49503 9.55691C3.28992 9.3518 2.9527 9.3518 2.74758 9.55691C2.54247 9.76202 2.54247 10.0992 2.74758 10.3044C2.9527 10.5095 3.28992 10.5095 3.49503 10.3044C3.70014 10.0992 3.70014 9.7655 3.49503 9.55691Z"/>
<path d="M11.9243 1.07771C11.7609 0.681391 11.2603 0.0139059 9.73763 0C9.72024 0 9.70634 0 9.68896 0C8.75378 0 7.64131 0.24683 6.54622 0.698773C6.34458 0.782209 6.1499 0.869121 5.96217 0.962986L5.95174 0.952556C5.32597 0.344172 4.32822 0.344172 3.70245 0.952556L0.636196 3.9319C0.229448 4.32474 0 4.86708 0 5.43374V15.526C0 16.3395 0.660532 17 1.47403 17H8.18364C8.99714 17 9.65767 16.3395 9.65767 15.526V5.43374C9.65767 5.14519 9.59857 4.86012 9.48384 4.60286C10.1339 4.23783 10.7006 3.82065 11.1352 3.38262C12.199 2.30143 12.0877 1.47403 11.9243 1.07771ZM1.84254 9.93231C1.84254 9.23006 2.41616 8.65644 3.1184 8.65644C3.82065 8.65644 4.39427 9.23006 4.39427 9.93231C4.39427 10.6346 3.82065 11.2082 3.1184 11.2082C2.41616 11.2082 1.84601 10.638 1.84254 9.93231ZM2.9272 13.2697C2.79509 13.1585 2.77771 12.9638 2.88548 12.8317L6.23681 8.7955C6.34806 8.66339 6.54274 8.64601 6.67485 8.75378C6.80695 8.86503 6.82433 9.05971 6.71656 9.19182L3.36523 13.228C3.25399 13.3601 3.0593 13.3775 2.9272 13.2697ZM6.48712 13.3601C5.78487 13.3601 5.21125 12.7865 5.21125 12.0843C5.21125 11.382 5.78487 10.8084 6.48712 10.8084C7.18936 10.8084 7.76298 11.382 7.76298 12.0843C7.76298 12.7865 7.18936 13.3601 6.48712 13.3601ZM7.90204 3.98753C7.26237 4.25174 6.60532 4.43947 6.00736 4.52986C6.00736 4.55767 6.01084 4.582 6.01084 4.60982C6.01084 5.28425 5.46503 5.83006 4.79059 5.83006C4.11616 5.83006 3.57035 5.28425 3.57035 4.60982C3.57035 3.93538 4.11616 3.38957 4.79059 3.38957C5.19386 3.38957 5.54847 3.58425 5.77096 3.88323C6.33763 3.78589 6.94949 3.60859 7.55092 3.36176C7.76298 3.27485 7.96114 3.18446 8.14887 3.09059L6.9182 1.89121C6.95296 1.8773 6.98773 1.86339 7.02249 1.84601C7.95767 1.46012 8.92761 1.2411 9.69243 1.2411C9.70286 1.2411 9.71677 1.2411 9.7272 1.2411C10.4607 1.24806 10.7354 1.44622 10.7771 1.55051C10.9057 1.87035 10.0888 3.08712 7.90204 3.98753Z"/>
</svg>
