<svg width="38" height="38" viewBox="0 0 38 38" fill="none" xmlns="http://www.w3.org/2000/svg">
<path d="M5.88311 13.3154H1.11328C0.498455 13.3154 0 13.8099 0 14.4197V26.2479C0 26.8577 0.498455 27.3522 1.11328 27.3522H5.88311C6.49794 27.3522 6.9964 26.8577 6.9964 26.2479V14.4197C6.9964 13.8099 6.49794 13.3154 5.88311 13.3154Z" fill="#2564D3"/>
<path d="M26.7509 26.0911C27.3657 26.0911 27.8642 25.5966 27.8642 24.9868V22.5427H27.9433C28.5581 22.5427 29.0566 22.0483 29.0566 21.4384C29.0566 20.8286 28.5581 20.3341 27.9433 20.3341H27.8642V14.3416C27.8642 13.8951 27.593 13.4924 27.177 13.3214C26.7611 13.1505 26.2823 13.2449 25.9638 13.5607C25.9637 13.5607 22.4879 17.0073 20.8399 18.6407C20.0998 19.3789 19.6753 20.3986 19.6753 21.4384C19.6753 22.0483 20.1737 22.5427 20.7886 22.5427H25.6376V24.9868C25.6376 25.5966 26.136 26.0911 26.7509 26.0911ZM22.2956 20.3341C22.3334 20.2876 22.3737 20.243 22.4162 20.2005C23.2501 19.374 24.5542 18.0811 25.6375 17.0069V20.3341H22.2956Z" fill="#2564D3"/>
<path d="M17.7283 24.9868C17.7283 24.3769 17.2299 23.8825 16.615 23.8825H12.1599C12.1976 23.836 12.2379 23.7913 12.2804 23.7489C13.9261 22.1177 17.4021 18.6709 17.4021 18.6709C17.611 18.4638 17.7284 18.1829 17.7284 17.89V17.2986C17.7284 15.0592 15.8917 13.2373 13.634 13.2373C11.3549 13.2373 9.53955 15.0685 9.53955 17.2974V17.2985C9.53955 17.9084 10.038 18.4022 10.6528 18.4022C11.2677 18.4022 11.7661 17.9072 11.7661 17.2974C11.7661 16.2843 12.5885 15.4459 13.634 15.4459C14.664 15.4459 15.5018 16.277 15.5018 17.2986V17.4324C14.5991 18.3276 12.0459 20.8592 10.7041 22.1891C9.96394 22.9273 9.53955 23.9471 9.53955 24.9868C9.53955 25.5966 10.038 26.0911 10.6528 26.0911H16.6151C17.2299 26.0911 17.7283 25.5966 17.7283 24.9868Z" fill="#2564D3"/>
<path d="M18.9999 2.51327C24.5876 2.51327 29.2957 6.31998 30.6271 11.4562C31.0759 11.2333 31.5817 11.1071 32.1169 11.1071H32.8334C31.3266 4.91709 25.6965 0.304688 18.9999 0.304688C12.3033 0.304688 6.67323 4.91709 5.1665 11.1071H5.88294C6.41813 11.1071 6.92386 11.2333 7.37274 11.4562C8.70408 6.31998 13.4122 2.51327 18.9999 2.51327Z" fill="#2564D3"/>
<path d="M30.4099 29.0938C29.297 31.6386 26.7398 33.4233 23.7699 33.4233H22.3157C21.8495 32.05 20.5399 31.0577 19.0002 31.0577C17.0713 31.0577 15.502 32.6143 15.502 34.5276C15.502 36.4409 17.0712 37.9976 19.0001 37.9976C20.5398 37.9976 21.8494 37.0053 22.3156 35.6319H23.7699C27.8112 35.6319 31.2681 33.1051 32.6209 29.5607H32.117C31.4936 29.5607 30.9098 29.3899 30.4099 29.0938Z" fill="#2564D3"/>
<path d="M36.887 13.3154H32.1172C31.5024 13.3154 31.0039 13.8099 31.0039 14.4197V26.2479C31.0039 26.8577 31.5024 27.3522 32.1172 27.3522H36.887C37.5019 27.3522 38.0003 26.8577 38.0003 26.2479V14.4197C38.0003 13.8099 37.5019 13.3154 36.887 13.3154Z" fill="#2564D3"/>
</svg>
