<svg width="24" height="24" viewBox="0 0 24 24" fill="none" xmlns="http://www.w3.org/2000/svg">
<path d="M21.1429 11.4286H19.4286V6.85714C19.4286 5.6 18.4 4.57143 17.1429 4.57143H12.5714V2.85714C12.5714 1.25714 11.3143 0 9.71429 0C8.11429 0 6.85714 1.25714 6.85714 2.85714V4.57143H2.28571C1.02857 4.57143 0 5.6 0 6.85714V11.2H1.71429C3.42857 11.2 4.8 12.5714 4.8 14.2857C4.8 16 3.42857 17.3714 1.71429 17.3714H0V21.7143C0 22.9714 1.02857 24 2.28571 24H6.62857V22.2857C6.62857 20.5714 8 19.2 9.71429 19.2C11.4286 19.2 12.8 20.5714 12.8 22.2857V24H17.1429C18.4 24 19.4286 22.9714 19.4286 21.7143V17.1429H21.1429C22.7429 17.1429 24 15.8857 24 14.2857C24 12.6857 22.7429 11.4286 21.1429 11.4286Z"/>
</svg>
