<svg width="30" height="27" viewBox="0 0 30 27" fill="none" xmlns="http://www.w3.org/2000/svg">
<path d="M9.72653 17.9401H25.6056C25.9988 17.9401 26.3438 17.6822 26.4502 17.3076L29.966 5.10218C30.0416 4.83905 29.9898 4.5564 29.8234 4.33777C29.6568 4.11982 29.3977 3.99109 29.1212 3.99109H7.6975L7.06922 1.18681C6.97996 0.787467 6.62291 0.503906 6.21092 0.503906H0.878904C0.393218 0.503906 0 0.893944 0 1.3757C0 1.85769 0.393218 2.2475 0.878904 2.2475H5.50551L8.6794 16.4142C7.74557 16.8169 7.08982 17.7389 7.08982 18.8119C7.08982 20.254 8.27268 21.4272 9.72653 21.4272H25.6056C26.0915 21.4272 26.4845 21.0374 26.4845 20.5555C26.4845 20.0737 26.0915 19.6837 25.6056 19.6837H9.72653C9.24245 19.6837 8.84763 19.2929 8.84763 18.8119C8.84763 18.3308 9.24245 17.9401 9.72653 17.9401Z" fill="#2564D3"/>
<path d="M8.84814 24.0422C8.84814 25.4845 10.031 26.6576 11.4851 26.6576C12.9389 26.6576 14.1218 25.4845 14.1218 24.0422C14.1218 22.6001 12.9389 21.4268 11.4851 21.4268C10.031 21.4268 8.84814 22.6001 8.84814 24.0422Z" fill="#2564D3"/>
<path d="M21.21 24.0422C21.21 25.4845 22.3928 26.6576 23.8467 26.6576C25.3008 26.6576 26.4834 25.4845 26.4834 24.0422C26.4834 22.6001 25.3008 21.4268 23.8467 21.4268C22.3928 21.4268 21.21 22.6001 21.21 24.0422Z" fill="#2564D3"/>
</svg>
