<svg width="41" height="40" viewBox="0 0 41 40" fill="none" xmlns="http://www.w3.org/2000/svg">
<path fill-rule="evenodd" clip-rule="evenodd" d="M32.493 11.8416C32.6157 11.803 32.777 11.8801 32.9384 12.0922C32.9384 12.0922 32.9384 12.0922 40.2314 19.199C40.6574 19.6231 40.6574 20.2657 40.2314 20.5805C40.2314 20.5805 40.2314 20.5805 32.9384 27.7966C32.777 28.0087 32.6157 28.0601 32.493 27.9958C32.3704 27.9315 32.293 27.7452 32.293 27.4753V12.3042C32.293 12.0408 32.3704 11.8801 32.493 11.8416Z"/>
<path fill-rule="evenodd" clip-rule="evenodd" d="M20.016 0H20.5323L21.0293 0.205623C21.0293 0.205623 21.0293 0.205623 28.5353 7.63373C28.858 8.05783 28.7483 8.37912 28.2126 8.37912C28.2126 8.37912 28.2126 8.37912 25.1018 8.37912C24.5661 8.37912 24.1401 8.80321 24.1401 9.33655C24.1401 9.33655 24.1401 9.33654 24.1401 14.8498C24.1401 15.3831 23.7077 15.8072 23.0623 15.8072C23.0623 15.8072 23.0623 15.8072 17.5957 15.8072C17.06 15.8072 16.6276 15.3831 16.6276 14.8498C16.6276 14.8498 16.6276 14.8498 16.6276 9.33655C16.6276 8.80321 16.2016 8.37912 15.6595 8.37912H12.3357C11.8 8.37912 11.6903 8.05783 12.013 7.63373C12.013 7.63373 12.013 7.63374 19.5255 0.205623L20.016 0Z"/>
<path fill-rule="evenodd" clip-rule="evenodd" d="M8.25793 11.6821C8.39347 11.7464 8.47737 11.9327 8.47737 12.2026V27.6886C8.47737 27.9584 8.39347 28.1191 8.25793 28.1705C8.12885 28.2219 7.94168 28.1705 7.72225 28.0098C7.72225 28.0098 7.72225 28.0098 0.319474 20.5817C-0.106491 20.2669 -0.106491 19.6243 0.319474 19.2002C0.319474 19.2002 0.319475 19.2002 7.72225 11.8813C7.94168 11.6693 8.12885 11.6179 8.25793 11.6821Z"/>
<path fill-rule="evenodd" clip-rule="evenodd" d="M17.5985 23.8711C17.5985 23.8711 17.5985 23.8711 23.065 23.8711C23.7104 23.8711 24.1429 24.2952 24.1429 24.8285C24.1429 24.8285 24.1429 24.8285 24.1429 30.6631C24.1429 31.2992 24.5688 31.7233 25.1045 31.7233H28.0024C28.538 31.7233 28.751 32.0382 28.3251 32.3594C28.3251 32.3594 28.3251 32.3594 21.032 39.6783C20.8126 39.8904 20.548 39.9996 20.2769 39.9996C20.0123 39.9996 19.7412 39.8904 19.5282 39.6783C19.5282 39.6783 19.5282 39.6783 12.2352 32.3594C11.8028 32.0382 12.0157 31.7233 12.5514 31.7233C12.5514 31.7233 12.5514 31.7233 15.6623 31.7233C16.2044 31.7233 16.6304 31.2992 16.6304 30.6631C16.6304 30.6631 16.6304 30.6631 16.6304 24.8285C16.6304 24.2952 17.0628 23.8711 17.5985 23.8711Z"/>
</svg>
