<svg width="19" height="13" viewBox="0 0 19 13" fill="none" xmlns="http://www.w3.org/2000/svg">
<path d="M3.95351 5.06328C5.3517 5.06328 6.48515 3.92983 6.48515 2.53164C6.48515 1.13345 5.3517 0 3.95351 0C2.55533 0 1.42188 1.13345 1.42188 2.53164C1.42188 3.92983 2.55533 5.06328 3.95351 5.06328Z"/>
<path d="M4.64499 6.06363C3.37265 5.95751 2.26673 6.06486 1.31283 6.85222C-0.283473 8.13085 0.0237284 9.85245 0.0237284 11.9586C0.0237284 12.5158 0.477096 12.9776 1.04279 12.9776C7.18513 12.9776 7.42959 13.1758 7.79383 12.3692C7.91328 12.0964 7.88054 12.1831 7.88054 9.57359C7.88054 7.50096 6.0859 6.06363 4.64499 6.06363Z"/>
<path fill-rule="evenodd" clip-rule="evenodd" d="M10.3984 7.36648C10.3984 5.21178 12.1417 3.46655 14.2964 3.46655C16.4511 3.46655 18.1983 5.21178 18.1983 7.36648C18.1983 9.52118 16.4511 11.2664 14.2964 11.2664C12.1417 11.2664 10.3984 9.52118 10.3984 7.36648ZM14.5133 5.19971V7.47466L16.4632 8.63164L16.1361 9.16463L13.8633 7.79966V5.19971H14.5133Z"/>
</svg>
