<svg width="30" height="30" viewBox="0 0 30 30" fill="none" xmlns="http://www.w3.org/2000/svg">
<path d="M14.9987 9.22168C13.4658 9.22168 11.9956 9.83064 10.9117 10.9146C9.82771 11.9986 9.21875 13.4687 9.21875 15.0017C9.21875 16.5346 9.82771 18.0048 10.9117 19.0888C11.9956 20.1727 13.4658 20.7817 14.9987 20.7817C16.5317 20.7817 18.0019 20.1727 19.0858 19.0888C20.1698 18.0048 20.7787 16.5346 20.7787 15.0017C20.7787 13.4687 20.1698 11.9986 19.0858 10.9146C18.0019 9.83064 16.5317 9.22168 14.9987 9.22168ZM14.9987 18.7554C14.0029 18.7554 13.0478 18.3598 12.3436 17.6556C11.6394 16.9514 11.2437 15.9963 11.2437 15.0004C11.2437 14.0045 11.6394 13.0494 12.3436 12.3452C13.0478 11.641 14.0029 11.2454 14.9987 11.2454C15.9946 11.2454 16.9497 11.641 17.6539 12.3452C18.3581 13.0494 18.7537 14.0045 18.7537 15.0004C18.7537 15.9963 18.3581 16.9514 17.6539 17.6556C16.9497 18.3598 15.9946 18.7554 14.9987 18.7554Z"/>
<path d="M21.0077 10.3561C21.7519 10.3561 22.3552 9.75284 22.3552 9.00863C22.3552 8.26443 21.7519 7.66113 21.0077 7.66113C20.2635 7.66113 19.6602 8.26443 19.6602 9.00863C19.6602 9.75284 20.2635 10.3561 21.0077 10.3561Z"/>
<path d="M25.6667 7.63836C25.3773 6.89109 24.9351 6.21246 24.3683 5.64593C23.8016 5.0794 23.1228 4.63745 22.3754 4.34836C21.5008 4.02006 20.5769 3.84254 19.6429 3.82336C18.4392 3.77086 18.0579 3.75586 15.0054 3.75586C11.9529 3.75586 11.5617 3.75586 10.3679 3.82336C9.43467 3.84156 8.51138 4.01911 7.63793 4.34836C6.89035 4.63711 6.21139 5.07895 5.6446 5.64552C5.07781 6.21209 4.63572 6.89089 4.34668 7.63836C4.01831 8.51288 3.8412 9.43691 3.82293 10.3709C3.76918 11.5734 3.75293 11.9546 3.75293 15.0084C3.75293 18.0609 3.75293 18.4496 3.82293 19.6459C3.84168 20.5809 4.01793 21.5034 4.34668 22.3796C4.63653 23.1268 5.07905 23.8053 5.64597 24.3718C6.2129 24.9383 6.89176 25.3803 7.63918 25.6696C8.51097 26.0111 9.43464 26.2013 10.3704 26.2321C11.5742 26.2846 11.9554 26.3009 15.0079 26.3009C18.0604 26.3009 18.4517 26.3009 19.6454 26.2321C20.5793 26.2131 21.5032 26.036 22.3779 25.7084C23.1251 25.4186 23.8037 24.9763 24.3704 24.4096C24.9371 23.8429 25.3794 23.1643 25.6692 22.4171C25.9979 21.5421 26.1742 20.6196 26.1929 19.6846C26.2467 18.4821 26.2629 18.1009 26.2629 15.0471C26.2629 11.9934 26.2629 11.6059 26.1929 10.4096C26.1784 9.46245 26.0003 8.52492 25.6667 7.63836ZM24.1442 19.5534C24.1361 20.2737 24.0046 20.9874 23.7554 21.6634C23.5677 22.1494 23.2803 22.5909 22.9118 22.9592C22.5432 23.3276 22.1016 23.6147 21.6154 23.8021C20.947 24.0502 20.2409 24.1817 19.5279 24.1909C18.3404 24.2459 18.0054 24.2596 14.9604 24.2596C11.9129 24.2596 11.6017 24.2596 10.3917 24.1909C9.67909 24.1821 8.97334 24.0506 8.30543 23.8021C7.81754 23.6158 7.37418 23.3292 7.00404 22.9608C6.6339 22.5924 6.34522 22.1504 6.15668 21.6634C5.91099 20.9947 5.77957 20.2894 5.76793 19.5771C5.71418 18.3896 5.70168 18.0546 5.70168 15.0096C5.70168 11.9634 5.70168 11.6521 5.76793 10.4409C5.77601 9.72089 5.9075 9.00763 6.15668 8.33211C6.53793 7.34586 7.31918 6.56961 8.30543 6.19211C8.97367 5.94478 9.67921 5.81331 10.3917 5.80336C11.5804 5.74961 11.9142 5.73461 14.9604 5.73461C18.0067 5.73461 18.3192 5.73461 19.5279 5.80336C20.2409 5.81194 20.9471 5.94345 21.6154 6.19211C22.1016 6.37995 22.5431 6.66736 22.9116 7.0359C23.2802 7.40443 23.5676 7.84595 23.7554 8.33211C24.0011 9.0008 24.1325 9.70606 24.1442 10.4184C24.1979 11.6071 24.2117 11.9409 24.2117 14.9871C24.2117 18.0321 24.2117 18.3596 24.1579 19.5546H24.1442V19.5534Z"/>
</svg>
