<svg width="20" height="20" viewBox="0 0 20 20" fill="none" xmlns="http://www.w3.org/2000/svg">
<circle cx="10" cy="10" r="9.5" stroke="#75C5FF"/>
<path d="M10.0781 5C10.9675 5 11.6768 5.21854 12.2061 5.65563C12.7354 6.09272 13 6.6755 13 7.40397C13 7.89404 12.8915 8.31347 12.6746 8.66225C12.462 9.00662 12.0499 9.40397 11.4382 9.8543C11.0174 10.1678 10.7527 10.4062 10.6443 10.5695C10.5358 10.7329 10.4816 10.947 10.4816 11.2119V11.6093H8.75705V11.1192C8.75705 10.6954 8.84599 10.3267 9.02386 10.0132C9.20174 9.69536 9.52278 9.36645 9.98698 9.02649C10.4555 8.68212 10.7614 8.40839 10.9046 8.2053C11.0477 8.00221 11.1193 7.7638 11.1193 7.49007C11.1193 7.21634 11.0152 7.00442 10.8069 6.8543C10.603 6.70419 10.3124 6.62914 9.93492 6.62914C9.2885 6.62914 8.54664 6.84547 7.70933 7.27815L7 5.82781C7.9718 5.27594 8.99783 5 10.0781 5ZM8.54881 13.8675C8.54881 13.5011 8.64642 13.223 8.84165 13.0331C9.03688 12.8433 9.3167 12.7483 9.68113 12.7483C10.0499 12.7483 10.3319 12.8455 10.5271 13.0397C10.7267 13.234 10.8265 13.5099 10.8265 13.8675C10.8265 14.2208 10.7245 14.4989 10.5206 14.702C10.321 14.9007 10.0412 15 9.68113 15C9.32538 15 9.04772 14.9029 8.84816 14.7086C8.64859 14.5099 8.54881 14.2296 8.54881 13.8675Z" fill="#75C5FF"/>
</svg>
