<svg width="30" height="30" viewBox="0 0 30 30" fill="none" xmlns="http://www.w3.org/2000/svg">
<path d="M24.4403 3.74638C24.1393 3.76828 23.8439 3.83888 23.5656 3.95544H23.5618C23.2947 4.06138 22.0243 4.59576 20.0931 5.40576L13.1725 8.32044C8.20653 10.4111 3.32497 12.4698 3.32497 12.4698L3.38309 12.4473C3.38309 12.4473 3.04653 12.5579 2.69497 12.7989C2.47777 12.9371 2.29088 13.1179 2.14559 13.3304C1.97309 13.5836 1.83434 13.9708 1.8859 14.3711C1.97028 15.0479 2.40903 15.4539 2.72403 15.6779C3.04278 15.9048 3.34653 16.0108 3.34653 16.0108H3.35403L7.93184 17.5529C8.13715 18.212 9.32684 22.1233 9.61278 23.0242C9.78153 23.5623 9.94559 23.8989 10.1509 24.1558C10.2503 24.287 10.3665 24.3967 10.5062 24.4848C10.5788 24.5271 10.6563 24.5604 10.7368 24.5842L10.69 24.5729C10.704 24.5767 10.7153 24.5879 10.7256 24.5917C10.7631 24.602 10.7884 24.6058 10.8362 24.6133C11.5609 24.8326 12.1431 24.3826 12.1431 24.3826L12.1759 24.3564L14.8787 21.8954L19.4087 25.3708L19.5118 25.4148C20.4559 25.8292 21.4122 25.5986 21.9175 25.1917C22.4265 24.782 22.6243 24.2579 22.6243 24.2579L22.6572 24.1736L26.1578 6.24013C26.2572 5.79763 26.2825 5.38326 26.1728 4.98107C26.0596 4.57403 25.7985 4.22395 25.4406 3.99951C25.14 3.8168 24.7915 3.72861 24.4403 3.74638ZM24.3456 5.66826C24.3418 5.72732 24.3531 5.72076 24.3268 5.83419V5.84451L20.859 23.5914C20.844 23.6167 20.8187 23.672 20.7493 23.7273C20.6762 23.7854 20.6181 23.822 20.3134 23.7011L14.7728 19.4533L11.4259 22.5039L12.129 18.0133L21.1815 9.57576C21.5547 9.22888 21.43 9.15576 21.43 9.15576C21.4562 8.73013 20.8665 9.03107 20.8665 9.03107L9.45153 16.1026L9.44778 16.0839L3.97653 14.2417V14.2379L3.96247 14.2351C3.97206 14.2319 3.98145 14.2282 3.99059 14.2239L4.02059 14.2089L4.04965 14.1986C4.04965 14.1986 8.93497 12.1398 13.9009 10.0492C16.3872 9.00201 18.8922 7.94732 20.8187 7.13357C22.7453 6.32451 24.1693 5.73107 24.25 5.69919C24.3268 5.66919 24.2903 5.66919 24.3456 5.66919V5.66826Z"/>
</svg>
