<svg width="251" height="56" viewBox="0 0 251 56" fill="none" xmlns="http://www.w3.org/2000/svg">
<path d="M90.753 45.8737C88.9919 45.8737 87.3681 45.5535 85.9044 44.9131C84.4407 44.2728 83.1828 43.3808 82.1307 42.283C81.0787 41.1852 80.2553 39.8816 79.6835 38.395C79.0889 36.9084 78.8145 35.3532 78.8145 33.7065C78.8145 32.0598 79.1118 30.5046 79.6835 29.0408C80.2782 27.5771 81.1015 26.2735 82.1536 25.1757C83.2285 24.0779 84.4864 23.1859 85.9501 22.5455C87.4139 21.9052 89.0377 21.585 90.7987 21.585C92.5598 21.585 94.1836 21.9052 95.6245 22.5684C97.0882 23.2317 98.3232 24.1007 99.3295 25.1985C100.359 26.2963 101.136 27.5771 101.685 29.018C102.234 30.4817 102.509 31.9683 102.509 33.5464C102.509 33.8666 102.509 34.1868 102.486 34.4383C102.463 34.7128 102.44 34.9186 102.417 35.0787H82.9541C83.0455 36.2451 83.32 37.32 83.7545 38.2806C84.212 39.2412 84.7837 40.0645 85.5156 40.7507C86.2246 41.4368 87.0479 41.9857 87.9628 42.3745C88.8776 42.7633 89.8382 42.9691 90.8673 42.9691C91.5763 42.9691 92.2853 42.8776 92.9715 42.6718C93.6576 42.466 94.298 42.2144 94.9155 41.8942C95.5101 41.574 96.0361 41.1623 96.5164 40.682C96.9738 40.2018 97.3398 39.6529 97.5685 39.0582L100.976 39.9959C100.587 40.865 100.061 41.6655 99.3753 42.3745C98.6891 43.0835 97.9115 43.7239 97.0424 44.2499C96.1505 44.7759 95.1671 45.1876 94.0921 45.4849C93.0401 45.7365 91.9194 45.8737 90.753 45.8737ZM98.8035 32.1055C98.712 31.0077 98.4376 29.9785 97.9802 29.018C97.5227 28.0803 96.9281 27.2798 96.2191 26.6165C95.5101 25.9533 94.6868 25.4501 93.7719 25.0613C92.8342 24.6954 91.8508 24.4895 90.7987 24.4895C89.7467 24.4895 88.7632 24.6725 87.8255 25.0613C86.8878 25.4272 86.0874 25.9533 85.3784 26.6394C84.6694 27.3255 84.0976 28.126 83.6631 29.0408C83.2285 29.9785 82.9769 30.9848 82.8854 32.1055H98.8035Z" fill="#FFB661"/>
<path d="M112.98 45.8744C111.86 45.8744 110.83 45.6914 109.87 45.3026C108.909 44.9367 108.086 44.4106 107.377 43.7474C106.668 43.0841 106.119 42.3065 105.707 41.4374C105.296 40.5455 105.09 39.5849 105.09 38.5329C105.09 37.4579 105.319 36.4745 105.799 35.5825C106.279 34.6906 106.965 33.9358 107.834 33.3183C108.726 32.6779 109.778 32.1977 110.99 31.8317C112.203 31.4658 113.529 31.2828 114.97 31.2828C116.114 31.2828 117.257 31.3972 118.423 31.603C119.59 31.8089 120.619 32.1062 121.534 32.4492V30.551C121.534 28.6298 120.985 27.1203 119.91 26.0226C118.835 24.9248 117.303 24.3759 115.313 24.3759C112.935 24.3759 110.464 25.2907 107.857 27.1204L106.554 24.5588C109.573 22.5233 112.614 21.4941 115.679 21.4941C118.767 21.4941 121.168 22.3175 122.906 23.9642C124.621 25.6109 125.491 27.9437 125.491 30.9398V40.5226C125.491 41.4603 125.902 41.9406 126.748 41.9635V45.3712C126.337 45.4398 125.994 45.4856 125.719 45.5084C125.445 45.5313 125.17 45.5542 124.873 45.5542C124.095 45.5542 123.478 45.3255 122.998 44.8681C122.54 44.4106 122.266 43.8389 122.174 43.1756L122.083 41.5061C121.031 42.924 119.704 43.9761 118.103 44.7308C116.502 45.5084 114.787 45.8744 112.98 45.8744ZM114.009 42.9012C115.427 42.9012 116.731 42.6496 117.943 42.1236C119.155 41.5975 120.07 40.9114 120.711 40.0423C121.282 39.4706 121.557 38.8988 121.557 38.2813V34.8278C119.636 34.0731 117.646 33.7071 115.565 33.7071C113.575 33.7071 111.974 34.1188 110.739 34.965C109.504 35.8112 108.864 36.909 108.864 38.2584C108.864 38.9217 109.001 39.5392 109.252 40.1109C109.504 40.6827 109.87 41.1859 110.327 41.5975C110.785 42.0092 111.334 42.3523 111.974 42.581C112.614 42.7868 113.278 42.9012 114.009 42.9012Z" fill="white"/>
<path d="M140.084 45.8741C138.186 45.8741 136.333 45.5768 134.503 45.005C132.674 44.4104 131.096 43.5642 129.792 42.4664L131.507 39.8134C132.88 40.8654 134.275 41.643 135.647 42.1691C137.019 42.6951 138.483 42.9467 140.015 42.9467C141.731 42.9467 143.08 42.6036 144.086 41.9404C145.093 41.2542 145.596 40.3165 145.596 39.0815C145.596 38.5097 145.458 38.0295 145.184 37.6178C144.91 37.2061 144.521 36.863 143.972 36.5657C143.423 36.2684 142.737 35.994 141.913 35.7652C141.067 35.5365 140.107 35.2621 138.986 35.0105C137.568 34.6446 136.356 34.3015 135.35 33.9813C134.32 33.6611 133.497 33.2723 132.834 32.8149C132.171 32.3575 131.69 31.8315 131.393 31.1911C131.096 30.5507 130.936 29.7731 130.936 28.8583C130.936 27.6919 131.164 26.6398 131.622 25.725C132.079 24.8101 132.719 24.0554 133.543 23.4379C134.343 22.8204 135.304 22.363 136.402 22.0428C137.499 21.7226 138.666 21.5625 139.924 21.5625C141.685 21.5625 143.331 21.8369 144.864 22.4087C146.396 22.9805 147.677 23.7352 148.729 24.6501L146.922 27.0286C145.939 26.1595 144.818 25.4963 143.606 25.0617C142.371 24.6272 141.113 24.3985 139.832 24.3985C138.391 24.3985 137.179 24.6958 136.173 25.3133C135.167 25.9308 134.663 26.9143 134.663 28.2636C134.663 28.8125 134.755 29.2471 134.961 29.613C135.167 29.9789 135.487 30.2763 135.921 30.5507C136.379 30.8252 136.951 31.0539 137.66 31.2597C138.369 31.4655 139.215 31.6943 140.198 31.923C141.753 32.2889 143.103 32.6548 144.269 33.0208C145.413 33.3867 146.373 33.8441 147.151 34.3473C147.906 34.8504 148.477 35.4679 148.866 36.154C149.232 36.8402 149.438 37.6864 149.438 38.6698C149.438 40.8654 148.592 42.6036 146.922 43.8844C145.207 45.2337 142.943 45.8741 140.084 45.8741Z" fill="white"/>
<path d="M155.158 51.82C155.547 51.8886 155.936 51.9343 156.325 51.9572C156.714 51.9801 157.011 52.0029 157.217 52.0029C157.583 52.0029 157.903 51.9115 158.177 51.7514C158.452 51.5913 158.749 51.2711 159.024 50.7908C159.298 50.3105 159.641 49.6473 159.984 48.7782C160.35 47.932 160.785 46.8113 161.334 45.439L151.385 21.9736H155.524L163.529 41.8941L170.825 21.9736H174.599L163.186 51.6141C162.774 52.6662 162.065 53.581 161.105 54.3815C160.121 55.182 158.795 55.5708 157.08 55.5708C156.805 55.5708 156.531 55.5479 156.256 55.525C155.982 55.5022 155.616 55.4336 155.204 55.3421V51.82H155.158Z" fill="white"/>
<path d="M186.812 45.8741C184.914 45.8741 183.062 45.5768 181.232 45.005C179.402 44.4104 177.824 43.5642 176.521 42.4664L178.236 39.8134C179.608 40.8654 181.003 41.643 182.375 42.1691C183.748 42.6951 185.211 42.9467 186.744 42.9467C188.459 42.9467 189.808 42.6036 190.815 41.9404C191.821 41.2542 192.324 40.3165 192.324 39.0815C192.324 38.5097 192.187 38.0295 191.913 37.6178C191.638 37.2061 191.249 36.863 190.7 36.5657C190.151 36.2684 189.465 35.994 188.642 35.7652C187.796 35.5365 186.835 35.2621 185.715 35.0105C184.297 34.6446 183.084 34.3015 182.078 33.9813C181.049 33.6611 180.226 33.2723 179.562 32.8149C178.899 32.3575 178.419 31.8315 178.121 31.1911C177.824 30.5507 177.664 29.7731 177.664 28.8583C177.664 27.6919 177.893 26.6398 178.35 25.725C178.808 24.8101 179.448 24.0554 180.271 23.4379C181.072 22.8204 182.032 22.363 183.13 22.0428C184.228 21.7226 185.394 21.5625 186.652 21.5625C188.413 21.5625 190.06 21.8369 191.592 22.4087C193.125 22.9805 194.405 23.7352 195.457 24.6501L193.651 27.0286C192.667 26.1595 191.547 25.4963 190.334 25.0617C189.099 24.6272 187.842 24.3985 186.561 24.3985C185.12 24.3985 183.908 24.6958 182.901 25.3133C181.895 25.9308 181.392 26.9143 181.392 28.2636C181.392 28.8125 181.483 29.2471 181.689 29.613C181.895 29.9789 182.215 30.2763 182.65 30.5507C183.107 30.8252 183.679 31.0539 184.388 31.2597C185.097 31.4655 185.943 31.6943 186.927 31.923C188.482 32.2889 189.831 32.6548 190.998 33.0208C192.141 33.3867 193.102 33.8441 193.879 34.3473C194.634 34.8504 195.206 35.4679 195.595 36.154C195.961 36.8402 196.167 37.6864 196.167 38.6698C196.167 40.8654 195.32 42.6036 193.651 43.8844C191.935 45.2337 189.671 45.8741 186.812 45.8741Z" fill="#FFB661"/>
<path d="M211.188 45.8737C209.427 45.8737 207.803 45.5535 206.339 44.9131C204.875 44.2728 203.617 43.3808 202.565 42.283C201.513 41.1852 200.69 39.8816 200.118 38.395C199.523 36.9084 199.249 35.3532 199.249 33.7065C199.249 32.0598 199.546 30.5046 200.118 29.0408C200.713 27.5771 201.536 26.2735 202.588 25.1757C203.663 24.0779 204.921 23.1859 206.385 22.5455C207.848 21.9052 209.472 21.585 211.233 21.585C212.994 21.585 214.618 21.9052 216.059 22.5684C217.523 23.2317 218.758 24.1007 219.764 25.1985C220.793 26.2963 221.571 27.5771 222.12 29.018C222.669 30.4817 222.943 31.9683 222.943 33.5464C222.943 33.8666 222.943 34.1868 222.92 34.4383C222.897 34.7128 222.875 34.9186 222.852 35.0787H203.389C203.48 36.2451 203.755 37.32 204.189 38.2806C204.647 39.2412 205.218 40.0645 205.95 40.7507C206.659 41.4368 207.482 41.9857 208.397 42.3745C209.312 42.7633 210.273 42.9691 211.302 42.9691C212.011 42.9691 212.72 42.8776 213.406 42.6718C214.092 42.466 214.733 42.2144 215.35 41.8942C215.945 41.574 216.471 41.1623 216.951 40.682C217.408 40.2018 217.774 39.6529 218.003 39.0582L221.411 39.9959C221.022 40.865 220.496 41.6655 219.81 42.3745C219.124 43.0835 218.346 43.7239 217.477 44.2499C216.585 44.7759 215.602 45.1876 214.527 45.4849C213.475 45.7365 212.354 45.8737 211.188 45.8737ZM219.238 32.1055C219.147 31.0077 218.872 29.9785 218.415 29.018C217.957 28.0803 217.363 27.2798 216.654 26.6165C215.945 25.9533 215.121 25.4501 214.206 25.0613C213.269 24.6954 212.285 24.4895 211.233 24.4895C210.181 24.4895 209.198 24.6725 208.26 25.0613C207.322 25.4272 206.522 25.9533 205.813 26.6394C205.104 27.3255 204.532 28.126 204.098 29.0408C203.663 29.9785 203.411 30.9848 203.32 32.1055H219.238Z" fill="white"/>
<path d="M227.452 12.5967H231.409V39.3555C231.409 40.2246 231.638 40.9107 232.095 41.391C232.552 41.8941 233.216 42.1228 234.062 42.1228C234.382 42.1228 234.771 42.0771 235.228 41.9627C235.686 41.8484 236.097 41.734 236.486 41.5739L237.126 44.7759C236.463 45.0503 235.686 45.279 234.794 45.4391C233.902 45.6221 233.101 45.7135 232.415 45.7135C230.883 45.7135 229.671 45.279 228.802 44.4099C227.91 43.5408 227.475 42.3287 227.475 40.7735V12.5967H227.452Z" fill="white"/>
<path d="M240.327 12.5967H244.284V39.3555C244.284 40.2246 244.512 40.9107 244.97 41.391C245.427 41.8941 246.091 42.1228 246.937 42.1228C247.257 42.1228 247.646 42.0771 248.103 41.9627C248.561 41.8484 248.972 41.734 249.361 41.5739L250.001 44.7759C249.338 45.0503 248.561 45.279 247.669 45.4391C246.777 45.6221 245.976 45.7135 245.29 45.7135C243.758 45.7135 242.546 45.279 241.677 44.4099C240.785 43.5408 240.35 42.3287 240.35 40.7735V12.5967H240.327Z" fill="white"/>
<path d="M33.4154 35.8916H17.3262V51.9808H33.4154V35.8916Z" fill="#61A6F2"/>
<mask id="mask0" mask-type="alpha" maskUnits="userSpaceOnUse" x="0" y="18" width="34" height="34">
<circle cx="16.708" cy="35.2725" r="16.708" fill="#C4C4C4"/>
</mask>
<g mask="url(#mask0)">
<path d="M17.3268 18.5645H0V35.8913H17.3268V18.5645Z" fill="#CCE4FF"/>
<path d="M33.4154 18.5645H17.3262V35.8913H33.4154V18.5645Z" fill="#80BCFF"/>
<path d="M17.3268 35.8906H0V51.9798H17.3268V35.8906Z" fill="#99C9FF"/>
</g>
<mask id="mask1" mask-type="alpha" maskUnits="userSpaceOnUse" x="14" y="0" width="37" height="36">
<circle cx="32.7972" cy="17.9457" r="17.9457" fill="#C4C4C4"/>
</mask>
<g mask="url(#mask1)">
<path d="M33.4619 0H14.8516V18.6103H33.4619V0Z" fill="#CCEEFF"/>
<path d="M50.7429 0H33.4619V18.6103H50.7429V0Z" fill="#80D4FF"/>
<path d="M33.4619 18.6104H14.8516V35.8914H33.4619V18.6104Z" fill="#99DDFF"/>
<path d="M50.7429 18.6104H33.4619V35.8914H50.7429V18.6104Z" fill="#61C2F2"/>
</g>
<path d="M50.7438 35.8916H33.417V51.9808H50.7438V35.8916Z" fill="#99C9FF"/>
<mask id="mask2" mask-type="alpha" maskUnits="userSpaceOnUse" x="33" y="18" width="34" height="34">
<circle cx="50.124" cy="35.2725" r="16.708" fill="#C4C4C4"/>
</mask>
<g mask="url(#mask2)">
<path d="M50.7429 18.5645H33.416V35.8913H50.7429V18.5645Z" fill="#CCE4FF"/>
<path d="M66.8333 18.5645H50.7441V35.8913H66.8333V18.5645Z" fill="#80BCFF"/>
<path d="M66.8324 35.8906H50.7432V51.9798H66.8324V35.8906Z" fill="#61A6F2"/>
</g>
<path fill-rule="evenodd" clip-rule="evenodd" d="M23.5143 9.90039C23.5143 15.4323 27.7395 19.8014 32.7966 19.8014C37.8537 19.8014 42.0788 15.4323 42.0788 9.90039H44.5541C44.5541 16.6642 39.3521 22.2767 32.7966 22.2767C26.241 22.2767 21.0391 16.6642 21.0391 9.90039H23.5143Z" fill="white"/>
</svg>
