<svg width="225" height="50" viewBox="0 0 225 50" fill="none" xmlns="http://www.w3.org/2000/svg">
<path d="M81.4929 41.1934C79.9115 41.1934 78.4534 40.9059 77.139 40.3308C75.8246 39.7558 74.6951 38.9548 73.7504 37.969C72.8056 36.9832 72.0663 35.8126 71.5529 34.4777C71.0189 33.1428 70.7725 31.7462 70.7725 30.2676C70.7725 28.7889 71.0394 27.3923 71.5529 26.078C72.0868 24.7636 72.8262 23.5929 73.7709 22.6072C74.7362 21.6214 75.8657 20.8204 77.1801 20.2454C78.4945 19.6703 79.9526 19.3828 81.534 19.3828C83.1154 19.3828 84.5735 19.6703 85.8673 20.2659C87.1817 20.8615 88.2907 21.6419 89.1944 22.6277C90.1186 23.6135 90.8168 24.7636 91.3097 26.0574C91.8026 27.3718 92.0491 28.7067 92.0491 30.1238C92.0491 30.4113 92.0491 30.6988 92.0285 30.9248C92.008 31.1712 91.9874 31.356 91.9669 31.4998H74.4897C74.5719 32.5472 74.8183 33.5124 75.2085 34.375C75.6193 35.2376 76.1327 35.9769 76.7899 36.593C77.4265 37.2092 78.1659 37.702 78.9874 38.0512C79.8089 38.4003 80.6714 38.5851 81.5956 38.5851C82.2322 38.5851 82.8689 38.503 83.485 38.3182C84.1011 38.1333 84.6762 37.9074 85.2307 37.6199C85.7647 37.3324 86.237 36.9627 86.6683 36.5314C87.079 36.1001 87.4076 35.6072 87.613 35.0733L90.6731 35.9153C90.3239 36.6957 89.8516 37.4145 89.2355 38.0512C88.6193 38.6878 87.9211 39.2629 87.1407 39.7352C86.3397 40.2076 85.4566 40.5773 84.4914 40.8442C83.5466 41.0702 82.5403 41.1934 81.4929 41.1934ZM88.722 28.8299C88.6399 27.8442 88.3934 26.92 87.9827 26.0574C87.5719 25.2154 87.038 24.4966 86.4013 23.901C85.7647 23.3054 85.0253 22.8536 84.2038 22.5045C83.3618 22.1759 82.4787 21.991 81.534 21.991C80.5893 21.991 79.7062 22.1553 78.8641 22.5045C78.0221 22.8331 77.3033 23.3054 76.6666 23.9215C76.03 24.5377 75.5166 25.2565 75.1264 26.078C74.7361 26.92 74.5102 27.8236 74.4281 28.8299H88.722Z" fill="#FFB661"/>
<path d="M101.453 41.193C100.446 41.193 99.522 41.0287 98.6595 40.6796C97.7969 40.351 97.0576 39.8786 96.4209 39.283C95.7843 38.6875 95.2914 37.9892 94.9217 37.2088C94.552 36.4078 94.3672 35.5453 94.3672 34.6005C94.3672 33.6353 94.5726 32.7522 95.0038 31.9512C95.4351 31.1503 96.0512 30.4726 96.8317 29.9181C97.6326 29.343 98.5773 28.9117 99.6658 28.5831C100.754 28.2545 101.945 28.0902 103.239 28.0902C104.266 28.0902 105.293 28.1929 106.34 28.3778C107.388 28.5626 108.312 28.8296 109.133 29.1376V27.433C109.133 25.7079 108.641 24.3525 107.675 23.3667C106.71 22.3809 105.334 21.888 103.547 21.888C101.411 21.888 99.1934 22.7095 96.8522 24.3525L95.6816 22.0523C98.3925 20.2245 101.124 19.3003 103.876 19.3003C106.648 19.3003 108.805 20.0396 110.366 21.5183C111.906 22.997 112.686 25.0918 112.686 27.7822V36.3873C112.686 37.2293 113.056 37.6606 113.816 37.6811V40.7412C113.446 40.8028 113.138 40.8439 112.892 40.8644C112.645 40.8849 112.399 40.9055 112.132 40.9055C111.434 40.9055 110.879 40.7001 110.448 40.2894C110.037 39.8786 109.791 39.3652 109.709 38.7696L109.626 37.2704C108.682 38.5437 107.49 39.4884 106.053 40.1661C104.615 40.8644 103.075 41.193 101.453 41.193ZM102.377 38.5232C103.65 38.5232 104.821 38.2973 105.909 37.8249C106.998 37.3525 107.819 36.7364 108.394 35.956C108.908 35.4426 109.154 34.9291 109.154 34.3746V31.2735C107.429 30.5958 105.642 30.2672 103.773 30.2672C101.987 30.2672 100.549 30.6369 99.4399 31.3967C98.3309 32.1566 97.7558 33.1424 97.7558 34.3541C97.7558 34.9497 97.8791 35.5042 98.105 36.0176C98.3309 36.531 98.6595 36.9829 99.0702 37.3525C99.481 37.7222 99.9739 38.0303 100.549 38.2356C101.124 38.4205 101.72 38.5232 102.377 38.5232Z" fill="#61A6F2"/>
<path d="M125.791 41.1934C124.086 41.1934 122.422 40.9264 120.779 40.413C119.137 39.879 117.719 39.1191 116.549 38.1334L118.089 35.751C119.321 36.6958 120.574 37.394 121.806 37.8664C123.039 38.3387 124.353 38.5646 125.729 38.5646C127.269 38.5646 128.481 38.2566 129.385 37.661C130.288 37.0449 130.74 36.2029 130.74 35.0938C130.74 34.5804 130.617 34.1491 130.37 33.7795C130.124 33.4098 129.775 33.1017 129.282 32.8347C128.789 32.5678 128.173 32.3213 127.434 32.1159C126.674 31.9106 125.811 31.6641 124.805 31.4382C123.531 31.1096 122.443 30.8016 121.539 30.514C120.615 30.2265 119.876 29.8774 119.28 29.4666C118.685 29.0559 118.253 28.5835 117.986 28.0085C117.719 27.4334 117.576 26.7352 117.576 25.9137C117.576 24.8663 117.781 23.9216 118.192 23.1001C118.603 22.2786 119.178 21.6009 119.917 21.0464C120.636 20.4919 121.498 20.0811 122.484 19.7936C123.47 19.5061 124.517 19.3623 125.647 19.3623C127.228 19.3623 128.707 19.6088 130.083 20.1222C131.459 20.6356 132.609 21.3133 133.554 22.1348L131.931 24.2707C131.048 23.4903 130.042 22.8947 128.953 22.5045C127.844 22.1143 126.715 21.9089 125.565 21.9089C124.271 21.9089 123.182 22.1759 122.279 22.7304C121.375 23.2849 120.923 24.168 120.923 25.3797C120.923 25.8726 121.005 26.2628 121.19 26.5914C121.375 26.92 121.663 27.187 122.053 27.4334C122.464 27.6799 122.977 27.8853 123.614 28.0701C124.25 28.2549 125.01 28.4603 125.893 28.6657C127.29 28.9943 128.502 29.3229 129.549 29.6515C130.576 29.9801 131.438 30.3908 132.137 30.8426C132.814 31.2944 133.328 31.849 133.677 32.4651C134.005 33.0812 134.19 33.8411 134.19 34.7242C134.19 36.6958 133.43 38.2566 131.931 39.4067C130.391 40.6184 128.358 41.1934 125.791 41.1934Z" fill="#61A6F2"/>
<path d="M139.327 46.5331C139.676 46.5947 140.025 46.6357 140.375 46.6563C140.724 46.6768 140.991 46.6973 141.175 46.6973C141.504 46.6973 141.792 46.6152 142.038 46.4714C142.284 46.3277 142.551 46.0402 142.798 45.6089C143.044 45.1776 143.352 44.582 143.66 43.8016C143.989 43.0417 144.379 42.0354 144.872 40.8032L135.938 19.7319H139.656L146.844 37.6199L153.395 19.7319H156.784L146.536 46.3482C146.166 47.2929 145.529 48.1144 144.667 48.8332C143.784 49.552 142.593 49.9012 141.052 49.9012C140.806 49.9012 140.559 49.8806 140.313 49.8601C140.066 49.8396 139.738 49.7779 139.368 49.6958V46.5331H139.327Z" fill="#61A6F2"/>
<path d="M167.752 41.1934C166.047 41.1934 164.383 40.9264 162.74 40.413C161.097 39.879 159.68 39.1191 158.51 38.1334L160.05 35.751C161.282 36.6958 162.535 37.394 163.767 37.8664C165 38.3387 166.314 38.5646 167.69 38.5646C169.23 38.5646 170.442 38.2566 171.346 37.661C172.249 37.0449 172.701 36.2029 172.701 35.0938C172.701 34.5804 172.578 34.1491 172.331 33.7795C172.085 33.4098 171.736 33.1017 171.243 32.8347C170.75 32.5678 170.134 32.3213 169.395 32.1159C168.635 31.9106 167.772 31.6641 166.766 31.4382C165.492 31.1096 164.404 30.8016 163.5 30.514C162.576 30.2265 161.837 29.8774 161.241 29.4666C160.646 29.0559 160.214 28.5835 159.947 28.0085C159.68 27.4334 159.537 26.7352 159.537 25.9137C159.537 24.8663 159.742 23.9216 160.153 23.1001C160.563 22.2786 161.139 21.6009 161.878 21.0464C162.597 20.4919 163.459 20.0811 164.445 19.7936C165.431 19.5061 166.478 19.3623 167.608 19.3623C169.189 19.3623 170.668 19.6088 172.044 20.1222C173.42 20.6356 174.57 21.3133 175.515 22.1348L173.892 24.2707C173.009 23.4903 172.003 22.8947 170.914 22.5045C169.805 22.1143 168.676 21.9089 167.526 21.9089C166.232 21.9089 165.143 22.1759 164.24 22.7304C163.336 23.2849 162.884 24.168 162.884 25.3797C162.884 25.8726 162.966 26.2628 163.151 26.5914C163.336 26.92 163.624 27.187 164.014 27.4334C164.424 27.6799 164.938 27.8853 165.575 28.0701C166.211 28.2549 166.971 28.4603 167.854 28.6657C169.251 28.9943 170.462 29.3229 171.51 29.6515C172.537 29.9801 173.399 30.3908 174.098 30.8426C174.775 31.2944 175.289 31.849 175.638 32.4651C175.966 33.0812 176.151 33.8411 176.151 34.7242C176.151 36.6958 175.391 38.2566 173.892 39.4067C172.352 40.6184 170.319 41.1934 167.752 41.1934Z" fill="#FFB661"/>
<path d="M189.639 41.1934C188.058 41.1934 186.6 40.9059 185.285 40.3308C183.971 39.7558 182.842 38.9548 181.897 37.969C180.952 36.9832 180.213 35.8126 179.699 34.4777C179.165 33.1428 178.919 31.7462 178.919 30.2676C178.919 28.7889 179.186 27.3923 179.699 26.078C180.233 24.7636 180.973 23.5929 181.917 22.6072C182.883 21.6214 184.012 20.8204 185.327 20.2454C186.641 19.6703 188.099 19.3828 189.68 19.3828C191.262 19.3828 192.72 19.6703 194.014 20.2659C195.328 20.8615 196.437 21.6419 197.341 22.6277C198.265 23.6135 198.963 24.7636 199.456 26.0574C199.949 27.3718 200.196 28.7067 200.196 30.1238C200.196 30.4113 200.196 30.6988 200.175 30.9248C200.154 31.1712 200.134 31.356 200.113 31.4998H182.636C182.718 32.5472 182.965 33.5124 183.355 34.375C183.766 35.2376 184.279 35.9769 184.936 36.593C185.573 37.2092 186.312 37.702 187.134 38.0512C187.955 38.4003 188.818 38.5851 189.742 38.5851C190.379 38.5851 191.015 38.503 191.631 38.3182C192.248 38.1333 192.823 37.9074 193.377 37.6199C193.911 37.3324 194.383 36.9627 194.815 36.5314C195.226 36.1001 195.554 35.6072 195.759 35.0733L198.82 35.9153C198.47 36.6957 197.998 37.4145 197.382 38.0512C196.766 38.6878 196.068 39.2629 195.287 39.7352C194.486 40.2076 193.603 40.5773 192.638 40.8442C191.693 41.0702 190.687 41.1934 189.639 41.1934ZM196.868 28.8299C196.786 27.8442 196.54 26.92 196.129 26.0574C195.718 25.2154 195.184 24.4966 194.548 23.901C193.911 23.3054 193.172 22.8536 192.35 22.5045C191.508 22.1759 190.625 21.991 189.68 21.991C188.736 21.991 187.853 22.1553 187.011 22.5045C186.169 22.8331 185.45 23.3054 184.813 23.9215C184.176 24.5377 183.663 25.2565 183.273 26.078C182.883 26.92 182.657 27.8236 182.575 28.8299H196.868Z" fill="#61A6F2"/>
<path d="M204.245 11.3115H207.798V35.3401C207.798 36.1205 208.003 36.7366 208.414 37.1679C208.825 37.6198 209.421 37.8251 210.18 37.8251C210.468 37.8251 210.817 37.784 211.228 37.6814C211.639 37.5787 212.008 37.476 212.357 37.3322L212.932 40.2074C212.337 40.4539 211.639 40.6593 210.838 40.803C210.037 40.9673 209.318 41.0495 208.702 41.0495C207.326 41.0495 206.237 40.6593 205.457 39.8788C204.656 39.0984 204.266 38.01 204.266 36.6134V11.3115H204.245Z" fill="#61A6F2"/>
<path d="M215.806 11.3115H219.359V35.3401C219.359 36.1205 219.564 36.7366 219.975 37.1679C220.385 37.6198 220.981 37.8251 221.741 37.8251C222.028 37.8251 222.378 37.784 222.788 37.6814C223.199 37.5787 223.569 37.476 223.918 37.3322L224.493 40.2074C223.897 40.4539 223.199 40.6593 222.398 40.803C221.597 40.9673 220.878 41.0495 220.262 41.0495C218.886 41.0495 217.798 40.6593 217.017 39.8788C216.216 39.0984 215.826 38.01 215.826 36.6134V11.3115H215.806Z" fill="#61A6F2"/>
<path d="M30.0062 32.2295H15.5586V46.6771H30.0062V32.2295Z" fill="#61A6F2"/>
<mask id="mask0" mask-type="alpha" maskUnits="userSpaceOnUse" x="0" y="16" width="31" height="31">
<circle cx="15.0033" cy="31.6737" r="15.0033" fill="#C4C4C4"/>
</mask>
<g mask="url(#mask0)">
<path d="M15.559 16.6704H0V32.2294H15.559V16.6704Z" fill="#CCE4FF"/>
<path d="M30.0062 16.6704H15.5586V32.2294H30.0062V16.6704Z" fill="#80BCFF"/>
<path d="M15.559 32.2295H0V46.6771H15.559V32.2295Z" fill="#99C9FF"/>
</g>
<mask id="mask1" mask-type="alpha" maskUnits="userSpaceOnUse" x="13" y="0" width="33" height="33">
<circle cx="29.4506" cy="16.1147" r="16.1147" fill="#C4C4C4"/>
</mask>
<g mask="url(#mask1)">
<path d="M30.0474 0H13.3359V16.7115H30.0474V0Z" fill="#CCEEFF"/>
<path d="M45.5657 0H30.0479V16.7115H45.5657V0Z" fill="#80D4FF"/>
<path d="M30.0474 16.7114H13.3359V32.2292H30.0474V16.7114Z" fill="#99DDFF"/>
<path d="M45.5657 16.7114H30.0479V32.2292H45.5657V16.7114Z" fill="#61C2F2"/>
</g>
<path d="M45.5668 32.2295H30.0078V46.6771H45.5668V32.2295Z" fill="#99C9FF"/>
<mask id="mask2" mask-type="alpha" maskUnits="userSpaceOnUse" x="30" y="16" width="31" height="31">
<circle cx="45.0101" cy="31.6737" r="15.0033" fill="#C4C4C4"/>
</mask>
<g mask="url(#mask2)">
<path d="M45.5658 16.6704H30.0068V32.2294H45.5658V16.6704Z" fill="#CCE4FF"/>
<path d="M60.014 16.6704H45.5664V32.2294H60.014V16.6704Z" fill="#80BCFF"/>
<path d="M60.0131 32.2295H45.5654V46.6771H60.0131V32.2295Z" fill="#61A6F2"/>
</g>
<path fill-rule="evenodd" clip-rule="evenodd" d="M21.1153 8.89062C21.1153 13.8581 24.9093 17.7815 29.4505 17.7815C33.9916 17.7815 37.7856 13.8581 37.7856 8.89062H40.0083C40.0083 14.9643 35.3371 20.0042 29.4505 20.0042C23.5638 20.0042 18.8926 14.9643 18.8926 8.89062H21.1153Z" fill="white"/>
</svg>
