<svg width="607" height="162" viewBox="0 0 607 162" fill="none" xmlns="http://www.w3.org/2000/svg">
<g opacity="0.3">
<rect opacity="0.8" x="162" y="45" width="30" height="30" fill="#5893D4"/>
<rect opacity="0.8" x="10" width="30" height="30" fill="#5893D4"/>
<rect opacity="0.8" x="249" y="102" width="30" height="30" fill="#5893D4"/>
<rect opacity="0.8" x="58" y="66" width="18" height="18" fill="#5893D4"/>
<rect opacity="0.2" x="113" y="30" width="30" height="30" fill="#5893D4"/>
<rect opacity="0.2" x="178" y="102" width="18" height="18" fill="#5893D4"/>
<rect opacity="0.2" x="398" y="102" width="30" height="30" fill="#5893D4"/>
<rect opacity="0.2" x="465" y="132" width="30" height="30" fill="#5893D4"/>
<rect opacity="0.2" x="547" y="96" width="18" height="18" fill="#5893D4"/>
<rect opacity="0.1" x="597" y="127" width="10" height="10" fill="#5893D4"/>
<rect opacity="0.5" x="207" y="15" width="30" height="30" fill="#5893D4"/>
<rect opacity="0.5" x="330" y="124" width="30" height="30" fill="#5893D4"/>
<rect opacity="0.5" x="255" y="58" width="18" height="18" fill="#5893D4"/>
<rect opacity="0.5" x="86" y="123" width="18" height="18" fill="#5893D4"/>
<rect opacity="0.2" y="108" width="30" height="30" fill="#5893D4"/>
</g>
</svg>
