<svg width="74" height="55" viewBox="0 0 74 55" fill="none" xmlns="http://www.w3.org/2000/svg">
<path d="M16.8191 22.4339H16.8191C19.8595 22.4337 22.8377 23.2907 25.4092 24.9058C27.9806 26.5208 30.0402 28.8276 31.3498 31.5593C32.6594 34.2909 33.1658 37.3358 32.8103 40.3418C32.4549 43.3479 31.2521 46.1925 29.341 48.5466C27.4299 50.9007 24.8884 52.6681 22.0104 53.6441C19.1323 54.6201 16.0356 54.7646 13.0785 54.061C10.1213 53.3574 7.42491 51.8345 5.30098 49.6686C3.17707 47.5028 1.71244 44.7826 1.07623 41.8228L0.969654 41.327L0.906135 41.3416L0.893966 41.2601C0.893938 41.26 0.893911 41.2598 0.893883 41.2596C0.820265 40.7573 0.719375 40.0454 0.665487 39.3156L0.665626 39.3155L0.664479 39.3038C0.512207 37.7439 0.438612 35.5758 0.562871 32.9601C0.712656 30.3536 1.0994 27.3121 1.96194 24.114C2.41751 22.5174 2.97364 20.8781 3.66214 19.2781C3.74304 19.1081 3.82319 18.9387 3.90304 18.7698C4.59465 17.3075 5.26391 15.8925 6.20185 14.5917L6.21488 14.5736L6.22626 14.5545C7.13108 13.03 8.3031 11.6808 9.51656 10.3697L9.52965 10.3555L9.54162 10.3404C10.066 9.67809 10.69 9.11293 11.3529 8.56713C11.5859 8.37539 11.8291 8.18186 12.0746 7.98658C12.5072 7.64239 12.9467 7.29276 13.3484 6.93788C13.9612 6.4295 14.6208 6.01161 15.2962 5.61653C15.5228 5.48398 15.7552 5.35184 15.9885 5.21914C16.4383 4.96335 16.8917 4.70548 17.3147 4.43853L17.3147 4.43864L17.3244 4.43224C17.9139 4.04079 18.5328 3.75803 19.1632 3.50525C19.3837 3.41688 19.6129 3.32953 19.844 3.24152C20.2473 3.08786 20.656 2.93219 21.0319 2.76553C21.3389 2.64672 21.6301 2.52865 21.9089 2.41564C22.7523 2.07374 23.4812 1.77826 24.1842 1.64908L24.2002 1.64614L24.2159 1.64218C24.7792 1.50034 25.2919 1.37472 25.7623 1.25945C26.1157 1.17285 26.4453 1.09208 26.7547 1.01467C26.7554 1.01448 26.7562 1.01429 26.757 1.0141L28.4736 0.601747L30.0369 6.82337L28.6887 7.38143L28.6873 7.38203L26.7176 8.18998C26.2753 8.33506 25.8596 8.55258 25.4621 8.78347C25.2801 8.88924 25.0967 9.0009 24.9153 9.11141C24.8955 9.12348 24.8757 9.13553 24.8559 9.14756C24.6533 9.27088 24.4516 9.393 24.2443 9.51134L24.2297 9.51969L24.2157 9.52901C23.951 9.70471 23.6736 9.8569 23.3702 10.0233C23.225 10.103 23.0739 10.1859 22.9153 10.2762C22.4478 10.5426 21.9517 10.8557 21.5138 11.2842C21.2285 11.5468 20.9196 11.7864 20.5878 12.0437C20.4777 12.1291 20.3652 12.2164 20.2501 12.3071C19.7987 12.6631 19.3269 13.0594 18.9215 13.5455L18.9157 13.5525L18.9101 13.5596C18.6653 13.8758 18.3944 14.1609 18.1032 14.4674C17.9946 14.5817 17.8832 14.6989 17.7693 14.8219C17.3697 15.2531 16.9602 15.7345 16.6562 16.3205C16.6414 16.343 16.6265 16.3655 16.6116 16.3881C15.9886 17.3306 15.3324 18.3232 14.9017 19.4676C14.4626 20.2908 14.1913 21.1952 13.9421 22.0296L13.7181 22.7798L14.4929 22.6675C14.5499 22.6592 14.6066 22.651 14.6631 22.6427C15.3977 22.5356 16.0958 22.4339 16.8191 22.4339ZM54.5213 22.0296L54.2973 22.7798L55.0722 22.6675C55.1291 22.6592 55.1858 22.651 55.2423 22.6427C55.9769 22.5356 56.6751 22.4339 57.3983 22.4339C60.4387 22.4337 63.417 23.2907 65.9884 24.9058C68.5599 26.5208 70.6194 28.8276 71.929 31.5593C73.2387 34.2909 73.745 37.3358 73.3895 40.3418C73.0341 43.3479 71.8314 46.1925 69.9202 48.5466C68.0091 50.9007 65.4676 52.6681 62.5896 53.6441C59.7115 54.6201 56.6148 54.7646 53.6577 54.061C50.7006 53.3574 48.0041 51.8345 45.8802 49.6686C43.7563 47.5028 42.2917 44.7826 41.6554 41.8228L41.5489 41.327L41.4853 41.3416L41.4732 41.2601C41.4731 41.2598 41.4731 41.2594 41.473 41.2591C41.3994 40.7569 41.2986 40.0452 41.2447 39.3156L41.2448 39.3155L41.2437 39.3038C41.0914 37.7439 41.0178 35.5757 41.1421 32.9599C41.2919 30.3535 41.6786 27.312 42.5412 24.1139C42.9967 22.5173 43.5529 20.8781 44.2414 19.2781C44.3223 19.1081 44.4024 18.9386 44.4823 18.7698C45.1739 17.3075 45.8431 15.8924 46.7811 14.5917L46.7941 14.5736L46.8055 14.5545C47.7103 13.03 48.8823 11.6808 50.0958 10.3697L50.1086 10.3558L50.1204 10.3409C50.6449 9.68026 51.2689 9.11592 51.932 8.57048C52.1637 8.37986 52.4056 8.18752 52.6496 7.99343C53.0836 7.64832 53.5244 7.29771 53.9276 6.94157C54.5404 6.43318 55.2 6.01529 55.8754 5.62021C56.102 5.48764 56.3344 5.3555 56.5677 5.2228C57.0175 4.96701 57.4709 4.70914 57.8939 4.4422L57.894 4.44233L57.9044 4.43536C58.4934 4.04256 59.1127 3.75997 59.7437 3.50714C59.958 3.42129 60.1803 3.33653 60.4042 3.25112C60.8141 3.09481 61.2297 2.93636 61.612 2.7652C61.9186 2.6465 62.2096 2.52855 62.4881 2.41565C63.3315 2.07375 64.0604 1.77826 64.7634 1.64908L64.7794 1.64614L64.7951 1.64218C65.3585 1.50033 65.8712 1.3747 66.3416 1.25942C66.695 1.17284 67.0245 1.09209 67.3338 1.01468C67.3346 1.01448 67.3354 1.01429 67.3362 1.0141L69.0528 0.601747L70.6162 6.82337L69.2679 7.38143L69.2665 7.38203L67.2968 8.18998C66.8545 8.33506 66.4388 8.55258 66.0414 8.78347C65.8591 8.88934 65.6756 9.00111 65.494 9.11173L65.4352 9.14756C65.2326 9.27088 65.0308 9.393 64.8235 9.51134L64.8089 9.51969L64.7949 9.52901C64.5303 9.70471 64.2528 9.8569 63.9494 10.0233C63.8042 10.103 63.6531 10.1859 63.4945 10.2762C63.027 10.5426 62.5309 10.8557 62.093 11.2841C61.8077 11.5467 61.4988 11.7863 61.167 12.0437C61.057 12.129 60.9444 12.2164 60.8293 12.3071C60.3779 12.6631 59.9061 13.0594 59.5007 13.5455L59.4949 13.5525L59.4893 13.5596C59.2445 13.8758 58.9736 14.1609 58.6824 14.4674C58.5738 14.5817 58.4625 14.699 58.3485 14.8219C57.9489 15.2531 57.5394 15.7344 57.2355 16.3205L57.1907 16.3882C56.5677 17.3306 55.9116 18.3232 55.4809 19.4676C55.0418 20.2908 54.7705 21.1952 54.5213 22.0296Z" stroke="white"/>
</svg>
